<svg width="29" height="29" viewBox="0 0 29 29" fill="none" xmlns="http://www.w3.org/2000/svg">
<path d="M19.6279 15.8656H21.3779V17.6156H19.6279V15.8656Z" fill="#1B2559"/>
<path d="M24.8779 7.9906H3.87793V5.3656H23.1279V3.6156H3.87793C3.4138 3.6156 2.96868 3.79997 2.64049 4.12816C2.3123 4.45635 2.12793 4.90147 2.12793 5.3656V23.7406C2.12793 24.2047 2.3123 24.6498 2.64049 24.978C2.96868 25.3062 3.4138 25.4906 3.87793 25.4906H24.8779C25.3421 25.4906 25.7872 25.3062 26.1154 24.978C26.4436 24.6498 26.6279 24.2047 26.6279 23.7406V9.7406C26.6279 9.27647 26.4436 8.83135 26.1154 8.50316C25.7872 8.17498 25.3421 7.9906 24.8779 7.9906ZM3.87793 23.7406V9.7406H24.8779V12.3656H17.8779C17.4138 12.3656 16.9687 12.55 16.6405 12.8782C16.3123 13.2064 16.1279 13.6515 16.1279 14.1156V19.3656C16.1279 19.8297 16.3123 20.2748 16.6405 20.603C16.9687 20.9312 17.4138 21.1156 17.8779 21.1156H24.8779V23.7406H3.87793ZM24.8779 14.1156V19.3656H17.8779V14.1156H24.8779Z" fill="#1B2559"/>
</svg>
