<svg width="19" height="19" viewBox="0 0 19 19" fill="none" xmlns="http://www.w3.org/2000/svg">
<path d="M8.94599 18.6655C9.28648 18.6576 9.61322 18.5296 9.86842 18.3041C10.1236 18.0786 10.2908 17.77 10.3405 17.4331H7.49744C7.5485 17.7792 7.72354 18.095 7.99 18.3216C8.25646 18.5483 8.59619 18.6705 8.94599 18.6655Z" fill="#4B00D4"/>
<path d="M16.7887 15.1791C16.2675 14.7144 15.8112 14.1818 15.432 13.5954C15.0181 12.786 14.77 11.9021 14.7023 10.9956V8.32547C14.7001 8.00114 14.6712 7.67754 14.6159 7.35796C14.1904 7.27292 13.7816 7.1196 13.4051 6.90394C13.5486 7.36599 13.6215 7.84706 13.6213 8.33088V11.001C13.6876 12.1069 13.9918 13.1854 14.5132 14.1629C14.8863 14.7543 15.3291 15.2987 15.832 15.7845H1.98961C2.4925 15.2987 2.93528 14.7543 3.30845 14.1629C3.82983 13.1854 4.13404 12.1069 4.20028 11.001V8.32547C4.19744 7.69994 4.31801 7.07998 4.5551 6.50111C4.79218 5.92224 5.14112 5.39581 5.58194 4.95199C6.02275 4.50816 6.54679 4.15564 7.12403 3.91462C7.70128 3.6736 8.32039 3.54881 8.94594 3.54739C9.86143 3.54812 10.7564 3.81886 11.5187 4.32572C11.4347 4.01708 11.3875 3.69957 11.3782 3.37983V3.03931C10.8139 2.76169 10.2075 2.57907 9.58373 2.49881V1.81777C9.58373 1.62639 9.50771 1.44286 9.37239 1.30754C9.23707 1.17221 9.05353 1.09619 8.86216 1.09619C8.67078 1.09619 8.48725 1.17221 8.35192 1.30754C8.2166 1.44286 8.14058 1.62639 8.14058 1.81777V2.52583C6.74376 2.72288 5.46538 3.41861 4.54146 4.48459C3.61755 5.55057 3.11048 6.91482 3.11387 8.32547V10.9956C3.04617 11.9021 2.79809 12.786 2.38418 13.5954C2.01171 14.1804 1.56272 14.713 1.04913 15.1791C0.991474 15.2297 0.945266 15.2921 0.913579 15.362C0.881892 15.4319 0.865454 15.5077 0.865356 15.5845V16.3196C0.865356 16.4629 0.922303 16.6004 1.02367 16.7018C1.12503 16.8031 1.26251 16.8601 1.40586 16.8601H16.432C16.5753 16.8601 16.7128 16.8031 16.8142 16.7018C16.9155 16.6004 16.9725 16.4629 16.9725 16.3196V15.5845C16.9724 15.5077 16.9559 15.4319 16.9242 15.362C16.8926 15.2921 16.8463 15.2297 16.7887 15.1791Z" fill="#4B00D4"/>
<path d="M15.4321 6.0828C16.9247 6.0828 18.1347 4.87284 18.1347 3.38027C18.1347 1.8877 16.9247 0.677734 15.4321 0.677734C13.9396 0.677734 12.7296 1.8877 12.7296 3.38027C12.7296 4.87284 13.9396 6.0828 15.4321 6.0828Z" fill="#4B00D4"/>
</svg>
