<svg width="30" height="26" viewBox="0 0 30 26" fill="none" xmlns="http://www.w3.org/2000/svg">
<path fill-rule="evenodd" clip-rule="evenodd" d="M5.71639 0.892578H3.66968V11.1261H5.71639V0.892578ZM18.2013 11.1261H11.6519L10.8332 10.0004V7.95373L11.6519 7.03271H18.2013L19.02 8.05607V10.1028L18.2013 11.1261ZM7.96777 17.2663H1.41829L0.599609 16.2429V14.1962L1.41829 13.1729H7.96777L8.78646 14.1962V16.2429L7.96777 17.2663ZM15.95 0.892578H13.9032V4.986H15.95V0.892578ZM13.9032 13.1729H15.95V25.4531H13.9032V13.1729ZM5.71639 19.313H3.66968V25.4531H5.71639V19.313ZM21.8854 19.313H28.4144L29.2331 18.2896V16.3453L28.4144 15.3219H21.8854L21.0667 16.3453V18.2896L21.8854 19.313ZM26.1835 0.892578H24.1368V13.1729H26.1835V0.892578ZM24.1368 21.3597H26.1835V25.4531H24.1368V21.3597Z" fill="#4B00D4"/>
</svg>
