<svg width="23" height="25" viewBox="0 0 23 25" fill="none" xmlns="http://www.w3.org/2000/svg">
<path d="M14 9.16683H17.3333C18.4384 9.16683 19.4982 8.72784 20.2796 7.94644C21.061 7.16504 21.5 6.10523 21.5 5.00016C21.5 3.89509 21.061 2.83529 20.2796 2.05388C19.4982 1.27248 18.4384 0.833496 17.3333 0.833496H5.66667C4.5616 0.833496 3.50179 1.27248 2.72039 2.05388C1.93899 2.83529 1.5 3.89509 1.5 5.00016C1.5 6.10523 1.93899 7.16504 2.72039 7.94644C3.50179 8.72784 4.5616 9.16683 5.66667 9.16683M8.16667 16.6668V14.1668V16.6668ZM8.16667 14.1668V5.8335C8.16667 5.39147 8.34226 4.96755 8.65482 4.65498C8.96738 4.34242 9.39131 4.16683 9.83333 4.16683C10.2754 4.16683 10.6993 4.34242 11.0118 4.65498C11.3244 4.96755 11.5 5.39147 11.5 5.8335V12.5002H17.0883C18.605 12.5002 19.8333 13.7285 19.8333 15.2452V16.6668C19.8333 18.656 19.0432 20.5636 17.6366 21.9701C16.2301 23.3767 14.3225 24.1668 12.3333 24.1668H11.5C9.73189 24.1668 8.0362 23.4645 6.78595 22.2142C5.53571 20.964 4.83333 19.2683 4.83333 17.5002C4.83333 16.6161 5.18452 15.7683 5.80964 15.1431C6.43477 14.518 7.28261 14.1668 8.16667 14.1668V14.1668Z" stroke="#1B2559" stroke-width="1.5"/>
</svg>
