<svg width="29" height="29" viewBox="0 0 29 29" fill="none" xmlns="http://www.w3.org/2000/svg">
<path d="M25.7218 4.90076H23.194V6.45631H25.5273V23.5674H3.74954V6.45631H6.08288V4.90076H3.5551C3.37328 4.9038 3.19385 4.94262 3.02704 5.01502C2.86023 5.08742 2.70932 5.19196 2.58292 5.32269C2.45653 5.45342 2.35712 5.60777 2.29039 5.77692C2.22365 5.94608 2.1909 6.12672 2.19399 6.30853V23.7152C2.1909 23.897 2.22365 24.0777 2.29039 24.2468C2.35712 24.416 2.45653 24.5703 2.58292 24.701C2.70932 24.8318 2.86023 24.9363 3.02704 25.0087C3.19385 25.0811 3.37328 25.1199 3.5551 25.123H25.7218C25.9036 25.1199 26.083 25.0811 26.2498 25.0087C26.4166 24.9363 26.5675 24.8318 26.6939 24.701C26.8203 24.5703 26.9197 24.416 26.9865 24.2468C27.0532 24.0777 27.086 23.897 27.0829 23.7152V6.30853C27.086 6.12672 27.0532 5.94608 26.9865 5.77692C26.9197 5.60777 26.8203 5.45342 26.6939 5.32269C26.5675 5.19196 26.4166 5.08742 26.2498 5.01502C26.083 4.94262 25.9036 4.9038 25.7218 4.90076Z" fill="#1B2559"/>
<path d="M6.86066 11.123H8.41621V12.6786H6.86066V11.123Z" fill="#1B2559"/>
<path d="M11.5273 11.123H13.0829V12.6786H11.5273V11.123Z" fill="#1B2559"/>
<path d="M16.194 11.123H17.7495V12.6786H16.194V11.123Z" fill="#1B2559"/>
<path d="M20.8607 11.123H22.4162V12.6786H20.8607V11.123Z" fill="#1B2559"/>
<path d="M6.86066 15.012H8.41621V16.5675H6.86066V15.012Z" fill="#1B2559"/>
<path d="M11.5273 15.012H13.0829V16.5675H11.5273V15.012Z" fill="#1B2559"/>
<path d="M16.194 15.012H17.7495V16.5675H16.194V15.012Z" fill="#1B2559"/>
<path d="M20.8607 15.012H22.4162V16.5675H20.8607V15.012Z" fill="#1B2559"/>
<path d="M6.86066 18.9008H8.41621V20.4563H6.86066V18.9008Z" fill="#1B2559"/>
<path d="M11.5273 18.9008H13.0829V20.4563H11.5273V18.9008Z" fill="#1B2559"/>
<path d="M16.194 18.9008H17.7495V20.4563H16.194V18.9008Z" fill="#1B2559"/>
<path d="M20.8607 18.9008H22.4162V20.4563H20.8607V18.9008Z" fill="#1B2559"/>
<path d="M8.41621 8.0119C8.62248 8.0119 8.82032 7.92995 8.96618 7.78409C9.11204 7.63823 9.19398 7.4404 9.19398 7.23412V2.56745C9.19398 2.36117 9.11204 2.16334 8.96618 2.01748C8.82032 1.87162 8.62248 1.78967 8.41621 1.78967C8.20993 1.78967 8.0121 1.87162 7.86623 2.01748C7.72037 2.16334 7.63843 2.36117 7.63843 2.56745V7.23412C7.63843 7.4404 7.72037 7.63823 7.86623 7.78409C8.0121 7.92995 8.20993 8.0119 8.41621 8.0119Z" fill="#1B2559"/>
<path d="M20.8607 8.0119C21.0669 8.0119 21.2648 7.92995 21.4106 7.78409C21.5565 7.63823 21.6384 7.4404 21.6384 7.23412V2.56745C21.6384 2.36117 21.5565 2.16334 21.4106 2.01748C21.2648 1.87162 21.0669 1.78967 20.8607 1.78967C20.6544 1.78967 20.4566 1.87162 20.3107 2.01748C20.1648 2.16334 20.0829 2.36117 20.0829 2.56745V7.23412C20.0829 7.4404 20.1648 7.63823 20.3107 7.78409C20.4566 7.92995 20.6544 8.0119 20.8607 8.0119Z" fill="#1B2559"/>
<path d="M10.7495 4.90076H18.5273V6.45631H10.7495V4.90076Z" fill="#1B2559"/>
</svg>
