<svg width="26" height="20" viewBox="0 0 26 20" fill="none" xmlns="http://www.w3.org/2000/svg">
<path d="M17.9329 6.03369C17.9329 5.8182 18.0156 5.61154 18.1627 5.45917C18.3098 5.30679 18.5093 5.22119 18.7174 5.22119H21.8553C22.0634 5.22119 22.2629 5.30679 22.41 5.45917C22.5572 5.61154 22.6398 5.8182 22.6398 6.03369V7.65869C22.6398 7.87418 22.5572 8.08084 22.41 8.23322C22.2629 8.38559 22.0634 8.47119 21.8553 8.47119H18.7174C18.5093 8.47119 18.3098 8.38559 18.1627 8.23322C18.0156 8.08084 17.9329 7.87418 17.9329 7.65869V6.03369Z" fill="#1B2559"/>
<path d="M3.81225 0.346191C2.98002 0.346191 2.18187 0.688601 1.5934 1.29809C1.00492 1.90759 0.674316 2.73424 0.674316 3.59619L0.674316 16.5962C0.674316 17.4581 1.00492 18.2848 1.5934 18.8943C2.18187 19.5038 2.98002 19.8462 3.81225 19.8462H22.6398C23.4721 19.8462 24.2702 19.5038 24.8587 18.8943C25.4472 18.2848 25.7778 17.4581 25.7778 16.5962V3.59619C25.7778 2.73424 25.4472 1.90759 24.8587 1.29809C24.2702 0.688601 23.4721 0.346191 22.6398 0.346191H3.81225ZM24.2088 3.59619V11.7212H2.24328V3.59619C2.24328 3.16521 2.40858 2.75189 2.70282 2.44714C2.99706 2.1424 3.39613 1.97119 3.81225 1.97119H22.6398C23.056 1.97119 23.455 2.1424 23.7493 2.44714C24.0435 2.75189 24.2088 3.16521 24.2088 3.59619ZM22.6398 18.2212H3.81225C3.39613 18.2212 2.99706 18.05 2.70282 17.7452C2.40858 17.4405 2.24328 17.0272 2.24328 16.5962V14.9712H24.2088V16.5962C24.2088 17.0272 24.0435 17.4405 23.7493 17.7452C23.455 18.05 23.056 18.2212 22.6398 18.2212Z" fill="#1B2559"/>
</svg>
