<svg width="22" height="22" viewBox="0 0 22 22" fill="none" xmlns="http://www.w3.org/2000/svg">
<path d="M14.8779 21.3895H12.5446V19.0562H14.8779V21.3895ZM12.5446 13.2229H10.2113V19.0562H12.5446V13.2229ZM21.8779 10.8895H19.5446V15.5562H21.8779V10.8895ZM19.5446 8.55619H17.2113V10.8895H19.5446V8.55619ZM5.5446 10.8895H3.21126V13.2229H5.5446V10.8895ZM3.21126 8.55619H0.87793V10.8895H3.21126V8.55619ZM11.3779 2.72286H13.7113V0.389526H11.3779V2.72286ZM2.62793 2.13953V5.63953H6.12793V2.13953H2.62793ZM7.87793 7.38953H0.87793V0.389526H7.87793V7.38953ZM2.62793 16.1395V19.6395H6.12793V16.1395H2.62793ZM7.87793 21.3895H0.87793V14.3895H7.87793V21.3895ZM16.6279 2.13953V5.63953H20.1279V2.13953H16.6279ZM21.8779 7.38953H14.8779V0.389526H21.8779V7.38953ZM19.5446 19.0562V15.5562H14.8779V17.8895H17.2113V21.3895H21.8779V19.0562H19.5446ZM17.2113 10.8895H12.5446V13.2229H17.2113V10.8895ZM12.5446 8.55619H5.5446V10.8895H7.87793V13.2229H10.2113V10.8895H12.5446V8.55619ZM13.7113 7.38953V5.05619H11.3779V2.72286H9.0446V7.38953H13.7113ZM5.25293 3.01453H3.50293V4.76453H5.25293V3.01453ZM5.25293 17.0145H3.50293V18.7645H5.25293V17.0145ZM19.2529 3.01453H17.5029V4.76453H19.2529V3.01453Z" fill="black"/>
</svg>
