<svg width="20" height="26" viewBox="0 0 20 26" fill="none" xmlns="http://www.w3.org/2000/svg">
<path d="M6.1897 4.45349H3.6897C3.02666 4.45349 2.39077 4.71688 1.92193 5.18572C1.45309 5.65457 1.1897 6.29045 1.1897 6.95349V21.9535C1.1897 22.6165 1.45309 23.2524 1.92193 23.7213C2.39077 24.1901 3.02666 24.4535 3.6897 24.4535H16.1897C16.8527 24.4535 17.4886 24.1901 17.9575 23.7213C18.4263 23.2524 18.6897 22.6165 18.6897 21.9535V6.95349C18.6897 6.29045 18.4263 5.65457 17.9575 5.18572C17.4886 4.71688 16.8527 4.45349 16.1897 4.45349H13.6897" stroke="#1B2559" stroke-width="2" stroke-linecap="round" stroke-linejoin="round"/>
<path d="M11.1897 1.95349H8.6897C7.30899 1.95349 6.1897 3.07278 6.1897 4.45349C6.1897 5.8342 7.30899 6.95349 8.6897 6.95349H11.1897C12.5704 6.95349 13.6897 5.8342 13.6897 4.45349C13.6897 3.07278 12.5704 1.95349 11.1897 1.95349Z" stroke="#1B2559" stroke-width="2" stroke-linecap="round" stroke-linejoin="round"/>
<path d="M9.9397 10.7035V11.9535M12.4397 11.9535H9.3147C8.81742 11.9535 8.3405 12.151 7.98887 12.5027C7.63724 12.8543 7.4397 13.3312 7.4397 13.8285C7.4397 14.3258 7.63724 14.8027 7.98887 15.1543C8.3405 15.5059 8.81742 15.7035 9.3147 15.7035H10.5647C11.062 15.7035 11.5389 15.901 11.8905 16.2527C12.2422 16.6043 12.4397 17.0812 12.4397 17.5785C12.4397 18.0758 12.2422 18.5527 11.8905 18.9043C11.5389 19.2559 11.062 19.4535 10.5647 19.4535H7.4397L12.4397 11.9535ZM9.9397 19.4535V20.7035V19.4535Z" stroke="#1B2559" stroke-width="2" stroke-linecap="round" stroke-linejoin="round"/>
</svg>
