<svg width="27" height="26" viewBox="0 0 27 26" fill="none" xmlns="http://www.w3.org/2000/svg">
<g clip-path="url(#clip0_328_2902)">
<path d="M23.1279 5.27966C23.5589 5.27966 23.9722 5.44428 24.277 5.73731C24.5817 6.03033 24.7529 6.42776 24.7529 6.84216V19.3422C24.7529 19.7566 24.5817 20.154 24.277 20.447C23.9722 20.74 23.5589 20.9047 23.1279 20.9047H3.62793C3.19695 20.9047 2.78363 20.74 2.47888 20.447C2.17413 20.154 2.00293 19.7566 2.00293 19.3422V6.84216C2.00293 6.42776 2.17413 6.03033 2.47888 5.73731C2.78363 5.44428 3.19695 5.27966 3.62793 5.27966H23.1279ZM3.62793 3.71716C2.76598 3.71716 1.93933 4.0464 1.32983 4.63245C0.720339 5.21851 0.37793 6.01336 0.37793 6.84216L0.37793 19.3422C0.37793 20.171 0.720339 20.9658 1.32983 21.5519C1.93933 22.1379 2.76598 22.4672 3.62793 22.4672H23.1279C23.9899 22.4672 24.8165 22.1379 25.426 21.5519C26.0355 20.9658 26.3779 20.171 26.3779 19.3422V6.84216C26.3779 6.01336 26.0355 5.21851 25.426 4.63245C24.8165 4.0464 23.9899 3.71716 23.1279 3.71716H3.62793Z" fill="#1B2559"/>
<path d="M3.62793 9.18591C3.62793 8.97871 3.71353 8.78 3.86591 8.63349C4.01828 8.48697 4.22494 8.40466 4.44043 8.40466H7.69043C7.90592 8.40466 8.11258 8.48697 8.26495 8.63349C8.41733 8.78 8.50293 8.97871 8.50293 9.18591V10.7484C8.50293 10.9556 8.41733 11.1543 8.26495 11.3008C8.11258 11.4474 7.90592 11.5297 7.69043 11.5297H4.44043C4.22494 11.5297 4.01828 11.4474 3.86591 11.3008C3.71353 11.1543 3.62793 10.9556 3.62793 10.7484V9.18591ZM3.62793 13.8734C3.62793 13.6662 3.71353 13.4675 3.86591 13.321C4.01828 13.1745 4.22494 13.0922 4.44043 13.0922H12.5654C12.7809 13.0922 12.9876 13.1745 13.14 13.321C13.2923 13.4675 13.3779 13.6662 13.3779 13.8734C13.3779 14.0806 13.2923 14.2793 13.14 14.4258C12.9876 14.5724 12.7809 14.6547 12.5654 14.6547H4.44043C4.22494 14.6547 4.01828 14.5724 3.86591 14.4258C3.71353 14.2793 3.62793 14.0806 3.62793 13.8734ZM3.62793 16.9984C3.62793 16.7912 3.71353 16.5925 3.86591 16.446C4.01828 16.2995 4.22494 16.2172 4.44043 16.2172H6.06543C6.28092 16.2172 6.48758 16.2995 6.63995 16.446C6.79233 16.5925 6.87793 16.7912 6.87793 16.9984C6.87793 17.2056 6.79233 17.4043 6.63995 17.5508C6.48758 17.6974 6.28092 17.7797 6.06543 17.7797H4.44043C4.22494 17.7797 4.01828 17.6974 3.86591 17.5508C3.71353 17.4043 3.62793 17.2056 3.62793 16.9984ZM8.50293 16.9984C8.50293 16.7912 8.58853 16.5925 8.74091 16.446C8.89328 16.2995 9.09994 16.2172 9.31543 16.2172H10.9404C11.1559 16.2172 11.3626 16.2995 11.515 16.446C11.6673 16.5925 11.7529 16.7912 11.7529 16.9984C11.7529 17.2056 11.6673 17.4043 11.515 17.5508C11.3626 17.6974 11.1559 17.7797 10.9404 17.7797H9.31543C9.09994 17.7797 8.89328 17.6974 8.74091 17.5508C8.58853 17.4043 8.50293 17.2056 8.50293 16.9984ZM13.3779 16.9984C13.3779 16.7912 13.4635 16.5925 13.6159 16.446C13.7683 16.2995 13.9749 16.2172 14.1904 16.2172H15.8154C16.0309 16.2172 16.2376 16.2995 16.39 16.446C16.5423 16.5925 16.6279 16.7912 16.6279 16.9984C16.6279 17.2056 16.5423 17.4043 16.39 17.5508C16.2376 17.6974 16.0309 17.7797 15.8154 17.7797H14.1904C13.9749 17.7797 13.7683 17.6974 13.6159 17.5508C13.4635 17.4043 13.3779 17.2056 13.3779 16.9984ZM18.2529 16.9984C18.2529 16.7912 18.3385 16.5925 18.4909 16.446C18.6433 16.2995 18.8499 16.2172 19.0654 16.2172H20.6904C20.9059 16.2172 21.1126 16.2995 21.265 16.446C21.4173 16.5925 21.5029 16.7912 21.5029 16.9984C21.5029 17.2056 21.4173 17.4043 21.265 17.5508C21.1126 17.6974 20.9059 17.7797 20.6904 17.7797H19.0654C18.8499 17.7797 18.6433 17.6974 18.4909 17.5508C18.3385 17.4043 18.2529 17.2056 18.2529 16.9984Z" fill="#1B2559"/>
</g>
<defs>
<clipPath id="clip0_328_2902">
<rect width="26" height="25" fill="white" transform="translate(0.37793 0.592163)"/>
</clipPath>
</defs>
</svg>
