<svg width="28" height="27" viewBox="0 0 28 27" fill="none" xmlns="http://www.w3.org/2000/svg">
<g clip-path="url(#clip0_186_28933)">
<path d="M16.7374 19.0744C16.6387 19.0739 16.5408 19.0921 16.4495 19.1281C16.3581 19.164 16.275 19.217 16.2049 19.2839L14.2774 21.1472V12.2928C14.2774 12.1012 14.1984 11.9175 14.0577 11.7821C13.9171 11.6466 13.7263 11.5706 13.5274 11.5706C13.3285 11.5706 13.1377 11.6466 12.9971 11.7821C12.8564 11.9175 12.7774 12.1012 12.7774 12.2928V21.1472L10.8499 19.2911C10.7097 19.1542 10.5187 19.0765 10.3189 19.0751C10.1192 19.0737 9.92711 19.1489 9.78488 19.2839C9.64266 19.4189 9.56197 19.6028 9.56057 19.7952C9.55916 19.9875 9.63715 20.1725 9.77738 20.3094L13.5274 23.9206L17.2774 20.3094C17.3832 20.2084 17.4553 20.0794 17.4846 19.9387C17.5139 19.7981 17.499 19.6522 17.4419 19.5197C17.3848 19.3872 17.288 19.2741 17.1638 19.1948C17.0397 19.1155 16.8939 19.0736 16.7449 19.0744H16.7374Z" fill="white"/>
<path d="M14.9299 3.63342C15.6121 3.63376 16.2902 3.73609 16.9399 3.93675C16.9988 3.45559 17.1249 2.98429 17.3149 2.53564C16.5423 2.306 15.7384 2.18915 14.9299 2.18897C13.4165 2.17708 11.9318 2.58657 10.6545 3.36816C9.3771 4.14976 8.3615 5.27015 7.72988 6.59453C5.93805 6.80844 4.29396 7.65957 3.12034 8.98083C1.94672 10.3021 1.32834 11.9981 1.38658 13.7358C1.44483 15.4736 2.17549 17.1277 3.43514 18.3733C4.69479 19.6189 6.39245 20.3662 8.19488 20.4684C8.0233 20.0011 8.0233 19.4913 8.19488 19.024C6.74915 18.9135 5.40051 18.2799 4.42025 17.2507C3.43999 16.2215 2.90086 14.873 2.91132 13.4765C2.92177 12.0799 3.48103 10.739 4.4766 9.72353C5.47216 8.70802 6.83015 8.09324 8.27738 8.00286H8.77988L8.95238 7.54786C9.41378 6.38526 10.2341 5.38677 11.3029 4.68687C12.3716 3.98698 13.6375 3.61932 14.9299 3.63342Z" fill="white"/>
<path d="M23.2182 9.95267C22.5599 10.0372 21.891 10.0029 21.2457 9.85156V10.0177L21.1857 10.5377L21.6732 10.7543C22.6036 11.1668 23.36 11.8726 23.8174 12.7551C24.2749 13.6375 24.406 14.6439 24.1892 15.6078C23.9724 16.5718 23.4206 17.4356 22.6249 18.0567C21.8293 18.6778 20.8374 19.019 19.8132 19.0238H18.8457C19.0173 19.4911 19.0173 20.0009 18.8457 20.4682H19.8057C21.0903 20.4734 22.3427 20.0815 23.3787 19.3501C24.4146 18.6186 25.1795 17.5863 25.5607 16.405C25.9419 15.2238 25.9193 13.9558 25.4963 12.7878C25.0733 11.6198 24.2721 10.6134 23.2107 9.91656L23.2182 9.95267Z" fill="white"/>
<path d="M22.5273 8.19048C24.5984 8.19048 26.2773 6.57373 26.2773 4.57937C26.2773 2.58501 24.5984 0.968262 22.5273 0.968262C20.4563 0.968262 18.7773 2.58501 18.7773 4.57937C18.7773 6.57373 20.4563 8.19048 22.5273 8.19048Z" fill="white"/>
</g>
<defs>
<clipPath id="clip0_186_28933">
<rect width="27" height="26" fill="white" transform="translate(0.0273438 0.246094)"/>
</clipPath>
</defs>
</svg>
