<svg width="22" height="16" viewBox="0 0 22 16" fill="none" xmlns="http://www.w3.org/2000/svg">
<path d="M0.842529 2.92131C0.842529 2.24093 1.11281 1.58843 1.5939 1.10733C2.075 0.626234 2.7275 0.355957 3.40788 0.355957H18.8C19.4803 0.355957 20.1328 0.626234 20.6139 1.10733C21.095 1.58843 21.3653 2.24093 21.3653 2.92131V13.1827C21.3653 13.8631 21.095 14.5156 20.6139 14.9967C20.1328 15.4778 19.4803 15.748 18.8 15.748H3.40788C2.7275 15.748 2.075 15.4778 1.5939 14.9967C1.11281 14.5156 0.842529 13.8631 0.842529 13.1827V2.92131ZM3.40788 1.63863C3.06769 1.63863 2.74144 1.77377 2.50089 2.01432C2.26034 2.25487 2.1252 2.58112 2.1252 2.92131V4.20398H20.0826V2.92131C20.0826 2.58112 19.9475 2.25487 19.707 2.01432C19.4664 1.77377 19.1402 1.63863 18.8 1.63863H3.40788ZM20.0826 6.76933H2.1252V13.1827C2.1252 13.5229 2.26034 13.8491 2.50089 14.0897C2.74144 14.3302 3.06769 14.4654 3.40788 14.4654H18.8C19.1402 14.4654 19.4664 14.3302 19.707 14.0897C19.9475 13.8491 20.0826 13.5229 20.0826 13.1827V6.76933Z" fill="#1B2559"/>
<path d="M3.40796 10.6174C3.40796 10.2772 3.5431 9.95095 3.78365 9.7104C4.02419 9.46986 4.35045 9.33472 4.69063 9.33472H5.97331C6.31349 9.33472 6.63975 9.46986 6.88029 9.7104C7.12084 9.95095 7.25598 10.2772 7.25598 10.6174V11.9001C7.25598 12.2403 7.12084 12.5665 6.88029 12.8071C6.63975 13.0476 6.31349 13.1827 5.97331 13.1827H4.69063C4.35045 13.1827 4.02419 13.0476 3.78365 12.8071C3.5431 12.5665 3.40796 12.2403 3.40796 11.9001V10.6174Z" fill="#1B2559"/>
</svg>
