<svg width="19" height="19" viewBox="0 0 19 19" fill="none" xmlns="http://www.w3.org/2000/svg">
<path d="M16.5942 5.9668H1.92757V4.13346H16.5942V5.9668ZM14.7609 0.466797H3.7609V2.30013H14.7609V0.466797ZM18.4276 9.63346V16.9668C18.4276 17.453 18.2344 17.9193 17.8906 18.2632C17.5468 18.607 17.0805 18.8001 16.5942 18.8001H1.92757C1.44179 18.7987 0.976315 18.6051 0.632812 18.2616C0.289309 17.9181 0.0956891 17.4526 0.0942383 16.9668V9.63346C0.0956891 9.14768 0.289309 8.68221 0.632812 8.3387C0.976315 7.9952 1.44179 7.80158 1.92757 7.80013H16.5942C17.08 7.80158 17.5455 7.9952 17.889 8.3387C18.2325 8.68221 18.4261 9.14768 18.4276 9.63346ZM11.0273 14.2553L13.1567 12.4348L10.3527 12.2001L9.2609 9.63346L8.16915 12.2001L5.36507 12.4348L7.49449 14.2553L6.85282 16.9668L9.2609 15.5258L11.669 16.9668L11.0273 14.2553Z" fill="black"/>
</svg>
