<svg width="22" height="22" viewBox="0 0 22 22" fill="none" xmlns="http://www.w3.org/2000/svg">
<path d="M18.742 21.4598H13.5995C12.8897 21.4598 12.2837 21.2087 11.7815 20.7065C11.2793 20.2043 11.0282 19.5983 11.0282 18.8885V13.746C11.0282 13.0362 11.2793 12.4303 11.7815 11.9281C12.2837 11.4259 12.8897 11.1748 13.5995 11.1748H18.742C19.4518 11.1748 20.0578 11.4259 20.56 11.9281C21.0622 12.4303 21.3133 13.0362 21.3133 13.746V18.8885C21.3133 19.5983 21.0622 20.2043 20.56 20.7065C20.0578 21.2087 19.4518 21.4598 18.742 21.4598ZM18.742 9.88913C18.3804 9.88913 18.0757 9.76525 17.828 9.5175C17.5802 9.26975 17.4564 8.96843 17.4564 8.61354C17.4564 8.25865 17.5836 7.95398 17.838 7.69954C18.0925 7.44509 18.3972 7.31786 18.752 7.31786C19.1069 7.31786 19.4083 7.44509 19.656 7.69954C19.9038 7.95398 20.0276 8.25865 20.0276 8.61354C20.0276 8.96843 19.9038 9.26975 19.656 9.5175C19.4083 9.76525 19.1036 9.88913 18.742 9.88913ZM18.732 4.7466C18.3771 4.7466 18.0757 4.62273 17.828 4.37497C17.5802 4.12722 17.4564 3.8259 17.4564 3.47102C17.4564 3.11613 17.5836 2.81146 17.838 2.55701C18.0925 2.30256 18.3972 2.17534 18.752 2.17534C19.1069 2.17534 19.4083 2.30256 19.656 2.55701C19.9038 2.81146 20.0276 3.11613 20.0276 3.47102C20.0276 3.8259 19.9004 4.12722 19.646 4.37497C19.3915 4.62273 19.0868 4.7466 18.732 4.7466ZM13.6095 4.7466C13.2546 4.7466 12.95 4.62273 12.6955 4.37497C12.4411 4.12722 12.3138 3.8259 12.3138 3.47102C12.3138 3.11613 12.4411 2.81146 12.6955 2.55701C12.95 2.30256 13.2546 2.17534 13.6095 2.17534C13.9644 2.17534 14.2657 2.30256 14.5135 2.55701C14.7612 2.81146 14.8851 3.11613 14.8851 3.47102C14.8851 3.8259 14.7612 4.12722 14.5135 4.37497C14.2657 4.62273 13.9644 4.7466 13.6095 4.7466ZM5.88569 11.1748C4.46614 11.1748 3.25416 10.6726 2.24976 9.66816C1.24536 8.66376 0.743164 7.45178 0.743164 6.03223C0.743164 4.61268 1.24536 3.40071 2.24976 2.39631C3.25416 1.39191 4.46614 0.889709 5.88569 0.889709C7.30524 0.889709 8.51721 1.39191 9.52161 2.39631C10.526 3.40071 11.0282 4.61268 11.0282 6.03223C11.0282 7.45178 10.526 8.66376 9.52161 9.66816C8.51721 10.6726 7.30524 11.1748 5.88569 11.1748ZM5.88569 3.46097C5.17591 3.46097 4.56993 3.71207 4.06773 4.21427C3.56553 4.71647 3.31443 5.32246 3.31443 6.03223C3.31443 6.74201 3.56553 7.348 4.06773 7.8502C4.56993 8.3524 5.17591 8.6035 5.88569 8.6035C6.59546 8.6035 7.20145 8.3524 7.70365 7.8502C8.20585 7.348 8.45695 6.74201 8.45695 6.03223C8.45695 5.32246 8.20585 4.71647 7.70365 4.21427C7.20145 3.71207 6.59546 3.46097 5.88569 3.46097ZM3.31443 12.4604C3.67601 12.4604 3.98068 12.5876 4.22843 12.8421C4.47618 13.0965 4.60006 13.4012 4.60006 13.7561C4.60006 14.111 4.47618 14.4123 4.22843 14.66C3.98068 14.9078 3.67601 15.0317 3.31443 15.0317C2.95284 15.0317 2.64817 14.9078 2.40042 14.66C2.15267 14.4123 2.0288 14.1076 2.0288 13.746C2.0288 13.3844 2.15267 13.0798 2.40042 12.832C2.64817 12.5843 2.95284 12.4604 3.31443 12.4604ZM3.31443 17.6029C3.67601 17.6029 3.98068 17.7301 4.22843 17.9846C4.47618 18.239 4.60006 18.5437 4.60006 18.8986C4.60006 19.2535 4.47618 19.5548 4.22843 19.8025C3.98068 20.0503 3.67601 20.1742 3.31443 20.1742C2.95284 20.1742 2.64817 20.0503 2.40042 19.8025C2.15267 19.5548 2.0288 19.2535 2.0288 18.8986C2.0288 18.5437 2.15267 18.239 2.40042 17.9846C2.64817 17.7301 2.95284 17.6029 3.31443 17.6029ZM8.45695 17.6029C8.81853 17.6029 9.1232 17.7301 9.37095 17.9846C9.61871 18.239 9.74258 18.5437 9.74258 18.8986C9.74258 19.2535 9.61871 19.5548 9.37095 19.8025C9.1232 20.0503 8.82188 20.1742 8.46699 20.1742C8.11211 20.1742 7.80744 20.0503 7.55299 19.8025C7.29854 19.5548 7.17132 19.2535 7.17132 18.8986C7.17132 18.5437 7.2952 18.239 7.54295 17.9846C7.7907 17.7301 8.09537 17.6029 8.45695 17.6029Z" fill="white"/>
</svg>
