<svg width="28" height="27" viewBox="0 0 28 27" fill="none" xmlns="http://www.w3.org/2000/svg">
<path d="M17.0972 19.2693C16.9985 19.2687 16.9007 19.2869 16.8093 19.3229C16.7179 19.3588 16.6348 19.4118 16.5647 19.4787L14.6372 21.342V12.4876C14.6372 12.2961 14.5582 12.1124 14.4176 11.9769C14.2769 11.8415 14.0862 11.7654 13.8872 11.7654C13.6883 11.7654 13.4976 11.8415 13.3569 11.9769C13.2163 12.1124 13.1372 12.2961 13.1372 12.4876V21.342L11.2097 19.4859C11.0695 19.349 10.8785 19.2713 10.6788 19.2699C10.4791 19.2686 10.287 19.3437 10.1447 19.4787C10.0025 19.6138 9.92184 19.7977 9.92043 19.99C9.91902 20.1823 9.99701 20.3673 10.1372 20.5043L13.8872 24.1154L17.6372 20.5043C17.743 20.4033 17.8152 20.2742 17.8445 20.1335C17.8738 19.9929 17.8589 19.847 17.8018 19.7145C17.7447 19.582 17.6478 19.4689 17.5237 19.3896C17.3996 19.3103 17.2537 19.2684 17.1047 19.2693H17.0972Z" fill="white"/>
<path d="M15.2897 3.82812C15.972 3.82846 16.6501 3.93079 17.2997 4.13145C17.3587 3.65029 17.4848 3.17899 17.6747 2.73034C16.9022 2.5007 16.0983 2.38385 15.2897 2.38367C13.7764 2.37178 12.2917 2.78127 11.0143 3.56287C9.73696 4.34446 8.72136 5.46486 8.08974 6.78923C6.29791 7.00314 4.65382 7.85427 3.4802 9.17554C2.30658 10.4968 1.6882 12.1928 1.74645 13.9305C1.80469 15.6683 2.53535 17.3224 3.795 18.568C5.05465 19.8136 6.75232 20.5609 8.55474 20.6631C8.38317 20.1958 8.38317 19.686 8.55474 19.2187C7.10902 19.1082 5.76037 18.4746 4.78011 17.4454C3.79986 16.4162 3.26072 15.0677 3.27118 13.6712C3.28163 12.2746 3.8409 10.9338 4.83646 9.91824C5.83202 8.90272 7.19001 8.28794 8.63724 8.19756H9.13974L9.31224 7.74256C9.77365 6.57997 10.594 5.58147 11.6627 4.88158C12.7315 4.18168 13.9973 3.81402 15.2897 3.82812Z" fill="white"/>
<path d="M23.5771 10.1476C22.9188 10.2321 22.2499 10.1978 21.6046 10.0464V10.2126L21.5446 10.7326L22.0321 10.9492C22.9624 11.3617 23.7188 12.0675 24.1763 12.95C24.6338 13.8324 24.7649 14.8387 24.5481 15.8027C24.3313 16.7666 23.7795 17.6305 22.9838 18.2516C22.1882 18.8727 21.1963 19.2138 20.1721 19.2187H19.2046C19.3762 19.686 19.3762 20.1958 19.2046 20.6631H20.1646C21.4492 20.6683 22.7016 20.2764 23.7376 19.545C24.7735 18.8135 25.5384 17.7812 25.9196 16.5999C26.3008 15.4186 26.2782 14.1507 25.8552 12.9827C25.4321 11.8147 24.631 10.8082 23.5696 10.1114L23.5771 10.1476Z" fill="white"/>
<path d="M22.8872 8.38537C24.9583 8.38537 26.6372 6.76862 26.6372 4.77426C26.6372 2.7799 24.9583 1.16315 22.8872 1.16315C20.8161 1.16315 19.1372 2.7799 19.1372 4.77426C19.1372 6.76862 20.8161 8.38537 22.8872 8.38537Z" fill="white"/>
</svg>
