<svg width="27" height="27" viewBox="0 0 27 27" fill="none" xmlns="http://www.w3.org/2000/svg">
<path d="M24.2512 11.2795H17.7512C17.6395 11.2795 17.548 11.3709 17.548 11.4827V12.7014C17.548 12.8131 17.6395 12.9045 17.7512 12.9045H24.2512C24.3629 12.9045 24.4543 12.8131 24.4543 12.7014V11.4827C24.4543 11.3709 24.3629 11.2795 24.2512 11.2795ZM20.8488 14.7327H17.7512C17.6395 14.7327 17.548 14.8241 17.548 14.9358V16.1545C17.548 16.2663 17.6395 16.3577 17.7512 16.3577H20.8488C20.9605 16.3577 21.052 16.2663 21.052 16.1545V14.9358C21.052 14.8241 20.9605 14.7327 20.8488 14.7327ZM12.376 9.00708H11.2766C11.1191 9.00708 10.9922 9.13403 10.9922 9.29146V15.5883C10.9922 15.6797 11.0354 15.7635 11.109 15.8168L14.8896 18.5743C15.0166 18.6657 15.1943 18.6403 15.2857 18.5133L15.9383 17.6221V17.6196C16.0297 17.4926 16.0018 17.3149 15.8748 17.2235L12.6578 14.8977V9.29146C12.6604 9.13403 12.5309 9.00708 12.376 9.00708Z" fill="#1B2559"/>
<path d="M20.6922 17.9293H19.2246C19.0824 17.9293 18.9479 18.0029 18.8717 18.1248C18.5492 18.6351 18.1734 19.1074 17.7418 19.539C16.9979 20.283 16.132 20.867 15.1697 21.2732C14.1719 21.6947 13.1131 21.908 12.0213 21.908C10.927 21.908 9.86818 21.6947 8.87286 21.2732C7.91056 20.867 7.04474 20.283 6.3008 19.539C5.55685 18.7951 4.97287 17.9293 4.56662 16.967C4.14513 15.9717 3.93185 14.9129 3.93185 13.8185C3.93185 12.7242 4.14513 11.668 4.56662 10.6701C4.97287 9.7078 5.55685 8.84198 6.3008 8.09804C7.04474 7.35409 7.91056 6.77011 8.87286 6.36386C9.86818 5.94237 10.9295 5.72909 12.0213 5.72909C13.1156 5.72909 14.1744 5.94237 15.1697 6.36386C16.132 6.77011 16.9979 7.35409 17.7418 8.09804C18.1734 8.52968 18.5492 9.00194 18.8717 9.5123C18.9479 9.63417 19.0824 9.7078 19.2246 9.7078H20.6922C20.8674 9.7078 20.9791 9.52499 20.9004 9.37011C19.2449 6.07695 15.8883 3.93652 12.1406 3.89335C6.65373 3.8248 2.09611 8.3164 2.08595 13.7982C2.0758 19.2902 6.52677 23.7463 12.0188 23.7463C15.8147 23.7463 19.2272 21.5982 20.9004 18.267C20.9791 18.1121 20.8649 17.9293 20.6922 17.9293Z" fill="#1B2559"/>
</svg>
