<svg width="17" height="22" viewBox="0 0 17 22" fill="none" xmlns="http://www.w3.org/2000/svg">
<path d="M5.93693 9.31378C5.88254 9.24523 5.81499 9.18825 5.73826 9.14619C5.66152 9.10414 5.57715 9.07785 5.4901 9.06888C5.40306 9.05992 5.3151 9.06845 5.2314 9.09398C5.1477 9.1195 5.06995 9.16152 5.00273 9.21753C4.93551 9.27355 4.88017 9.34245 4.83996 9.42018C4.79976 9.4979 4.77551 9.58288 4.76863 9.67011C4.76175 9.75735 4.77239 9.84508 4.79992 9.92814C4.82745 10.0112 4.87132 10.0879 4.92894 10.1538L7.85975 13.6713L4.92894 17.1888C4.82245 17.323 4.77267 17.4935 4.79022 17.6639C4.80778 17.8344 4.89128 17.9911 5.0229 18.1008C5.15451 18.2105 5.32379 18.2644 5.49458 18.2509C5.66538 18.2374 5.82413 18.1577 5.93693 18.0288L8.71418 14.6963L11.4914 18.0301C11.603 18.1638 11.7631 18.2476 11.9365 18.2633C12.0224 18.271 12.1089 18.2618 12.1912 18.236C12.2735 18.2103 12.3499 18.1687 12.4161 18.1134C12.4823 18.0582 12.5369 17.9905 12.5769 17.9141C12.617 17.8377 12.6415 17.7542 12.6493 17.6684C12.657 17.5825 12.6478 17.496 12.622 17.4137C12.5963 17.3314 12.5547 17.255 12.4994 17.1888L9.56862 13.6713L12.4994 10.1538C12.6059 10.0196 12.6557 9.84904 12.6381 9.67863C12.6206 9.50821 12.5371 9.35141 12.4055 9.24173C12.2739 9.13206 12.1046 9.0782 11.9338 9.09166C11.763 9.10512 11.6042 9.18484 11.4914 9.31378L8.71418 12.6462L5.93693 9.31247V9.31378Z" fill="#F0142F"/>
<path d="M16.5889 18.9209V6.45215L10.6826 0.545898H3.46387C2.76767 0.545898 2.09999 0.82246 1.60771 1.31474C1.11543 1.80703 0.838867 2.47471 0.838867 3.1709V18.9209C0.838867 19.6171 1.11543 20.2848 1.60771 20.7771C2.09999 21.2693 2.76767 21.5459 3.46387 21.5459H13.9639C14.6601 21.5459 15.3277 21.2693 15.82 20.7771C16.3123 20.2848 16.5889 19.6171 16.5889 18.9209ZM10.6826 4.4834C10.6826 5.00554 10.89 5.5063 11.2593 5.87551C11.6285 6.24473 12.1292 6.45215 12.6514 6.45215H15.2764V18.9209C15.2764 19.269 15.1381 19.6028 14.8919 19.849C14.6458 20.0951 14.312 20.2334 13.9639 20.2334H3.46387C3.11577 20.2334 2.78193 20.0951 2.53579 19.849C2.28965 19.6028 2.15137 19.269 2.15137 18.9209V3.1709C2.15137 2.8228 2.28965 2.48896 2.53579 2.24282C2.78193 1.99668 3.11577 1.8584 3.46387 1.8584H10.6826V4.4834Z" fill="#F0142F"/>
</svg>
