<svg width="21" height="20" viewBox="0 0 21 20" fill="none" xmlns="http://www.w3.org/2000/svg">
<path d="M7.75671 19.069H13.8238M7.75671 19.069H5.73435C4.66162 19.069 3.63283 18.6428 2.87429 17.8843C2.11576 17.1258 1.68962 16.097 1.68962 15.0243V8.66191C1.68961 7.96644 1.86892 7.28271 2.21025 6.67675C2.55157 6.0708 3.04338 5.56309 3.63817 5.20266L8.69407 2.13878C9.32617 1.75574 10.0511 1.55322 10.7903 1.55322C11.5294 1.55322 12.2543 1.75574 12.8864 2.13878L17.9423 5.20266C18.537 5.563 19.0287 6.07055 19.37 6.67631C19.7113 7.28207 19.8907 7.9656 19.8909 8.6609V15.0243C19.8909 16.097 19.4647 17.1258 18.7062 17.8843C17.9477 18.6428 16.9189 19.069 15.8462 19.069H13.8238H7.75671ZM7.75671 19.069V15.0243C7.75671 14.2197 8.07631 13.4481 8.64521 12.8792C9.21411 12.3103 9.98571 11.9907 10.7903 11.9907V11.9907C11.5948 11.9907 12.3664 12.3103 12.9353 12.8792C13.5042 13.4481 13.8238 14.2197 13.8238 15.0243V19.069H7.75671Z" stroke="#4B00D4" stroke-width="1.5" stroke-linecap="round" stroke-linejoin="round"/>
</svg>
