<svg width="26" height="28" viewBox="0 0 26 28" fill="none" xmlns="http://www.w3.org/2000/svg">
<path d="M0.892761 0.950195V25.3252H15.8928V23.4502H2.76776V2.8252H12.1428V8.4502H17.7678V10.3252H19.6428V7.1377L19.3615 6.85645L13.7365 1.23145L13.4553 0.950195H0.892761ZM14.0178 4.1377L16.4553 6.5752H14.0178V4.1377ZM4.64276 10.3252V12.2002H15.8928V10.3252H4.64276ZM20.5803 12.2002V14.0752C18.9865 14.3564 17.7678 15.6689 17.7678 17.3564C17.7678 19.2314 19.174 20.6377 21.049 20.6377H21.9865C22.7365 20.6377 23.3928 21.2939 23.3928 22.0439C23.3928 22.7939 22.7365 23.4502 21.9865 23.4502H18.7053V25.3252H20.5803V27.2002H22.4553V25.3252C24.049 25.0439 25.2678 23.7314 25.2678 22.0439C25.2678 20.1689 23.8615 18.7627 21.9865 18.7627H21.049C20.299 18.7627 19.6428 18.1064 19.6428 17.3564C19.6428 16.6064 20.299 15.9502 21.049 15.9502H24.3303V14.0752H22.4553V12.2002H20.5803ZM4.64276 15.0127V16.8877H11.2053V15.0127H4.64276ZM13.0803 15.0127V16.8877H15.8928V15.0127H13.0803ZM4.64276 18.7627V20.6377H11.2053V18.7627H4.64276ZM13.0803 18.7627V20.6377H15.8928V18.7627H13.0803Z" fill="black"/>
</svg>
