<svg width="25" height="25" viewBox="0 0 25 25" fill="none" xmlns="http://www.w3.org/2000/svg">
<path d="M21.1326 14.5V19.5C21.1326 20.0304 20.9219 20.5391 20.5468 20.9142C20.1717 21.2893 19.663 21.5 19.1326 21.5H5.13257C4.60214 21.5 4.09343 21.2893 3.71835 20.9142C3.34328 20.5391 3.13257 20.0304 3.13257 19.5V5.5C3.13257 4.96957 3.34328 4.46086 3.71835 4.08579C4.09343 3.71071 4.60214 3.5 5.13257 3.5H10.1326V5.5H5.13257V19.5H19.1326V14.5H21.1326Z" fill="white"/>
<path d="M21.1326 7.5H17.1326V3.5H15.1326V7.5H11.1326V9.5H15.1326V13.5H17.1326V9.5H21.1326V7.5Z" fill="white"/>
</svg>
