<svg width="13" height="18" viewBox="0 0 13 18" fill="none" xmlns="http://www.w3.org/2000/svg">
<path d="M1.38123 1.58474H1.23123V1.73474V15.7466V15.8966H1.38123H11.5717H11.7217V15.7466V5.55615V5.40615H11.5717H7.90024V1.73474V1.58474H7.75024H1.38123ZM9.13011 2.52034L8.87405 2.26427V2.6264V4.28235V4.43235H9.02405H10.68H11.0421L10.7861 4.17628L9.13011 2.52034ZM0.257422 16.8704V0.610938H8.57977L8.72691 0.758074L12.5483 4.57948L12.6955 4.72662V16.8704H0.257422ZM10.1479 7.95376H2.80503V6.97996H10.1479V7.95376ZM6.96334 11.1383H2.80503V10.1645H6.96334V11.1383ZM10.1479 11.1383H8.53715V10.1645H10.1479V11.1383ZM6.96334 13.6859H2.80503V12.7121H6.96334V13.6859ZM10.1479 13.6859H8.53715V12.7121H10.1479V13.6859Z" fill="#1B2559" stroke="#FAFAFA" stroke-width="0.3"/>
</svg>
