<svg width="23" height="23" viewBox="0 0 23 23" fill="none" xmlns="http://www.w3.org/2000/svg">
<path d="M11.8123 13.794C12.3236 13.794 12.8234 13.6424 13.2485 13.3584C13.6736 13.0743 14.0049 12.6706 14.2006 12.1983C14.3962 11.7259 14.4474 11.2062 14.3477 10.7047C14.2479 10.2033 14.0017 9.74267 13.6402 9.38115C13.2787 9.01963 12.8181 8.77344 12.3166 8.67369C11.8152 8.57395 11.2954 8.62514 10.8231 8.8208C10.3507 9.01645 9.94702 9.34777 9.66298 9.77288C9.37893 10.198 9.22733 10.6978 9.22733 11.209C9.22733 11.8946 9.49967 12.5521 9.98445 13.0369C10.4692 13.5217 11.1267 13.794 11.8123 13.794ZM11.8123 9.6018C12.1302 9.6018 12.4409 9.69606 12.7052 9.87267C12.9696 10.0493 13.1756 10.3003 13.2972 10.594C13.4189 10.8876 13.4507 11.2108 13.3887 11.5226C13.3266 11.8343 13.1736 12.1207 12.9488 12.3455C12.724 12.5703 12.4376 12.7233 12.1259 12.7854C11.8141 12.8474 11.4909 12.8156 11.1973 12.6939C10.9036 12.5723 10.6526 12.3663 10.476 12.1019C10.2994 11.8376 10.2051 11.5269 10.2051 11.209C10.2051 10.7828 10.3744 10.374 10.6758 10.0725C10.9773 9.77113 11.3861 9.6018 11.8123 9.6018Z" fill="#1B2559"/>
<path d="M14.2567 2.79449C14.2567 2.47033 14.128 2.15946 13.8988 1.93025C13.6696 1.70104 13.3587 1.57227 13.0345 1.57227H10.5901C10.2659 1.57227 9.95505 1.70104 9.72584 1.93025C9.49663 2.15946 9.36786 2.47033 9.36786 2.79449V7.07227H14.2567V2.79449ZM13.0345 5.85004H10.5901V2.79449H13.0345V5.85004Z" fill="#1B2559"/>
<path d="M16.7012 18.6827V17.2771C16.703 17.1142 16.6467 16.9561 16.5423 16.831C15.9493 16.1703 15.2181 15.6482 14.4006 15.3018C13.5832 14.9554 12.6995 14.7931 11.8123 14.8266C10.9237 14.7954 10.0391 14.9605 9.22161 15.3102C8.40407 15.6598 7.67364 16.1853 7.08231 16.8493C6.97842 16.9747 6.92215 17.1327 6.92342 17.2954V18.6827H7.9012V17.381C8.40262 16.854 9.01116 16.4406 9.68582 16.1686C10.3605 15.8967 11.0856 15.7724 11.8123 15.8043C12.5395 15.7732 13.2649 15.8984 13.9396 16.1714C14.6143 16.4445 15.2225 16.859 15.7234 17.3871V18.6827H16.7012Z" fill="#1B2559"/>
<path d="M17.9234 4.0166H15.479V5.23882H17.9234V19.9055H5.7012V5.23882H8.14564V4.0166H5.7012C5.37704 4.0166 5.06616 4.14537 4.83695 4.37458C4.60774 4.60379 4.47897 4.91467 4.47897 5.23882V19.9055C4.47897 20.2296 4.60774 20.5405 4.83695 20.7697C5.06616 20.9989 5.37704 21.1277 5.7012 21.1277H17.9234C18.2476 21.1277 18.5584 20.9989 18.7877 20.7697C19.0169 20.5405 19.1456 20.2296 19.1456 19.9055V5.23882C19.1456 4.91467 19.0169 4.60379 18.7877 4.37458C18.5584 4.14537 18.2476 4.0166 17.9234 4.0166Z" fill="#1B2559"/>
</svg>
