<svg width="25" height="24" viewBox="0 0 25 24" fill="none" xmlns="http://www.w3.org/2000/svg">
<path d="M8.29248 11.2055H16.1825V13.0805H8.29248V11.2055ZM8.29248 14.7455H16.1825V16.6205H8.29248V14.7455ZM8.29248 7.60547H16.1825V9.48047H8.29248V7.60547Z" fill="black"/>
<path d="M16.9475 1.96041L17.1496 2.046L17.3494 1.95518L19.9425 0.776502V23.2235L17.3494 22.0448L17.1537 21.9558L16.9545 22.0367L14.6009 22.992L12.4548 22.0427L12.2592 21.9562L12.0616 22.0379L9.75356 22.9915L7.59368 22.0423L7.39695 21.9558L7.19883 22.039L4.32251 23.2476V0.752426L7.19883 1.96096L7.4013 2.04604L7.60094 1.95449L9.75378 0.967195L12.0546 1.95914L12.2594 2.04748L12.462 1.95398L14.6012 0.966675L16.9475 1.96041ZM18.349 21.6217L19.0525 21.9352V21.165V2.88V2.10977L18.349 2.4233L17.1639 2.95142L14.8265 1.9971L14.6303 1.917L14.4363 2.00226L12.2759 2.95175L9.95247 1.99749L9.75459 1.91622L9.55917 2.00322L7.42913 2.95143L5.90167 2.32716L5.21251 2.04551V2.79V21.21V21.9545L5.90167 21.6728L7.42912 21.0486L9.55917 21.9968L9.75459 22.0838L9.95247 22.0025L12.2715 21.05L14.4291 22.0395L14.626 22.1298L14.8265 22.0479L17.1639 21.0936L18.349 21.6217Z" fill="black" stroke="black"/>
</svg>
