<svg width="30" height="23" viewBox="0 0 30 23" fill="none" xmlns="http://www.w3.org/2000/svg">
<path d="M27.3451 0.84375H2.45624C1.98475 0.84375 1.53256 1.03105 1.19917 1.36445C0.865768 1.69785 0.678467 2.15003 0.678467 2.62153V20.3993C0.678467 20.8708 0.865768 21.323 1.19917 21.6564C1.53256 21.9898 1.98475 22.1771 2.45624 22.1771H27.3451C27.8166 22.1771 28.2688 21.9898 28.6022 21.6564C28.9356 21.323 29.1229 20.8708 29.1229 20.3993V2.62153C29.1229 2.15003 28.9356 1.69785 28.6022 1.36445C28.2688 1.03105 27.8166 0.84375 27.3451 0.84375ZM25.9762 20.3993H3.9318L10.154 13.9637L8.87402 12.7282L2.45624 19.3682V3.97264L13.5051 14.9682C13.8382 15.2993 14.2888 15.4852 14.7585 15.4852C15.2281 15.4852 15.6787 15.2993 16.0118 14.9682L27.3451 3.69708V19.2526L20.8029 12.7104L19.5496 13.9637L25.9762 20.3993ZM3.62069 2.62153H25.9051L14.7585 13.706L3.62069 2.62153Z" fill="#8F9BBA"/>
</svg>
