<svg width="27" height="27" viewBox="0 0 27 27" fill="none" xmlns="http://www.w3.org/2000/svg">
<g clip-path="url(#clip0_186_26913)">
<path d="M0.826172 18.4109V20.8664C0.826172 21.3645 1.02401 21.8421 1.37616 22.1942C1.72831 22.5464 2.20593 22.7442 2.70395 22.7442H23.4606C23.9586 22.7442 24.4363 22.5464 24.7884 22.1942C25.1406 21.8421 25.3384 21.3645 25.3384 20.8664V18.4109H0.826172ZM23.9373 20.8664C23.9373 20.9814 23.8916 21.0916 23.8104 21.1729C23.7291 21.2541 23.6189 21.2998 23.504 21.2998H2.67506C2.56013 21.2998 2.44991 21.2541 2.36865 21.1729C2.28738 21.0916 2.24173 20.9814 2.24173 20.8664V19.5159H9.42784C9.51813 19.7289 9.66885 19.9109 9.86137 20.0392C10.0539 20.1676 10.2798 20.2367 10.5112 20.2381H15.6606C15.892 20.2367 16.1179 20.1676 16.3104 20.0392C16.5029 19.9109 16.6537 19.7289 16.744 19.5159H23.9373V20.8664Z" fill="#1B2559"/>
<path d="M16.354 4.68853C16.3548 4.44693 16.3717 4.20566 16.4046 3.96631H4.07625C3.78894 3.96631 3.51339 4.08045 3.31022 4.28361C3.10706 4.48677 2.99292 4.76232 2.99292 5.04964V16.9663H4.43736V5.41075H16.4046C16.3717 5.1714 16.3548 4.93013 16.354 4.68853Z" fill="#1B2559"/>
<path d="M21.7708 10.1053V16.9664H23.2152V9.90308C22.7451 10.0354 22.2592 10.1034 21.7708 10.1053Z" fill="#1B2559"/>
<path d="M16.8091 6.85522H5.88184V16.8797H7.03739V8.01078H17.4952C17.2193 7.65561 16.9888 7.26743 16.8091 6.85522Z" fill="#1B2559"/>
<path d="M21.7708 8.29961C23.7651 8.29961 25.3819 6.68287 25.3819 4.6885C25.3819 2.69414 23.7651 1.07739 21.7708 1.07739C19.7764 1.07739 18.1597 2.69414 18.1597 4.6885C18.1597 6.68287 19.7764 8.29961 21.7708 8.29961Z" fill="#1B2559"/>
</g>
<defs>
<clipPath id="clip0_186_26913">
<rect width="26" height="26" fill="white" transform="translate(0.104004 0.355225)"/>
</clipPath>
</defs>
</svg>
