<svg width="36" height="22" viewBox="0 0 36 22" fill="none" xmlns="http://www.w3.org/2000/svg">
<path d="M35.9658 3.89502V14.395C35.9658 16.32 34.3908 17.895 32.4658 17.895H30.7158V14.395H32.4658V3.89502H4.46582V14.395H14.9658V17.895H4.46582C2.54082 17.895 0.96582 16.32 0.96582 14.395V3.89502C0.96582 1.97002 2.54082 0.39502 4.46582 0.39502H32.4658C34.3908 0.39502 35.9658 1.97002 35.9658 3.89502ZM22.8408 21.395L24.7483 17.1775L28.9658 15.27L24.7483 13.3625L22.8408 9.14502L20.9333 13.3625L16.7158 15.27L20.9333 17.1775L22.8408 21.395ZM27.2158 12.645L28.3008 10.23L30.7158 9.14502L28.3008 8.06002L27.2158 5.64502L26.1308 8.06002L23.7158 9.14502L26.1308 10.23L27.2158 12.645ZM22.8408 21.395L24.7483 17.1775L28.9658 15.27L24.7483 13.3625L22.8408 9.14502L20.9333 13.3625L16.7158 15.27L20.9333 17.1775L22.8408 21.395ZM27.2158 12.645L28.3008 10.23L30.7158 9.14502L28.3008 8.06002L27.2158 5.64502L26.1308 8.06002L23.7158 9.14502L26.1308 10.23L27.2158 12.645Z" fill="#4B00D4"/>
</svg>
