<svg width="29" height="29" viewBox="0 0 29 29" fill="none" xmlns="http://www.w3.org/2000/svg">
<path d="M24.0884 10.9565L27.5524 12.9565L26.5524 14.6885L23.0884 12.6885L24.0884 10.9565ZM24.0884 6.95654H28.0884V8.95654H24.0884V6.95654ZM5.08838 12.6885L1.62438 14.6885L0.624379 12.9565L4.08838 10.9565L5.08838 12.6885ZM24.0884 28.9565H22.0884V23.9565C22.0868 22.6309 21.5595 21.3601 20.6222 20.4228C19.6848 19.4854 18.414 18.9581 17.0884 18.9565H11.0884C9.76278 18.9581 8.49194 19.4854 7.5546 20.4228C6.61726 21.3601 6.08997 22.6309 6.08838 23.9565V28.9565H4.08838V23.9565C4.0905 22.1007 4.82867 20.3214 6.14097 19.0091C7.45327 17.6968 9.23251 16.9587 11.0884 16.9565H17.0884C18.9442 16.9587 20.7235 17.6968 22.0358 19.0091C23.3481 20.3214 24.0863 22.1007 24.0884 23.9565V28.9565ZM14.0884 2.95654C15.0773 2.95654 16.044 3.24979 16.8662 3.79919C17.6885 4.3486 18.3293 5.1295 18.7078 6.04313C19.0862 6.95676 19.1852 7.96209 18.9923 8.93199C18.7994 9.9019 18.3232 10.7928 17.6239 11.4921C16.9247 12.1913 16.0337 12.6675 15.0638 12.8605C14.0939 13.0534 13.0886 12.9544 12.175 12.5759C11.2613 12.1975 10.4804 11.5566 9.93103 10.7344C9.38162 9.91215 9.08838 8.94545 9.08838 7.95654C9.08838 6.63046 9.61516 5.35869 10.5528 4.42101C11.4905 3.48333 12.7623 2.95654 14.0884 2.95654ZM14.0884 0.956543C12.7039 0.956543 11.3505 1.36709 10.1994 2.13626C9.04824 2.90543 8.15104 3.99868 7.62122 5.27776C7.09141 6.55684 6.95279 7.96431 7.22288 9.32218C7.49298 10.68 8.15966 11.9273 9.13863 12.9063C10.1176 13.8853 11.3649 14.5519 12.7227 14.822C14.0806 15.0921 15.4881 14.9535 16.7672 14.4237C18.0462 13.8939 19.1395 12.9967 19.9087 11.8455C20.6778 10.6944 21.0884 9.34101 21.0884 7.95654C21.0884 6.10003 20.3509 4.31955 19.0381 3.0068C17.7254 1.69404 15.9449 0.956543 14.0884 0.956543ZM23.0884 3.22454L26.5524 1.22454L27.5524 2.95654L24.0884 4.95654L23.0884 3.22454ZM0.0883789 6.95654H4.08838V8.95654H0.0883789V6.95654ZM4.08838 4.95654L0.624379 2.95654L1.62438 1.22454L5.08838 3.22454L4.08838 4.95654Z" fill="#4B00D4"/>
</svg>
