<svg width="39" height="39" viewBox="0 0 39 39" fill="none" xmlns="http://www.w3.org/2000/svg">
<path d="M19.5452 9.97705L21.8157 14.3744L26.6702 15.0797L23.1077 18.2896L24.2952 23.0396L19.5452 20.3677L14.7952 23.0396L15.9827 18.2896L12.4202 15.0797L17.4077 14.3744L19.5452 9.97705Z" fill="#4B00D4"/>
<path d="M21.6067 36.1021L19.5452 34.9146L24.2952 26.6021H31.4202C31.7322 26.6025 32.0412 26.5414 32.3296 26.4222C32.618 26.303 32.88 26.1281 33.1006 25.9075C33.3212 25.6868 33.4961 25.4248 33.6153 25.1365C33.7345 24.8481 33.7956 24.5391 33.7952 24.2271V9.97705C33.7956 9.66503 33.7345 9.35598 33.6153 9.06762C33.4961 8.77926 33.3212 8.51726 33.1006 8.29663C32.88 8.07599 32.618 7.90107 32.3296 7.78188C32.0412 7.66269 31.7322 7.60158 31.4202 7.60205H7.67017C7.35814 7.60158 7.0491 7.66269 6.76074 7.78188C6.47238 7.90107 6.21037 8.07599 5.98974 8.29663C5.76911 8.51726 5.59419 8.77926 5.475 9.06762C5.35581 9.35598 5.2947 9.66503 5.29517 9.97705V24.2271C5.2947 24.5391 5.35581 24.8481 5.475 25.1365C5.59419 25.4248 5.76911 25.6868 5.98974 25.9075C6.21037 26.1281 6.47238 26.303 6.76074 26.4222C7.0491 26.5414 7.35814 26.6025 7.67017 26.6021H18.3577V28.9771H7.67017C6.41039 28.9771 5.20221 28.4766 4.31141 27.5858C3.42061 26.695 2.92017 25.4868 2.92017 24.2271V9.97705C2.92001 9.35323 3.04277 8.73549 3.28142 8.15912C3.52008 7.58275 3.86995 7.05906 4.31106 6.61795C4.75217 6.17684 5.27587 5.82696 5.85224 5.58831C6.4286 5.34965 7.04634 5.22689 7.67017 5.22705H31.4202C32.044 5.22689 32.6617 5.34965 33.2381 5.58831C33.8145 5.82696 34.3382 6.17684 34.7793 6.61795C35.2204 7.05906 35.5703 7.58275 35.8089 8.15912C36.0476 8.73549 36.1703 9.35323 36.1702 9.97705V24.2271C36.1702 25.4868 35.6697 26.695 34.7789 27.5858C33.8881 28.4766 32.6799 28.9771 31.4202 28.9771H25.6786L21.6067 36.1021Z" fill="#4B00D4"/>
</svg>
