<svg width="18" height="18" viewBox="0 0 18 18" fill="none" xmlns="http://www.w3.org/2000/svg">
<path d="M9.22152 4.69938C6.92152 4.69938 5.05485 6.56605 5.05485 8.86605C5.05485 11.166 6.92152 13.0327 9.22152 13.0327C11.5215 13.0327 13.3882 11.166 13.3882 8.86605C13.3882 6.56605 11.5215 4.69938 9.22152 4.69938ZM9.22152 0.532715C4.62152 0.532715 0.888184 4.26605 0.888184 8.86605C0.888184 13.466 4.62152 17.1994 9.22152 17.1994C13.8215 17.1994 17.5549 13.466 17.5549 8.86605C17.5549 4.26605 13.8215 0.532715 9.22152 0.532715ZM9.22152 15.5327C5.53818 15.5327 2.55485 12.5494 2.55485 8.86605C2.55485 5.18271 5.53818 2.19938 9.22152 2.19938C12.9049 2.19938 15.8882 5.18271 15.8882 8.86605C15.8882 12.5494 12.9049 15.5327 9.22152 15.5327Z" fill="white"/>
</svg>
