<svg width="23" height="23" viewBox="0 0 23 23" fill="none" xmlns="http://www.w3.org/2000/svg">
<path d="M5.94141 12.958H10.0664V14.333H5.94141V12.958Z" fill="black"/>
<path d="M5.94141 15.708H12.8164V17.083H5.94141V15.708Z" fill="black"/>
<path d="M18.3164 3.33301H4.56641C4.20185 3.33337 3.85232 3.47835 3.59454 3.73614C3.33675 3.99392 3.19177 4.34345 3.19141 4.70801V18.458C3.19177 18.8226 3.33675 19.1721 3.59454 19.4299C3.85232 19.6877 4.20185 19.8326 4.56641 19.833H18.3164C18.681 19.8326 19.0305 19.6877 19.2883 19.4299C19.5461 19.1721 19.691 18.8226 19.6914 18.458V4.70801C19.691 4.34345 19.5461 3.99392 19.2883 3.73614C19.0305 3.47835 18.681 3.33337 18.3164 3.33301ZM12.8164 4.70801V7.45801H10.0664V4.70801H12.8164ZM4.56641 18.458V4.70801H8.69141V8.83301H14.1914V4.70801H18.3164L18.3171 18.458H4.56641Z" fill="black"/>
</svg>
