<svg width="57" height="45" viewBox="0 0 57 45" fill="none" xmlns="http://www.w3.org/2000/svg">
<path d="M42.7475 13.5579V7.8092C42.7475 6.28456 42.1419 4.82237 41.0638 3.74429C39.9857 2.66621 38.5235 2.06055 36.9989 2.06055H8.25561C6.73097 2.06055 5.26878 2.66621 4.1907 3.74429C3.11262 4.82237 2.50696 6.28456 2.50696 7.8092V25.0552C2.50696 26.5798 3.11262 28.042 4.1907 29.1201C5.26878 30.1981 6.73097 30.8038 8.25561 30.8038H14.0043L42.7475 13.5579ZM19.7529 42.3011H48.4962C50.0208 42.3011 51.483 41.6954 52.5611 40.6174C53.6392 39.5393 54.2448 38.0771 54.2448 36.5525V19.3065C54.2448 17.7819 53.6392 16.3197 52.5611 15.2416C51.483 14.1635 50.0208 13.5579 48.4962 13.5579H19.7529C18.2283 13.5579 16.7661 14.1635 15.688 15.2416C14.6099 16.3197 14.0043 17.7819 14.0043 19.3065V36.5525C14.0043 38.0771 14.6099 39.5393 15.688 40.6174C16.7661 41.6954 18.2283 42.3011 19.7529 42.3011ZM39.8732 27.9295C39.8732 29.4541 39.2675 30.9163 38.1895 31.9944C37.1114 33.0725 35.6492 33.6781 34.1245 33.6781C32.5999 33.6781 31.1377 33.0725 30.0596 31.9944C28.9816 30.9163 28.3759 29.4541 28.3759 27.9295C28.3759 26.4048 28.9816 24.9427 30.0596 23.8646C31.1377 22.7865 32.5999 22.1808 34.1245 22.1808C35.6492 22.1808 37.1114 22.7865 38.1895 23.8646C39.2675 24.9427 39.8732 26.4048 39.8732 27.9295V27.9295Z" stroke="#1B2559" stroke-width="4" stroke-linecap="round" stroke-linejoin="round"/>
</svg>
