<svg width="43" height="44" viewBox="0 0 43 44" fill="none" xmlns="http://www.w3.org/2000/svg">
<path d="M23.625 6.8335C28.3213 6.8335 32.125 10.7118 32.125 15.5002C32.125 18.7502 30.425 21.5018 27.875 22.9968V20.3535C29.1712 19.1618 30 17.4285 30 15.5002C30 11.9035 27.1525 9.00016 23.625 9.00016C20.0975 9.00016 17.25 11.9035 17.25 15.5002C17.25 17.4285 18.0788 19.1618 19.375 20.3535V22.9968C16.825 21.5018 15.125 18.7502 15.125 15.5002C15.125 10.7118 18.9287 6.8335 23.625 6.8335ZM38.5 40.4168C38.4362 42.1935 37.055 43.6018 35.3125 43.6668H23.625C22.8175 43.6668 22.0525 43.3418 21.5 42.7352L13 33.6352L14.5725 31.9668C14.9762 31.5118 15.55 31.2735 16.1875 31.2735H16.6125L21.5 35.0002V15.5002C21.5 14.3085 22.4562 13.3335 23.625 13.3335C24.7938 13.3335 25.75 14.3085 25.75 15.5002V25.1852L28.3213 25.4668L36.6937 30.2118C37.82 30.7318 38.5 31.8802 38.5 33.1368V40.4168ZM38.5 0.333496H4.5C2.1625 0.333496 0.25 2.2835 0.25 4.66683V22.0002C0.25 23.1494 0.697766 24.2516 1.4948 25.0643C2.29183 25.8769 3.37283 26.3335 4.5 26.3335H13V22.0002H4.5V4.66683H38.5V22.0002H34.25V26.3335H38.5V26.2468L38.585 26.3335C40.9013 26.3335 42.75 24.3618 42.75 22.0002V4.66683C42.75 3.51756 42.3022 2.41536 41.5052 1.6027C40.7082 0.790042 39.6272 0.333496 38.5 0.333496Z" fill="#F86CA9"/>
</svg>
