<svg width="64" height="30" viewBox="0 0 64 30" fill="none" xmlns="http://www.w3.org/2000/svg">
<path fill-rule="evenodd" clip-rule="evenodd" d="M8.47336 4.68096H54.6734C55.7873 4.68096 56.8556 5.12346 57.6432 5.91111C58.4309 6.69876 58.8734 7.76705 58.8734 8.88096V21.481C58.8734 22.5949 58.4309 23.6632 57.6432 24.4508C56.8556 25.2385 55.7873 25.681 54.6734 25.681H8.47336C7.35945 25.681 6.29117 25.2385 5.50352 24.4508C4.71586 23.6632 4.27336 22.5949 4.27336 21.481V8.88096C4.27336 7.76705 4.71586 6.69876 5.50352 5.91111C6.29117 5.12346 7.35945 4.68096 8.47336 4.68096ZM0.0733643 8.88096C0.0733643 6.65314 0.958362 4.51656 2.53367 2.94126C4.10897 1.36595 6.24555 0.480957 8.47336 0.480957H54.6734C56.9012 0.480957 59.0378 1.36595 60.6131 2.94126C62.1884 4.51656 63.0734 6.65314 63.0734 8.88096V21.481C63.0734 23.7088 62.1884 25.8453 60.6131 27.4207C59.0378 28.996 56.9012 29.881 54.6734 29.881H8.47336C6.24555 29.881 4.10897 28.996 2.53367 27.4207C0.958362 25.8453 0.0733643 23.7088 0.0733643 21.481V8.88096ZM18.9734 12.031C18.1379 12.031 17.3367 12.3628 16.746 12.9536C16.1552 13.5443 15.8234 14.3455 15.8234 15.181C15.8234 16.0164 16.1552 16.8176 16.746 17.4083C17.3367 17.9991 18.1379 18.331 18.9734 18.331C19.8088 18.331 20.61 17.9991 21.2008 17.4083C21.7915 16.8176 22.1234 16.0164 22.1234 15.181C22.1234 14.3455 21.7915 13.5443 21.2008 12.9536C20.61 12.3628 19.8088 12.031 18.9734 12.031ZM28.4234 15.181C28.4234 14.3455 28.7552 13.5443 29.346 12.9536C29.9367 12.3628 30.7379 12.031 31.5734 12.031C32.4088 12.031 33.21 12.3628 33.8007 12.9536C34.3915 13.5443 34.7234 14.3455 34.7234 15.181C34.7234 16.0164 34.3915 16.8176 33.8007 17.4083C33.21 17.9991 32.4088 18.331 31.5734 18.331C30.7379 18.331 29.9367 17.9991 29.346 17.4083C28.7552 16.8176 28.4234 16.0164 28.4234 15.181ZM44.1734 12.031C43.3379 12.031 42.5367 12.3628 41.946 12.9536C41.3552 13.5443 41.0234 14.3455 41.0234 15.181C41.0234 16.0164 41.3552 16.8176 41.946 17.4083C42.5367 17.9991 43.3379 18.331 44.1734 18.331C45.0088 18.331 45.81 17.9991 46.4007 17.4083C46.9915 16.8176 47.3234 16.0164 47.3234 15.181C47.3234 14.3455 46.9915 13.5443 46.4007 12.9536C45.81 12.3628 45.0088 12.031 44.1734 12.031Z" fill="#4B00D4"/>
</svg>
