<svg width="21" height="21" viewBox="0 0 21 21" fill="none" xmlns="http://www.w3.org/2000/svg">
<g clip-path="url(#clip0_186_22163)">
<path d="M12.9747 17.1229C12.4664 17.1229 12.0547 17.5346 12.0547 18.0429V19.3646C12.0547 19.4854 12.0785 19.605 12.1247 19.7167C12.171 19.8283 12.2387 19.9297 12.3241 20.0151C12.4096 20.1006 12.511 20.1683 12.6226 20.2146C12.7342 20.2608 12.8539 20.2846 12.9747 20.2846C13.0955 20.2846 13.2151 20.2608 13.3268 20.2146C13.4384 20.1683 13.5398 20.1006 13.6252 20.0151C13.7107 19.9297 13.7784 19.8283 13.8247 19.7167C13.8709 19.605 13.8947 19.4854 13.8947 19.3646V19.3371V19.3388V18.0429C13.8947 17.5354 13.483 17.1229 12.9755 17.1229H12.9747Z" fill="#4B00D4"/>
<path d="M19.403 11.9904H18.1072C17.87 12.0003 17.6458 12.1016 17.4814 12.2729C17.317 12.4443 17.2252 12.6725 17.2251 12.91C17.225 13.1474 17.3166 13.3757 17.4808 13.5472C17.645 13.7187 17.8691 13.8202 18.1063 13.8304H19.4038C19.6411 13.8204 19.8653 13.7191 20.0296 13.5478C20.194 13.3764 20.2858 13.1482 20.2859 12.9108C20.286 12.6733 20.1944 12.445 20.0302 12.2735C19.866 12.102 19.6419 12.0006 19.4047 11.9904H19.403Z" fill="#4B00D4"/>
<path d="M17.2539 15.8888C17.0792 15.7279 16.849 15.6408 16.6115 15.6458C16.374 15.6508 16.1477 15.7474 15.9799 15.9155C15.812 16.0836 15.7157 16.31 15.711 16.5475C15.7063 16.785 15.7937 17.0151 15.9548 17.1896L15.9539 17.1888L16.8698 18.1046C16.9537 18.1958 17.0553 18.2691 17.1682 18.3201C17.2812 18.3711 17.4034 18.3987 17.5273 18.4013C17.6513 18.4039 17.7744 18.3814 17.8895 18.3352C18.0045 18.289 18.109 18.2201 18.1967 18.1325C18.2845 18.0449 18.3536 17.9404 18.3999 17.8255C18.4462 17.7105 18.4689 17.5873 18.4664 17.4634C18.464 17.3394 18.4365 17.2173 18.3857 17.1042C18.3349 16.9911 18.2617 16.8895 18.1706 16.8054L18.1698 16.8046L17.2539 15.8888Z" fill="#4B00D4"/>
<path d="M7.6689 3.39213C8.17724 3.39213 8.5889 2.98046 8.5889 2.47213V1.17713C8.57891 0.9399 8.47767 0.715699 8.30632 0.551336C8.13496 0.386972 7.90674 0.295152 7.6693 0.295044C7.43186 0.294937 7.20356 0.38655 7.03205 0.550759C6.86055 0.714967 6.75911 0.939076 6.7489 1.1763V2.47296C6.7489 2.98046 7.16057 3.39296 7.66807 3.39296L7.6689 3.39213Z" fill="#4B00D4"/>
<path d="M2.53646 8.52372H2.56229C2.80629 8.52372 3.0403 8.42679 3.21283 8.25425C3.38537 8.08172 3.48229 7.84772 3.48229 7.60372C3.48229 7.35972 3.38537 7.12571 3.21283 6.95318C3.0403 6.78064 2.80629 6.68372 2.56229 6.68372H2.53479H2.53646H1.24146C1.00423 6.69371 0.78003 6.79495 0.615667 6.9663C0.451303 7.13766 0.359483 7.36588 0.359375 7.60332C0.359268 7.84076 0.450882 8.06906 0.61509 8.24056C0.779298 8.41207 1.00341 8.51351 1.24063 8.52372H1.24229H2.53646Z" fill="#4B00D4"/>
<path d="M3.38969 4.62625C3.47365 4.71745 3.57518 4.79074 3.68817 4.84173C3.80117 4.89271 3.92331 4.92033 4.04724 4.92293C4.17118 4.92553 4.29437 4.90306 4.4094 4.85686C4.52444 4.81066 4.62895 4.74169 4.71666 4.65409C4.80438 4.56649 4.87348 4.46206 4.91983 4.34709C4.96618 4.23211 4.98881 4.10896 4.98637 3.98501C4.98392 3.86107 4.95646 3.7389 4.90562 3.62584C4.85478 3.51278 4.78162 3.41116 4.69052 3.32708L4.68969 3.32625L3.77386 2.41041C3.68989 2.31921 3.58837 2.24592 3.47537 2.19493C3.36237 2.14395 3.24024 2.11633 3.1163 2.11373C2.99236 2.11113 2.86918 2.1336 2.75414 2.1798C2.63911 2.226 2.53459 2.29497 2.44688 2.38257C2.35917 2.47017 2.29006 2.57459 2.24372 2.68957C2.19737 2.80455 2.17474 2.9277 2.17718 3.05165C2.17962 3.17559 2.20709 3.29776 2.25793 3.41082C2.30876 3.52388 2.38193 3.6255 2.47302 3.70958L2.47386 3.71041L3.38969 4.62625Z" fill="#4B00D4"/>
<path d="M12.2731 14.8104C12.4339 14.6357 12.521 14.4055 12.516 14.168C12.511 13.9305 12.4144 13.7042 12.2463 13.5363C12.0783 13.3685 11.8518 13.2721 11.6143 13.2675C11.3769 13.2628 11.1468 13.3501 10.9722 13.5112L10.9731 13.5104L8.37307 16.1104C7.84893 16.5931 7.1584 16.8544 6.44599 16.8396C5.73358 16.8248 5.0545 16.5351 4.55086 16.031C4.04721 15.5269 3.75804 14.8476 3.74385 14.1352C3.72966 13.4228 3.99156 12.7325 4.47474 12.2087L4.47307 12.2104L7.07307 9.6104C7.16427 9.52644 7.23757 9.42492 7.28855 9.31192C7.33953 9.19892 7.36716 9.07679 7.36976 8.95285C7.37236 8.82891 7.34988 8.70573 7.30368 8.59069C7.25748 8.47565 7.18851 8.37114 7.10091 8.28343C7.01331 8.19572 6.90889 8.12661 6.79391 8.08027C6.67894 8.03392 6.55578 8.01129 6.43184 8.01373C6.3079 8.01617 6.18573 8.04363 6.07266 8.09447C5.9596 8.14531 5.85798 8.21848 5.7739 8.30957L5.77307 8.3104L3.17307 10.9104C2.53026 11.5536 2.09252 12.3729 1.91514 13.2648C1.73777 14.1567 1.82872 15.0811 2.1765 15.9214C2.52429 16.7616 3.11331 17.4799 3.86915 17.9855C4.62498 18.4911 5.51372 18.7613 6.42307 18.7621H6.4339C7.03602 18.7628 7.63231 18.6441 8.1883 18.413C8.74428 18.1819 9.24893 17.8428 9.67307 17.4154L12.2731 14.8104Z" fill="#4B00D4"/>
<path d="M17.4755 3.10045C17.0514 2.67307 16.5467 2.33401 15.9907 2.10286C15.4348 1.87171 14.8385 1.75307 14.2364 1.75379H14.2255H14.2264H14.2155C13.6134 1.75307 13.0171 1.87171 12.4611 2.10286C11.9051 2.33401 11.4005 2.67307 10.9764 3.10045L8.37636 5.70045C8.28515 5.78442 8.21186 5.88594 8.16088 5.99894C8.10989 6.11194 8.08227 6.23407 8.07967 6.35801C8.07707 6.48195 8.09954 6.60513 8.14574 6.72017C8.19194 6.8352 8.26091 6.93972 8.34851 7.02743C8.43611 7.11514 8.54054 7.18425 8.65551 7.23059C8.77049 7.27694 8.89365 7.29957 9.01759 7.29713C9.14153 7.29469 9.2637 7.26722 9.37676 7.21638C9.48982 7.16555 9.59144 7.09238 9.67552 7.00129L9.67636 7.00045L12.2764 4.40045C12.5289 4.12928 12.8336 3.91176 13.172 3.76085C13.5105 3.60994 13.8759 3.52874 14.2464 3.52208C14.6169 3.51543 14.985 3.58347 15.3287 3.72214C15.6723 3.8608 15.9846 4.06726 16.2467 4.32919C16.5089 4.59112 16.7156 4.90317 16.8546 5.24672C16.9935 5.59026 17.0619 5.95828 17.0555 6.32881C17.0492 6.69935 16.9683 7.06481 16.8177 7.40341C16.6671 7.742 16.4498 8.0468 16.1789 8.29962L16.1772 8.30129L13.5772 10.9013C13.486 10.9852 13.4127 11.0868 13.3617 11.1998C13.3107 11.3128 13.2831 11.4349 13.2805 11.5588C13.2779 11.6828 13.3004 11.806 13.3466 11.921C13.3928 12.036 13.4617 12.1405 13.5493 12.2283C13.6369 12.316 13.7414 12.3851 13.8563 12.4314C13.9713 12.4778 14.0945 12.5004 14.2184 12.498C14.3424 12.4955 14.4645 12.4681 14.5776 12.4172C14.6907 12.3664 14.7923 12.2932 14.8764 12.2021L14.8772 12.2013L17.4772 9.60129C18.3072 8.76879 18.8197 7.61962 18.8197 6.35129C18.8197 5.08295 18.3064 3.93379 17.4764 3.10129L17.4755 3.10045Z" fill="#4B00D4"/>
</g>
<defs>
<clipPath id="clip0_186_22163">
<rect width="20" height="20" fill="white" transform="translate(0.321411 0.25708)"/>
</clipPath>
</defs>
</svg>
