<svg width="27" height="20" viewBox="0 0 27 20" fill="none" xmlns="http://www.w3.org/2000/svg">
<path d="M23.3828 2.50195C23.8138 2.50195 24.2271 2.66657 24.5319 2.9596C24.8366 3.25262 25.0078 3.65005 25.0078 4.06445V16.5645C25.0078 16.9789 24.8366 17.3763 24.5319 17.6693C24.2271 17.9623 23.8138 18.127 23.3828 18.127H3.88281C3.45184 18.127 3.03851 17.9623 2.73376 17.6693C2.42902 17.3763 2.25781 16.9789 2.25781 16.5645V4.06445C2.25781 3.65005 2.42902 3.25262 2.73376 2.9596C3.03851 2.66657 3.45184 2.50195 3.88281 2.50195H23.3828ZM3.88281 0.939453C3.02086 0.939453 2.19421 1.26869 1.58472 1.85474C0.975222 2.4408 0.632813 3.23565 0.632812 4.06445L0.632813 16.5645C0.632813 17.3933 0.975222 18.1881 1.58472 18.7742C2.19421 19.3602 3.02086 19.6895 3.88281 19.6895H23.3828C24.2448 19.6895 25.0714 19.3602 25.6809 18.7742C26.2904 18.1881 26.6328 17.3933 26.6328 16.5645V4.06445C26.6328 3.23565 26.2904 2.4408 25.6809 1.85474C25.0714 1.26869 24.2448 0.939453 23.3828 0.939453H3.88281Z" fill="#1B2559"/>
<path d="M3.88281 6.4082C3.88281 6.201 3.96842 6.00229 4.12079 5.85578C4.27316 5.70926 4.47982 5.62695 4.69531 5.62695H7.94531C8.1608 5.62695 8.36746 5.70926 8.51984 5.85578C8.67221 6.00229 8.75781 6.201 8.75781 6.4082V7.9707C8.75781 8.1779 8.67221 8.37662 8.51984 8.52313C8.36746 8.66964 8.1608 8.75195 7.94531 8.75195H4.69531C4.47982 8.75195 4.27316 8.66964 4.12079 8.52313C3.96842 8.37662 3.88281 8.1779 3.88281 7.9707V6.4082ZM3.88281 11.0957C3.88281 10.8885 3.96842 10.6898 4.12079 10.5433C4.27316 10.3968 4.47982 10.3145 4.69531 10.3145H12.8203C13.0358 10.3145 13.2425 10.3968 13.3948 10.5433C13.5472 10.6898 13.6328 10.8885 13.6328 11.0957C13.6328 11.3029 13.5472 11.5016 13.3948 11.6481C13.2425 11.7946 13.0358 11.877 12.8203 11.877H4.69531C4.47982 11.877 4.27316 11.7946 4.12079 11.6481C3.96842 11.5016 3.88281 11.3029 3.88281 11.0957ZM3.88281 14.2207C3.88281 14.0135 3.96842 13.8148 4.12079 13.6683C4.27316 13.5218 4.47982 13.4395 4.69531 13.4395H6.32031C6.5358 13.4395 6.74246 13.5218 6.89484 13.6683C7.04721 13.8148 7.13281 14.0135 7.13281 14.2207C7.13281 14.4279 7.04721 14.6266 6.89484 14.7731C6.74246 14.9196 6.5358 15.002 6.32031 15.002H4.69531C4.47982 15.002 4.27316 14.9196 4.12079 14.7731C3.96842 14.6266 3.88281 14.4279 3.88281 14.2207ZM8.75781 14.2207C8.75781 14.0135 8.84342 13.8148 8.99579 13.6683C9.14816 13.5218 9.35482 13.4395 9.57031 13.4395H11.1953C11.4108 13.4395 11.6175 13.5218 11.7698 13.6683C11.9222 13.8148 12.0078 14.0135 12.0078 14.2207C12.0078 14.4279 11.9222 14.6266 11.7698 14.7731C11.6175 14.9196 11.4108 15.002 11.1953 15.002H9.57031C9.35482 15.002 9.14816 14.9196 8.99579 14.7731C8.84342 14.6266 8.75781 14.4279 8.75781 14.2207ZM13.6328 14.2207C13.6328 14.0135 13.7184 13.8148 13.8708 13.6683C14.0232 13.5218 14.2298 13.4395 14.4453 13.4395H16.0703C16.2858 13.4395 16.4925 13.5218 16.6448 13.6683C16.7972 13.8148 16.8828 14.0135 16.8828 14.2207C16.8828 14.4279 16.7972 14.6266 16.6448 14.7731C16.4925 14.9196 16.2858 15.002 16.0703 15.002H14.4453C14.2298 15.002 14.0232 14.9196 13.8708 14.7731C13.7184 14.6266 13.6328 14.4279 13.6328 14.2207ZM18.5078 14.2207C18.5078 14.0135 18.5934 13.8148 18.7458 13.6683C18.8982 13.5218 19.1048 13.4395 19.3203 13.4395H20.9453C21.1608 13.4395 21.3675 13.5218 21.5198 13.6683C21.6722 13.8148 21.7578 14.0135 21.7578 14.2207C21.7578 14.4279 21.6722 14.6266 21.5198 14.7731C21.3675 14.9196 21.1608 15.002 20.9453 15.002H19.3203C19.1048 15.002 18.8982 14.9196 18.7458 14.7731C18.5934 14.6266 18.5078 14.4279 18.5078 14.2207Z" fill="#1B2559"/>
</svg>
