<svg width="56" height="45" viewBox="0 0 56 45" fill="none" xmlns="http://www.w3.org/2000/svg">
<path d="M4.06124 31.7139L51.9385 31.7139C52.9555 31.7139 53.78 30.8894 53.78 29.8724V4.09236C53.78 3.07536 52.9555 2.25092 51.9385 2.25092L4.06124 2.25092C3.04425 2.25092 2.21981 3.07536 2.21981 4.09236V29.8724C2.21981 30.8894 3.04425 31.7139 4.06124 31.7139Z" stroke="#4B00D4" stroke-width="3" stroke-linejoin="round"/>
<path d="M5.90271 37.2373H50.0971" stroke="#4B00D4" stroke-width="3" stroke-linecap="round" stroke-linejoin="round"/>
<path d="M9.58566 42.7616H46.4143" stroke="#4B00D4" stroke-width="3" stroke-linecap="round" stroke-linejoin="round"/>
<path d="M28 26.1899C33.085 26.1899 37.2072 22.0677 37.2072 16.9827C37.2072 11.8977 33.085 7.77551 28 7.77551C22.915 7.77551 18.7928 11.8977 18.7928 16.9827C18.7928 22.0677 22.915 26.1899 28 26.1899Z" stroke="#4B00D4" stroke-width="3" stroke-linecap="round" stroke-linejoin="round"/>
<path d="M53.7801 11.4578C51.3382 11.4578 48.9964 10.4877 47.2697 8.76106C45.543 7.03438 44.573 4.6925 44.573 2.25061" stroke="#4B00D4" stroke-width="3" stroke-linecap="round" stroke-linejoin="round"/>
<path d="M2.21997 11.4577C3.42907 11.4577 4.62634 11.2195 5.7434 10.7568C6.86047 10.2941 7.87546 9.61591 8.73042 8.76094C9.58539 7.90598 10.2636 6.89099 10.7263 5.77392C11.189 4.65686 11.4271 3.45959 11.4271 2.25049" stroke="#4B00D4" stroke-width="3" stroke-linecap="round" stroke-linejoin="round"/>
<path d="M53.7801 22.5061C51.3382 22.5061 48.9964 23.4761 47.2697 25.2028C45.543 26.9295 44.573 29.2714 44.573 31.7133" stroke="#4B00D4" stroke-width="3" stroke-linecap="round" stroke-linejoin="round"/>
<path d="M2.21991 22.5061C3.42901 22.5061 4.62628 22.7443 5.74334 23.207C6.86041 23.6697 7.8754 24.3479 8.73036 25.2028C9.58533 26.0578 10.2635 27.0728 10.7262 28.1898C11.1889 29.3069 11.4271 30.5042 11.4271 31.7133" stroke="#4B00D4" stroke-width="3" stroke-linecap="round" stroke-linejoin="round"/>
</svg>
