<svg width="21" height="24" viewBox="0 0 21 24" fill="none" xmlns="http://www.w3.org/2000/svg">
<path d="M13.0669 8.6773H16.1023C17.1086 8.6773 18.0737 8.27754 18.7853 7.56596C19.4969 6.85439 19.8967 5.88928 19.8967 4.88296C19.8967 3.87664 19.4969 2.91154 18.7853 2.19996C18.0737 1.48838 17.1086 1.08862 16.1023 1.08862H5.47818C4.47185 1.08862 3.50675 1.48838 2.79517 2.19996C2.0836 2.91154 1.68384 3.87664 1.68384 4.88296C1.68384 5.88928 2.0836 6.85439 2.79517 7.56596C3.50675 8.27754 4.47185 8.6773 5.47818 8.6773M7.75478 15.5071V13.2305V15.5071ZM7.75478 13.2305V5.64183C7.75478 5.2393 7.91468 4.85326 8.19931 4.56863C8.48394 4.284 8.86998 4.12409 9.27251 4.12409C9.67504 4.12409 10.0611 4.284 10.3457 4.56863C10.6303 4.85326 10.7902 5.2393 10.7902 5.64183V11.7128H15.8792C17.2604 11.7128 18.3789 12.8313 18.3789 14.2125V15.5071C18.3789 17.3185 17.6594 19.0557 16.3785 20.3365C15.0977 21.6173 13.3605 22.3369 11.5491 22.3369H10.7902C9.18013 22.3369 7.63597 21.6973 6.49744 20.5588C5.35892 19.4203 4.71931 17.8761 4.71931 16.266C4.71931 15.4609 5.03912 14.6888 5.60838 14.1196C6.17764 13.5503 6.94972 13.2305 7.75478 13.2305V13.2305Z" stroke="#4B00D4" stroke-width="1.6"/>
</svg>
