<svg width="25" height="19" viewBox="0 0 25 19" fill="none" xmlns="http://www.w3.org/2000/svg">
<path d="M0.0419922 4.18486C0.0419922 3.33617 0.38967 2.52224 1.00854 1.92212C1.62741 1.32201 2.46678 0.984863 3.34199 0.984863H21.492C22.3672 0.984863 23.2066 1.32201 23.8254 1.92212C24.4443 2.52224 24.792 3.33617 24.792 4.18486V6.58486H0.0419922V4.18486ZM0.0419922 8.18486H24.792V15.3849C24.792 16.2336 24.4443 17.0475 23.8254 17.6476C23.2066 18.2477 22.3672 18.5849 21.492 18.5849H3.34199C2.46678 18.5849 1.62741 18.2477 1.00854 17.6476C0.38967 17.0475 0.0419922 16.2336 0.0419922 15.3849V8.18486ZM18.192 14.5849C17.9732 14.5849 17.7633 14.6691 17.6086 14.8192C17.4539 14.9692 17.367 15.1727 17.367 15.3849C17.367 15.597 17.4539 15.8005 17.6086 15.9505C17.7633 16.1006 17.9732 16.1849 18.192 16.1849H21.492C21.7108 16.1849 21.9206 16.1006 22.0754 15.9505C22.2301 15.8005 22.317 15.597 22.317 15.3849C22.317 15.1727 22.2301 14.9692 22.0754 14.8192C21.9206 14.6691 21.7108 14.5849 21.492 14.5849H18.192Z" fill="#1B2559"/>
</svg>
