<svg width="19" height="21" viewBox="0 0 19 21" fill="none" xmlns="http://www.w3.org/2000/svg">
<path d="M16.4801 2.8186V0.968604H18.1801V20.6686H0.480078V0.968604H2.18008V2.8186V2.9686H2.33008H4.18008V4.6686H2.33008H2.18008V4.8186V18.8186V18.9686H2.33008H16.3301H16.4801V18.8186V4.8186V4.6686H16.3301H14.4801V2.9686H16.3301H16.4801V2.8186ZM14.1801 0.968604V2.6686H12.4801V0.968604H14.1801ZM10.4801 2.9686H12.1801V4.6686H10.4801V2.9686ZM10.1801 0.968604V2.6686H8.48008V0.968604H10.1801ZM6.48008 2.9686H8.18008V4.6686H6.48008V2.9686ZM6.18008 0.968604V2.6686H4.48008V0.968604H6.18008ZM4.48008 8.6686V6.9686H14.1801V8.6686H4.48008ZM4.48008 10.9686H14.1801V12.6686H4.48008V10.9686ZM10.4801 14.9686H14.1801V16.6686H10.4801V14.9686Z" fill="#1B2559" stroke="white" stroke-width="0.3"/>
</svg>
