<svg width="62" height="62" viewBox="0 0 62 62" fill="none" xmlns="http://www.w3.org/2000/svg">
<path d="M37.1012 4.7134L30.7746 10.9834H37.375C43.8286 10.9834 50.0179 13.512 54.5813 18.0128C59.1446 22.5137 61.7083 28.6182 61.7083 34.9834H55.625C55.625 30.2095 53.7022 25.6311 50.2797 22.2555C46.8572 18.8798 42.2152 16.9834 37.375 16.9834H30.7746L37.1317 23.2534L32.8125 27.4834L19.125 13.9834L23.4137 9.7534L32.8125 0.483398L37.1012 4.7134ZM0.875 31.9834V61.9834H49.5417V31.9834H0.875ZM6.95833 51.6634V42.3334C8.78673 41.286 10.3068 39.7868 11.3687 37.9834H39.0479C40.1098 39.7868 41.6299 41.286 43.4583 42.3334V51.6634C41.6557 52.7102 40.1575 54.1982 39.1087 55.9834H11.3687C10.3031 54.1907 8.78325 52.702 6.95833 51.6634ZM25.2083 52.9834C27.7268 52.9834 29.7708 50.2984 29.7708 46.9834C29.7708 43.6684 27.7268 40.9834 25.2083 40.9834C22.6898 40.9834 20.6458 43.6684 20.6458 46.9834C20.6458 50.2984 22.6898 52.9834 25.2083 52.9834Z" fill="#F86CA9"/>
</svg>
