<svg width="89" height="90" viewBox="0 0 89 90" fill="none" xmlns="http://www.w3.org/2000/svg">
<path d="M53.2921 6.83846L44.1113 15.937H53.6893C63.0543 15.937 72.0357 19.6063 78.6578 26.1376C85.2798 32.6689 89 41.5273 89 50.764H80.1724C80.1724 43.8365 77.3822 37.1927 72.4157 32.2942C67.4491 27.3957 60.7131 24.6438 53.6893 24.6438H44.1113L53.3362 33.7423L47.0686 39.8806L27.2063 20.2904L33.4298 14.1521L47.0686 0.700195L53.2921 6.83846ZM0.723267 46.4106V89.9444H71.3447V46.4106H0.723267ZM9.55094 74.9688V61.4298C12.2042 59.9099 14.41 57.7343 15.951 55.1174H56.1169C57.6579 57.7343 59.8638 59.9099 62.517 61.4298V74.9688C59.9012 76.4879 57.7271 78.6471 56.2052 81.2376H15.951C14.4046 78.6362 12.1991 76.476 9.55094 74.9688ZM36.034 76.8843C39.6886 76.8843 42.6547 72.988 42.6547 68.1775C42.6547 63.367 39.6886 59.4708 36.034 59.4708C32.3793 59.4708 29.4132 63.367 29.4132 68.1775C29.4132 72.988 32.3793 76.8843 36.034 76.8843Z" fill="#E7EAFC" fill-opacity="0.5"/>
</svg>
