<svg width="96" height="93" viewBox="0 0 96 93" fill="none" xmlns="http://www.w3.org/2000/svg">
<path d="M71.8845 28.5124L71.8848 28.5124C72.9283 28.5058 73.9579 28.7688 74.8842 29.2787C75.8106 29.7887 76.606 30.5305 77.2011 31.4402C77.7961 32.3499 78.1727 33.3999 78.2977 34.4991C78.4227 35.5984 78.2924 36.7132 77.9181 37.7468C77.5438 38.7804 76.9371 39.7012 76.151 40.4297C75.3649 41.1581 74.4233 41.6721 73.4079 41.9278C72.3925 42.1834 71.3336 42.1731 70.3228 41.8977C69.312 41.6222 68.3794 41.0899 67.6062 40.3462L67.5368 40.2796L67.4675 40.3462C66.5467 41.2318 65.4034 41.8147 64.1766 42.0249C62.9499 42.2352 61.6917 42.064 60.5548 41.5317C59.4178 40.9995 58.4505 40.1288 57.7711 39.0247C57.0917 37.9205 56.7298 36.6308 56.7298 35.3123C56.7298 33.9938 57.0917 32.7041 57.7711 31.6C58.4505 30.4959 59.4178 29.6252 60.5548 29.0929C61.6917 28.5607 62.9499 28.3894 64.1766 28.5997C65.4034 28.81 66.5467 29.3929 67.4675 30.2784L67.537 30.3453L67.6063 30.2782C68.7765 29.147 70.3017 28.518 71.8845 28.5124ZM8.84791 60.5122H8.74791V60.6122V79.0121C8.74791 80.2568 9.21518 81.4517 10.0485 82.3335C10.8821 83.2154 12.0139 83.7121 13.1952 83.7121H56.6685C57.8499 83.7121 58.9817 83.2154 59.8152 82.3335C60.6486 81.4517 61.1158 80.2568 61.1158 79.0121V74.4121C61.1158 73.2169 61.5646 72.0717 62.3618 71.2281C63.1588 70.3848 64.2386 69.9121 65.3632 69.9121C66.4878 69.9121 67.5675 70.3848 68.3645 71.2281C69.1617 72.0717 69.6105 73.2169 69.6105 74.4121V79.0121C69.6105 82.6473 68.2457 86.1326 65.8179 88.7014C63.3903 91.2701 60.0991 92.712 56.6685 92.712H13.1952C9.7647 92.712 6.47343 91.2701 4.04585 88.7014C1.61808 86.1326 0.253259 82.6473 0.253259 79.0121V46.8123C0.253259 43.177 1.61808 39.6918 4.04585 37.1229C6.47343 34.5543 9.7647 33.1123 13.1952 33.1123C14.3198 33.1123 15.3996 33.585 16.1966 34.4283C16.9938 35.2719 17.4426 36.4171 17.4426 37.6123C17.4426 38.8075 16.9938 39.9528 16.1966 40.7963C15.3996 41.6396 14.3198 42.1123 13.1952 42.1123C12.0139 42.1123 10.8821 42.6089 10.0485 43.4909C9.21518 44.3727 8.74791 45.5675 8.74791 46.8123V51.4122V51.5122H8.84791H13.1952C14.3198 51.5122 15.3996 51.9849 16.1966 52.8282C16.9938 53.6718 17.4426 54.817 17.4426 56.0122C17.4426 57.2074 16.9938 58.3527 16.1966 59.1962C15.3996 60.0395 14.3198 60.5122 13.1952 60.5122H8.84791ZM39.2792 0.9125H82.7525C86.183 0.9125 89.4743 2.35443 91.9019 4.92309C94.3297 7.49195 95.6945 10.9772 95.6945 14.6124V46.8123C95.6945 50.4475 94.3297 53.9327 91.9019 56.5016C89.4743 59.0703 86.183 60.5122 82.7525 60.5122H39.2792C35.8487 60.5122 32.5574 59.0703 30.1298 56.5016C27.702 53.9327 26.3372 50.4475 26.3372 46.8123V14.6124C26.3372 10.9772 27.702 7.49195 30.1298 4.92309C32.5574 2.35443 35.8487 0.9125 39.2792 0.9125ZM85.8992 50.1336C86.7326 49.2518 87.1998 48.057 87.1998 46.8123V14.6124C87.1998 13.3677 86.7326 12.1729 85.8992 11.2911C85.0657 10.4091 83.9339 9.91245 82.7525 9.91245H39.2792C38.0978 9.91245 36.966 10.4091 36.1325 11.2911C35.2991 12.1729 34.8319 13.3677 34.8319 14.6124V46.8123C34.8319 48.057 35.2991 49.2518 36.1325 50.1336C36.966 51.0156 38.0978 51.5122 39.2792 51.5122H82.7525C83.9339 51.5122 85.0657 51.0156 85.8992 50.1336ZM26.2372 74.3121H21.8899C20.7653 74.3121 19.6856 73.8395 18.8886 72.9961C18.0914 72.1526 17.6426 71.0074 17.6426 69.8121C17.6426 68.6169 18.0914 67.4717 18.8886 66.6282C19.6856 65.7848 20.7653 65.3122 21.8899 65.3122H26.2372C27.3618 65.3122 28.4416 65.7848 29.2386 66.6282C30.0358 67.4717 30.4846 68.6169 30.4846 69.8121C30.4846 71.0074 30.0358 72.1526 29.2386 72.9961C28.4416 73.8395 27.3618 74.3121 26.2372 74.3121Z" fill="#E7EAFC" fill-opacity="0.5" stroke="white" stroke-width="0.2"/>
</svg>
