<svg width="19" height="19" viewBox="0 0 19 19" fill="none" xmlns="http://www.w3.org/2000/svg">
<path d="M12.4259 7.07007H7.47591C7.33004 7.07007 7.19015 7.12801 7.087 7.23116C6.98386 7.3343 6.92591 7.4742 6.92591 7.62007V13.4867M6.92591 18.0701H12.4259H6.92591ZM6.92591 18.0701V13.4867V18.0701ZM6.92591 18.0701H1.97591C1.83004 18.0701 1.69015 18.0121 1.587 17.909C1.48386 17.8058 1.42591 17.6659 1.42591 17.5201V14.0367C1.42591 13.8909 1.48386 13.751 1.587 13.6478C1.69015 13.5447 1.83004 13.4867 1.97591 13.4867H6.92591V18.0701ZM12.4259 18.0701V7.07007V18.0701ZM12.4259 18.0701H17.3759C17.5218 18.0701 17.6617 18.0121 17.7648 17.909C17.868 17.8058 17.9259 17.6659 17.9259 17.5201V2.12007C17.9259 1.9742 17.868 1.8343 17.7648 1.73116C17.6617 1.62801 17.5218 1.57007 17.3759 1.57007H12.9759C12.83 1.57007 12.6901 1.62801 12.587 1.73116C12.4839 1.8343 12.4259 1.9742 12.4259 2.12007V7.07007V18.0701Z" stroke="#4B00D4" stroke-width="1.5"/>
</svg>
