<svg width="110" height="86" viewBox="0 0 110 86" fill="none" xmlns="http://www.w3.org/2000/svg">
<path d="M7.84166 60.4385L101.943 60.4385C103.942 60.4385 105.562 58.8587 105.562 56.9099V7.50941C105.562 5.56062 103.942 3.98081 101.943 3.98081L7.84166 3.98081C5.84279 3.98081 4.22238 5.56062 4.22238 7.50941V56.9099C4.22238 58.8587 5.84279 60.4385 7.84166 60.4385Z" stroke="#E7EAFC" stroke-opacity="0.75" stroke-width="7.3" stroke-linejoin="round"/>
<path d="M11.4608 71.0239H98.3243" stroke="#E7EAFC" stroke-opacity="0.75" stroke-width="7.3" stroke-linecap="round" stroke-linejoin="round"/>
<path d="M18.6992 81.6113H91.0854" stroke="#E7EAFC" stroke-opacity="0.75" stroke-width="7.3" stroke-linecap="round" stroke-linejoin="round"/>
<path d="M54.8925 49.8528C64.8869 49.8528 72.989 41.9537 72.989 32.2096C72.989 22.4655 64.8869 14.5664 54.8925 14.5664C44.898 14.5664 36.7959 22.4655 36.7959 32.2096C36.7959 41.9537 44.898 49.8528 54.8925 49.8528Z" stroke="#E7EAFC" stroke-opacity="0.75" stroke-width="7.3" stroke-linecap="round" stroke-linejoin="round"/>
<path d="M105.562 21.6256C100.762 21.6256 96.1595 19.7668 92.7657 16.458C89.3719 13.1493 87.4653 8.66169 87.4653 3.98242" stroke="#E7EAFC" stroke-opacity="0.75" stroke-width="7.3" stroke-linecap="round" stroke-linejoin="round"/>
<path d="M4.22217 21.6256C6.59864 21.6256 8.95184 21.1693 11.1474 20.2826C13.343 19.396 15.3379 18.0964 17.0184 16.458C18.6988 14.8197 20.0318 12.8747 20.9412 10.7342C21.8506 8.59361 22.3187 6.29936 22.3187 3.98242" stroke="#E7EAFC" stroke-opacity="0.75" stroke-width="7.3" stroke-linecap="round" stroke-linejoin="round"/>
<path d="M105.562 42.7949C100.762 42.7949 96.1595 44.6538 92.7657 47.9625C89.3719 51.2712 87.4653 55.7588 87.4653 60.4381" stroke="#E7EAFC" stroke-opacity="0.75" stroke-width="7.3" stroke-linecap="round" stroke-linejoin="round"/>
<path d="M4.22217 42.7949C6.59864 42.7949 8.95184 43.2513 11.1474 44.1379C13.343 45.0246 15.3379 46.3242 17.0184 47.9625C18.6988 49.6008 20.0318 51.5458 20.9412 53.6864C21.8506 55.8269 22.3187 58.1212 22.3187 60.4381" stroke="#E7EAFC" stroke-opacity="0.75" stroke-width="7.3" stroke-linecap="round" stroke-linejoin="round"/>
</svg>
