<svg width="56" height="57" viewBox="0 0 56 57" fill="none" xmlns="http://www.w3.org/2000/svg">
<path d="M45.5 29.3087V24.7832H42V30.0332C42.0001 30.4973 42.1845 30.9423 42.5127 31.2705L47.25 36.0077V38.7832H8.75V36.0077L13.4872 31.2705C13.8155 30.9423 13.9999 30.4973 14 30.0332V23.0332C13.9951 20.5741 14.6393 18.1572 15.8674 16.0268C17.0955 13.8963 18.8641 12.1276 20.9946 10.8994C23.125 9.67122 25.5418 9.02698 28.001 9.03177C30.4601 9.03656 32.8744 9.69021 35 10.9267V7.01545C33.3342 6.27786 31.5624 5.80775 29.75 5.62245V2.0332H26.25V5.6207C21.9355 6.05983 17.9371 8.08316 15.0279 11.2994C12.1187 14.5157 10.5054 18.6964 10.5 23.0332V29.3087L5.76275 34.046C5.43454 34.3741 5.2501 34.8191 5.25 35.2832V40.5332C5.25 40.9973 5.43437 41.4425 5.76256 41.7706C6.09075 42.0988 6.53587 42.2832 7 42.2832H19.25V44.0332C19.25 46.3538 20.1719 48.5794 21.8128 50.2204C23.4538 51.8613 25.6794 52.7832 28 52.7832C30.3206 52.7832 32.5462 51.8613 34.1872 50.2204C35.8281 48.5794 36.75 46.3538 36.75 44.0332V42.2832H49C49.4641 42.2832 49.9092 42.0988 50.2374 41.7706C50.5656 41.4425 50.75 40.9973 50.75 40.5332V35.2832C50.7499 34.8191 50.5655 34.3741 50.2373 34.046L45.5 29.3087ZM33.25 44.0332C33.25 45.4256 32.6969 46.7609 31.7123 47.7455C30.7277 48.7301 29.3924 49.2832 28 49.2832C26.6076 49.2832 25.2723 48.7301 24.2877 47.7455C23.3031 46.7609 22.75 45.4256 22.75 44.0332V42.2832H33.25V44.0332Z" fill="#F86CA9"/>
<path d="M45.5 21.2832C49.366 21.2832 52.5 18.1492 52.5 14.2832C52.5 10.4172 49.366 7.2832 45.5 7.2832C41.634 7.2832 38.5 10.4172 38.5 14.2832C38.5 18.1492 41.634 21.2832 45.5 21.2832Z" fill="#F86CA9"/>
</svg>
