<svg width="55" height="45" viewBox="0 0 55 45" fill="none" xmlns="http://www.w3.org/2000/svg">
<path d="M3.46096 31.7139L51.3383 31.7139C52.3552 31.7139 53.1797 30.8894 53.1797 29.8724V4.09236C53.1797 3.07536 52.3552 2.25092 51.3383 2.25092L3.46096 2.25092C2.44397 2.25092 1.61953 3.07536 1.61953 4.09236V29.8724C1.61953 30.8894 2.44397 31.7139 3.46096 31.7139Z" stroke="#4B00D4" stroke-width="3" stroke-linejoin="round"/>
<path d="M5.30249 37.2374H49.4969" stroke="#4B00D4" stroke-width="3" stroke-linecap="round" stroke-linejoin="round"/>
<path d="M8.98535 42.7617H45.814" stroke="#4B00D4" stroke-width="3" stroke-linecap="round" stroke-linejoin="round"/>
<path d="M27.3998 26.1898C32.4848 26.1898 36.607 22.0676 36.607 16.9826C36.607 11.8976 32.4848 7.77545 27.3998 7.77545C22.3148 7.77545 18.1926 11.8976 18.1926 16.9826C18.1926 22.0676 22.3148 26.1898 27.3998 26.1898Z" stroke="#4B00D4" stroke-width="3" stroke-linecap="round" stroke-linejoin="round"/>
<path d="M53.1798 11.4578C50.7379 11.4578 48.3961 10.4877 46.6694 8.76106C44.9427 7.03438 43.9727 4.6925 43.9727 2.25061" stroke="#4B00D4" stroke-width="3" stroke-linecap="round" stroke-linejoin="round"/>
<path d="M1.61963 11.4577C2.82873 11.4577 4.026 11.2195 5.14306 10.7568C6.26013 10.2941 7.27512 9.61591 8.13008 8.76094C8.98505 7.90598 9.66324 6.89099 10.1259 5.77392C10.5886 4.65686 10.8268 3.45959 10.8268 2.25049" stroke="#4B00D4" stroke-width="3" stroke-linecap="round" stroke-linejoin="round"/>
<path d="M53.1798 22.5061C50.7379 22.5061 48.3961 23.4761 46.6694 25.2028C44.9427 26.9295 43.9727 29.2714 43.9727 31.7133" stroke="#4B00D4" stroke-width="3" stroke-linecap="round" stroke-linejoin="round"/>
<path d="M1.61963 22.5061C2.82873 22.5061 4.026 22.7443 5.14306 23.207C6.26013 23.6697 7.27512 24.3479 8.13008 25.2028C8.98505 26.0578 9.66324 27.0728 10.1259 28.1898C10.5886 29.3069 10.8268 30.5042 10.8268 31.7133" stroke="#4B00D4" stroke-width="3" stroke-linecap="round" stroke-linejoin="round"/>
</svg>
