<svg width="59" height="58" viewBox="0 0 59 58" fill="none" xmlns="http://www.w3.org/2000/svg">
<path d="M39.957 16.9902C41.4586 16.9902 42.6758 15.794 42.6758 14.3184C42.6758 12.8427 41.4586 11.6465 39.957 11.6465C38.4555 11.6465 37.2383 12.8427 37.2383 14.3184C37.2383 15.794 38.4555 16.9902 39.957 16.9902Z" fill="#19D1AF"/>
<path d="M27.1137 36.584H17.3008V26.9403L28.2302 16.1994C28.1946 15.8704 28.1764 15.5398 28.1758 15.209C28.1758 13.0952 28.8136 11.0289 30.0086 9.27133C31.2035 7.51378 32.902 6.14394 34.8891 5.33503C36.8762 4.52612 39.0628 4.31447 41.1724 4.72685C43.2819 5.13923 45.2197 6.15711 46.7406 7.65179C48.2615 9.14646 49.2972 11.0508 49.7168 13.124C50.1364 15.1971 49.9211 17.346 49.098 19.2989C48.2749 21.2518 46.881 22.921 45.0926 24.0953C43.3042 25.2697 41.2017 25.8965 39.0508 25.8965C38.7141 25.8959 38.3778 25.878 38.043 25.8431L27.1137 36.584ZM20.9258 33.0215H25.6129L36.796 22.0312L37.7349 22.2004C38.1684 22.2849 38.6089 22.3296 39.0508 22.334C40.5667 22.3523 42.0513 21.9089 43.3005 21.0647C44.5497 20.2205 45.5023 19.0168 46.0274 17.6191C46.5525 16.2214 46.6243 14.6982 46.2331 13.2587C45.8418 11.8193 45.0066 10.5342 43.8423 9.57998C42.6779 8.62578 41.2415 8.04928 39.7303 7.92969C38.2191 7.81009 36.7074 8.15326 35.4026 8.91206C34.0979 9.67086 33.0642 10.8081 32.4437 12.1674C31.8231 13.5268 31.646 15.0417 31.9367 16.504L32.1089 17.4249L20.9258 28.4152V33.0215ZM51.7383 36.584H35.4258V40.1465H51.7383V50.834H8.23828V40.1465H11.8633V36.584H8.23828C7.27717 36.5849 6.35569 36.9606 5.67608 37.6285C4.99647 38.2964 4.61424 39.2019 4.61328 40.1465V50.834C4.61424 51.7785 4.99647 52.6841 5.67608 53.352C6.35569 54.0199 7.27717 54.3955 8.23828 54.3965H51.7383C52.6994 54.3955 53.6209 54.0199 54.3005 53.352C54.9801 52.6841 55.3623 51.7785 55.3633 50.834V40.1465C55.3623 39.2019 54.9801 38.2964 54.3005 37.6285C53.6209 36.9606 52.6994 36.5849 51.7383 36.584Z" fill="#19D1AF"/>
<path d="M13.6758 47.2715C14.6768 47.2715 15.4883 46.474 15.4883 45.4902C15.4883 44.5065 14.6768 43.709 13.6758 43.709C12.6748 43.709 11.8633 44.5065 11.8633 45.4902C11.8633 46.474 12.6748 47.2715 13.6758 47.2715Z" fill="#19D1AF"/>
</svg>
