<svg width="50" height="43" viewBox="0 0 50 43" fill="none" xmlns="http://www.w3.org/2000/svg">
<path fill-rule="evenodd" clip-rule="evenodd" d="M9.48828 0.719727H5.98828V18.2197H9.48828V0.719727ZM30.8383 18.2197H19.6383L18.2383 16.2947V12.7947L19.6383 11.2197H30.8383L32.2383 12.9697V16.4697L30.8383 18.2197ZM13.3383 28.7197H2.13828L0.738281 26.9697V23.4697L2.13828 21.7197H13.3383L14.7383 23.4697V26.9697L13.3383 28.7197ZM26.9883 0.719727H23.4883V7.71973H26.9883V0.719727ZM23.4883 21.7197H26.9883V42.7197H23.4883V21.7197ZM9.48828 32.2197H5.98828V42.7197H9.48828V32.2197ZM37.1383 32.2197H48.3033L49.7033 30.4697V27.1447L48.3033 25.3947H37.1383L35.7383 27.1447V30.4697L37.1383 32.2197ZM44.4883 0.719727H40.9883V21.7197H44.4883V0.719727ZM40.9883 35.7197H44.4883V42.7197H40.9883V35.7197Z" fill="#1B2559"/>
</svg>
