<svg width="25" height="25" viewBox="0 0 25 25" fill="none" xmlns="http://www.w3.org/2000/svg">
<path d="M19.7021 13.3321V11.3926H18.2021V13.6426C18.2022 13.8415 18.2812 14.0322 18.4219 14.1728L20.4521 16.2031V17.3926H3.95215V16.2031L5.9824 14.1728C6.12306 14.0322 6.20211 13.8415 6.20215 13.6426V10.6426C6.20006 9.58867 6.47612 8.55288 7.00246 7.63982C7.5288 6.72675 8.28678 5.96875 9.19982 5.44238C10.1129 4.91601 11.1487 4.63991 12.2026 4.64196C13.2565 4.64402 14.2912 4.92415 15.2021 5.45408V3.77783C14.4882 3.46172 13.7289 3.26024 12.9521 3.18083V1.64258H11.4521V3.18008C9.60308 3.36828 7.88947 4.23542 6.64268 5.61381C5.39588 6.99221 4.70447 8.78396 4.70215 10.6426V13.3321L2.6719 15.3623C2.53124 15.5029 2.45219 15.6937 2.45215 15.8926V18.1426C2.45215 18.3415 2.53117 18.5323 2.67182 18.6729C2.81247 18.8136 3.00324 18.8926 3.20215 18.8926H8.45215V19.6426C8.45215 20.6371 8.84724 21.591 9.5505 22.2942C10.2538 22.9975 11.2076 23.3926 12.2021 23.3926C13.1967 23.3926 14.1505 22.9975 14.8538 22.2942C15.5571 21.591 15.9521 20.6371 15.9521 19.6426V18.8926H21.2021C21.4011 18.8926 21.5918 18.8136 21.7325 18.6729C21.8731 18.5323 21.9521 18.3415 21.9521 18.1426V15.8926C21.9521 15.6937 21.8731 15.5029 21.7324 15.3623L19.7021 13.3321ZM14.4521 19.6426C14.4521 20.2393 14.2151 20.8116 13.7931 21.2336C13.3712 21.6555 12.7989 21.8926 12.2021 21.8926C11.6054 21.8926 11.0331 21.6555 10.6112 21.2336C10.1892 20.8116 9.95215 20.2393 9.95215 19.6426V18.8926H14.4521V19.6426Z" fill="#1B2559"/>
<path d="M19.7021 9.89258C21.359 9.89258 22.7021 8.54943 22.7021 6.89258C22.7021 5.23572 21.359 3.89258 19.7021 3.89258C18.0453 3.89258 16.7021 5.23572 16.7021 6.89258C16.7021 8.54943 18.0453 9.89258 19.7021 9.89258Z" fill="#1B2559"/>
</svg>
