<svg width="29" height="26" viewBox="0 0 29 26" fill="none" xmlns="http://www.w3.org/2000/svg">
<path fill-rule="evenodd" clip-rule="evenodd" d="M5.18758 0.892578H3.14087V11.1261H5.18758V0.892578ZM17.6725 11.1261H11.123L10.3044 10.0004V7.95373L11.123 7.03271H17.6725L18.4912 8.05607V10.1028L17.6725 11.1261ZM7.43897 17.2663H0.889486L0.0708008 16.2429V14.1962L0.889486 13.1729H7.43897L8.25765 14.1962V16.2429L7.43897 17.2663ZM15.4211 0.892578H13.3744V4.986H15.4211V0.892578ZM13.3744 13.1729H15.4211V25.4531H13.3744V13.1729ZM5.18758 19.313H3.14087V25.4531H5.18758V19.313ZM21.3566 19.313H27.8856L28.7043 18.2896V16.3453L27.8856 15.3219H21.3566L20.5379 16.3453V18.2896L21.3566 19.313ZM25.6547 0.892578H23.608V13.1729H25.6547V0.892578ZM23.608 21.3597H25.6547V25.4531H23.608V21.3597Z" fill="#1B2559"/>
</svg>
