<svg width="27" height="26" viewBox="0 0 27 26" fill="none" xmlns="http://www.w3.org/2000/svg">
<path d="M18.1843 7.7041C18.8574 7.7041 19.4031 7.17944 19.4031 6.53223C19.4031 5.88502 18.8574 5.36035 18.1843 5.36035C17.5112 5.36035 16.9656 5.88502 16.9656 6.53223C16.9656 7.17944 17.5112 7.7041 18.1843 7.7041Z" fill="#1B2559"/>
<path d="M12.427 16.2979H8.02808V12.0682L12.9275 7.35723C12.9115 7.21294 12.9034 7.06795 12.9031 6.92285C12.9031 5.99575 13.189 5.08947 13.7247 4.31862C14.2603 3.54776 15.0217 2.94695 15.9125 2.59217C16.8033 2.23738 17.7835 2.14455 18.7291 2.32542C19.6748 2.50629 20.5434 2.95273 21.2252 3.60829C21.907 4.26385 22.3713 5.09908 22.5594 6.00837C22.7475 6.91765 22.651 7.86015 22.282 8.71668C21.913 9.57321 21.2882 10.3053 20.4865 10.8204C19.6848 11.3354 18.7423 11.6104 17.7781 11.6104C17.6272 11.6101 17.4764 11.6023 17.3263 11.5869L12.427 16.2979ZM9.65308 14.7354H11.7542L16.7673 9.91504L17.1882 9.98926C17.3825 10.0263 17.58 10.0459 17.7781 10.0479C18.4576 10.0559 19.1231 9.86142 19.6831 9.49114C20.2431 9.12086 20.6701 8.59295 20.9055 7.97992C21.1409 7.36689 21.1731 6.69882 20.9977 6.06748C20.8223 5.43614 20.4479 4.8725 19.926 4.45399C19.404 4.03548 18.7601 3.78263 18.0827 3.73018C17.4053 3.67772 16.7276 3.82824 16.1427 4.16104C15.5578 4.49385 15.0945 4.99262 14.8163 5.58884C14.5381 6.18506 14.4587 6.84947 14.589 7.49082L14.6662 7.89473L9.65308 12.715V14.7354ZM23.4656 16.2979H16.1531V17.8604H23.4656V22.5479H3.96558V17.8604H5.59058V16.2979H3.96558C3.53473 16.2983 3.12166 16.463 2.817 16.756C2.51235 17.0489 2.34101 17.4461 2.34058 17.8604V22.5479C2.34101 22.9621 2.51235 23.3593 2.817 23.6523C3.12166 23.9452 3.53473 24.1099 3.96558 24.1104H23.4656C23.8964 24.1099 24.3095 23.9452 24.6142 23.6523C24.9188 23.3593 25.0901 22.9621 25.0906 22.5479V17.8604C25.0901 17.4461 24.9188 17.0489 24.6142 16.756C24.3095 16.463 23.8964 16.2983 23.4656 16.2979Z" fill="#1B2559"/>
<path d="M6.40308 20.9854C6.85181 20.9854 7.21558 20.6356 7.21558 20.2041C7.21558 19.7726 6.85181 19.4229 6.40308 19.4229C5.95434 19.4229 5.59058 19.7726 5.59058 20.2041C5.59058 20.6356 5.95434 20.9854 6.40308 20.9854Z" fill="#1B2559"/>
</svg>
