<svg width="48" height="49" viewBox="0 0 48 49" fill="none" xmlns="http://www.w3.org/2000/svg">
<path d="M2.66667 21.9027H18.6667C19.3739 21.9027 20.0522 21.6217 20.5523 21.1216C21.0524 20.6215 21.3333 19.9432 21.3333 19.236V3.236C21.3333 2.52876 21.0524 1.85048 20.5523 1.35038C20.0522 0.850287 19.3739 0.569336 18.6667 0.569336H2.66667C1.95942 0.569336 1.28115 0.850287 0.781048 1.35038C0.280951 1.85048 0 2.52876 0 3.236V19.236C0 19.9432 0.280951 20.6215 0.781048 21.1216C1.28115 21.6217 1.95942 21.9027 2.66667 21.9027ZM5.33333 5.90267H16V16.5693H5.33333V5.90267ZM45.3333 0.569336H29.3333C28.6261 0.569336 27.9478 0.850287 27.4477 1.35038C26.9476 1.85048 26.6667 2.52876 26.6667 3.236V19.236C26.6667 19.9432 26.9476 20.6215 27.4477 21.1216C27.9478 21.6217 28.6261 21.9027 29.3333 21.9027H45.3333C46.0406 21.9027 46.7189 21.6217 47.219 21.1216C47.7191 20.6215 48 19.9432 48 19.236V3.236C48 2.52876 47.7191 1.85048 47.219 1.35038C46.7189 0.850287 46.0406 0.569336 45.3333 0.569336ZM42.6667 16.5693H32V5.90267H42.6667V16.5693ZM18.6667 48.5693C19.3739 48.5693 20.0522 48.2884 20.5523 47.7883C21.0524 47.2882 21.3333 46.6099 21.3333 45.9027V29.9027C21.3333 29.1954 21.0524 28.5171 20.5523 28.0171C20.0522 27.517 19.3739 27.236 18.6667 27.236H2.66667C1.95942 27.236 1.28115 27.517 0.781048 28.0171C0.280951 28.5171 0 29.1954 0 29.9027V45.9027C0 46.6099 0.280951 47.2882 0.781048 47.7883C1.28115 48.2884 1.95942 48.5693 2.66667 48.5693H18.6667ZM5.33333 32.5693H16V43.236H5.33333V32.5693ZM40 29.9027H34.6667V35.236H29.3333V40.5693H34.6667V45.9027H40V40.5693H45.3333V35.236H40V29.9027Z" fill="#FDA600"/>
</svg>
