<svg width="56" height="44" viewBox="0 0 56 44" fill="none" xmlns="http://www.w3.org/2000/svg">
<path d="M3.8121 31.1396L51.6894 31.1396C52.7064 31.1396 53.5308 30.3152 53.5308 29.2982V3.51814C53.5308 2.50114 52.7064 1.6767 51.6894 1.6767L3.8121 1.6767C2.7951 1.6767 1.97066 2.50114 1.97066 3.51814V29.2982C1.97066 30.3152 2.7951 31.1396 3.8121 31.1396Z" stroke="#FDA600" stroke-width="3" stroke-linejoin="round"/>
<path d="M5.65356 36.6631H49.848" stroke="#FDA600" stroke-width="3" stroke-linecap="round" stroke-linejoin="round"/>
<path d="M9.33649 42.1875H46.1652" stroke="#FDA600" stroke-width="3" stroke-linecap="round" stroke-linejoin="round"/>
<path d="M27.7509 25.6155C32.8359 25.6155 36.958 21.4933 36.958 16.4083C36.958 11.3234 32.8359 7.20117 27.7509 7.20117C22.6659 7.20117 18.5437 11.3234 18.5437 16.4083C18.5437 21.4933 22.6659 25.6155 27.7509 25.6155Z" stroke="#FDA600" stroke-width="3" stroke-linecap="round" stroke-linejoin="round"/>
<path d="M53.531 10.8834C51.0891 10.8834 48.7472 9.9134 47.0205 8.18672C45.2938 6.46004 44.3238 4.11816 44.3238 1.67627" stroke="#FDA600" stroke-width="3" stroke-linecap="round" stroke-linejoin="round"/>
<path d="M1.97083 10.8834C3.17993 10.8834 4.37719 10.6453 5.49426 10.1826C6.61132 9.71988 7.62631 9.04169 8.48128 8.18672C9.33624 7.33176 10.0144 6.31677 10.4771 5.1997C10.9398 4.08264 11.178 2.88537 11.178 1.67627" stroke="#FDA600" stroke-width="3" stroke-linecap="round" stroke-linejoin="round"/>
<path d="M53.531 21.9321C51.0891 21.9321 48.7472 22.9022 47.0205 24.6288C45.2938 26.3555 44.3238 28.6974 44.3238 31.1393" stroke="#FDA600" stroke-width="3" stroke-linecap="round" stroke-linejoin="round"/>
<path d="M1.97076 21.9321C3.17987 21.9321 4.37713 22.1703 5.4942 22.633C6.61126 23.0957 7.62625 23.7739 8.48122 24.6288C9.33618 25.4838 10.0144 26.4988 10.4771 27.6159C10.9398 28.7329 11.1779 29.9302 11.1779 31.1393" stroke="#FDA600" stroke-width="3" stroke-linecap="round" stroke-linejoin="round"/>
</svg>
