<svg width="22" height="22" viewBox="0 0 22 22" fill="none" xmlns="http://www.w3.org/2000/svg">
<path d="M9.35639 1.66119C9.85139 0.658186 11.2824 0.658186 11.7774 1.66119L14.1354 6.43919L19.4084 7.20519C20.5154 7.36519 20.9574 8.72719 20.1564 9.50819L19.2514 10.3902C18.7739 10.1214 18.2641 9.91437 17.7344 9.77419L18.8914 8.64619L13.8414 7.91219C13.6248 7.88059 13.4192 7.79681 13.2422 7.66808C13.0652 7.53934 12.9222 7.3695 12.8254 7.17319L10.5664 2.59919L8.30839 7.17319C8.21163 7.3695 8.06859 7.53934 7.89159 7.66808C7.7146 7.79681 7.50896 7.88059 7.29239 7.91219L2.24239 8.64619L5.89639 12.2082C6.21439 12.5182 6.35939 12.9652 6.28439 13.4032L5.42239 18.4322L9.57139 16.2512C9.58639 16.7932 9.66939 17.3182 9.80939 17.8202L5.85139 19.9012C4.86139 20.4212 3.70339 19.5812 3.89139 18.4782L4.79239 13.2272L0.977391 9.50719C0.176391 8.72719 0.618391 7.36619 1.72539 7.20519L6.99839 6.43919L9.35639 1.66119ZM21.5684 16.0592C21.5684 17.5179 20.9889 18.9168 19.9575 19.9483C18.926 20.9797 17.5271 21.5592 16.0684 21.5592C14.6097 21.5592 13.2108 20.9797 12.1793 19.9483C11.1479 18.9168 10.5684 17.5179 10.5684 16.0592C10.5684 14.6005 11.1479 13.2015 12.1793 12.1701C13.2108 11.1386 14.6097 10.5592 16.0684 10.5592C17.5271 10.5592 18.926 11.1386 19.9575 12.1701C20.9889 13.2015 21.5684 14.6005 21.5684 16.0592ZM13.0684 15.5592C12.9358 15.5592 12.8086 15.6119 12.7148 15.7056C12.6211 15.7994 12.5684 15.9266 12.5684 16.0592C12.5684 16.1918 12.6211 16.319 12.7148 16.4127C12.8086 16.5065 12.9358 16.5592 13.0684 16.5592H17.8614L16.2144 18.2052C16.1206 18.2991 16.068 18.4264 16.0681 18.559C16.0682 18.6917 16.121 18.8189 16.2149 18.9127C16.3088 19.0064 16.4361 19.0591 16.5687 19.059C16.7014 19.0589 16.8286 19.0061 16.9224 18.9122L19.4224 16.4122C19.5161 16.3184 19.5688 16.1913 19.5688 16.0587C19.5688 15.9261 19.5161 15.799 19.4224 15.7052L16.9224 13.2052C16.8286 13.1113 16.7014 13.0585 16.5687 13.0584C16.4361 13.0583 16.3088 13.1109 16.2149 13.2047C16.121 13.2984 16.0682 13.4257 16.0681 13.5583C16.068 13.691 16.1206 13.8183 16.2144 13.9122L17.8614 15.5592H13.0684Z" fill="#1B2559"/>
</svg>
