<svg width="53" height="53" viewBox="0 0 53 53" fill="none" xmlns="http://www.w3.org/2000/svg">
<path d="M47.5938 39.3206H46.366V38.0928C46.366 37.6522 46.191 37.2297 45.8795 36.9182C45.568 36.6067 45.1455 36.4317 44.7049 36.4317H40.5883V25.7861H34.8105V36.4317H29.0327V25.7861H23.2549V36.4317H17.4772V25.7861H11.6994V36.4317H7.58272C7.14216 36.4317 6.71965 36.6067 6.40813 36.9182C6.09661 37.2297 5.9216 37.6522 5.9216 38.0928V39.3206H4.69383C4.25327 39.3206 3.83076 39.4956 3.51924 39.8071C3.20772 40.1186 3.03271 40.5411 3.03271 40.9817V45.0984H49.2549V40.9817C49.2549 40.5411 49.0799 40.1186 48.7684 39.8071C48.4569 39.4956 48.0344 39.3206 47.5938 39.3206Z" fill="#4B00D4"/>
<path d="M43.4776 19.8203C41.9481 19.8271 40.4347 19.5087 39.0376 18.8861C37.6406 18.2635 36.3919 17.3511 35.3743 16.2092H32.1387L26.5054 12.9736L20.872 16.2092H16.2354L25.942 10.6336C26.1177 10.5322 26.317 10.4788 26.5198 10.4788C26.7227 10.4788 26.9219 10.5322 27.0976 10.6336L34.3198 14.7792C33.2207 13.0476 32.6394 11.0379 32.6443 8.98697V8.29364L26.1443 4.53809L3.75538 17.4081C3.58276 17.4984 3.43019 17.6227 3.30685 17.7735C3.18351 17.9243 3.09195 18.0984 3.03767 18.2855C2.98339 18.4726 2.96752 18.6688 2.99101 18.8622C3.0145 19.0555 3.07687 19.2422 3.17436 19.4108C3.27185 19.5795 3.40245 19.7267 3.55831 19.8436C3.71416 19.9605 3.89205 20.0446 4.08126 20.091C4.27048 20.1373 4.46712 20.1449 4.65935 20.1133C4.85157 20.0817 5.03542 20.0115 5.19982 19.907L7.36649 18.6359V23.4314H44.922V19.7048C44.4437 19.7753 43.9611 19.8139 43.4776 19.8203Z" fill="#4B00D4"/>
<path d="M46.2798 19.4451L47.0887 19.9074C47.3432 20.0514 47.6354 20.1148 47.9268 20.0891C48.2181 20.0634 48.4947 19.95 48.7202 19.7637C48.9456 19.5774 49.1092 19.327 49.1892 19.0458C49.2693 18.7645 49.2622 18.4656 49.1687 18.1885C48.2726 18.7468 47.2992 19.1702 46.2798 19.4451Z" fill="#4B00D4"/>
<path d="M43.4776 16.2091C47.4663 16.2091 50.6998 12.9756 50.6998 8.98687C50.6998 4.99815 47.4663 1.76465 43.4776 1.76465C39.4889 1.76465 36.2554 4.99815 36.2554 8.98687C36.2554 12.9756 39.4889 16.2091 43.4776 16.2091Z" fill="#4B00D4"/>
</svg>
