<svg width="46" height="35" viewBox="0 0 46 35" fill="none" xmlns="http://www.w3.org/2000/svg">
<path d="M41.9283 0.661621H3.96858C2.96182 0.661621 1.9963 1.06155 1.28442 1.77343C0.572538 2.48532 0.172607 3.45084 0.172607 4.45759V12.0495C0.172607 13.0563 0.572538 14.0218 1.28442 14.7337C1.9963 15.4456 2.96182 15.8455 3.96858 15.8455H21.0504V27.5561L16.1347 22.6593L13.4585 25.3354L22.9484 34.8253L32.4383 25.3354L29.7622 22.6593L24.8464 27.5561V15.8455H41.9283C42.935 15.8455 43.9005 15.4456 44.6124 14.7337C45.3243 14.0218 45.7242 13.0563 45.7242 12.0495V4.45759C45.7242 3.45084 45.3243 2.48532 44.6124 1.77343C43.9005 1.06155 42.935 0.661621 41.9283 0.661621ZM3.96858 4.45759H11.5605V12.0495H3.96858V4.45759ZM41.9283 12.0495H15.3565V4.45759H41.9283V12.0495Z" fill="#1B2559"/>
</svg>
