<svg width="25" height="24" viewBox="0 0 25 24" fill="none" xmlns="http://www.w3.org/2000/svg">
<path d="M18.8577 7.57643L18.858 7.57643C19.1098 7.57485 19.3586 7.6383 19.5826 7.76164C19.8067 7.885 19.9995 8.06467 20.144 8.28557C20.2885 8.50649 20.3801 8.76178 20.4106 9.02934C20.441 9.29691 20.4093 9.5682 20.3182 9.81959C20.2272 10.071 20.0798 10.2945 19.8893 10.471C19.6988 10.6475 19.471 10.7718 19.2257 10.8335C18.9805 10.8953 18.7249 10.8928 18.4808 10.8262C18.2366 10.7597 18.011 10.631 17.8235 10.4508L17.7542 10.3841L17.6849 10.4508C17.4617 10.6654 17.1852 10.8062 16.889 10.857C16.5929 10.9077 16.289 10.8665 16.0142 10.7378C15.7393 10.6091 15.5048 10.3983 15.3398 10.1301C15.1748 9.86192 15.0866 9.54824 15.0866 9.22725C15.0866 8.90627 15.1748 8.59258 15.3398 8.32437C15.5048 8.05621 15.7393 7.84539 16.0142 7.7167C16.289 7.58805 16.5929 7.54677 16.889 7.59752C17.1852 7.64829 17.4617 7.7891 17.6849 8.00372L17.7544 8.07056L17.8237 8.00354C18.1072 7.72947 18.4759 7.5778 18.8577 7.57643ZM2.86229 15.5469H2.76229V15.6469V20.3158C2.76229 20.6501 2.88775 20.9718 3.1127 21.2098C3.33784 21.448 3.64443 21.583 3.96539 21.583H14.9965C15.3174 21.583 15.624 21.448 15.8492 21.2098C16.0741 20.9718 16.1996 20.6501 16.1996 20.3158V19.1486C16.1996 18.8638 16.3065 18.5917 16.4953 18.3919C16.684 18.1923 16.9385 18.0814 17.2027 18.0814C17.4668 18.0814 17.7214 18.1923 17.91 18.3919C18.0988 18.5917 18.2058 18.8638 18.2058 19.1486V20.3158C18.2058 21.2197 17.8664 22.0856 17.2638 22.7231C16.6615 23.3605 15.8457 23.7174 14.9965 23.7174H3.96539C3.11611 23.7174 2.30039 23.3605 1.69803 22.7231C1.09549 22.0856 0.756075 21.2197 0.756075 20.3158V12.1453C0.756075 11.2414 1.09549 10.3755 1.69803 9.73794C2.30039 9.10058 3.11611 8.74365 3.96539 8.74365C4.22955 8.74365 4.48412 8.85463 4.67273 9.0542C4.86152 9.25397 4.9685 9.52605 4.9685 9.81086C4.9685 10.0957 4.86152 10.3678 4.67273 10.5675C4.48412 10.7671 4.22955 10.8781 3.96539 10.8781C3.64443 10.8781 3.33784 11.013 3.1127 11.2513C2.88775 11.4893 2.76229 11.811 2.76229 12.1453V13.3125V13.4125H2.86229H3.96539C4.22955 13.4125 4.48412 13.5235 4.67273 13.7231C4.86152 13.9228 4.9685 14.1949 4.9685 14.4797C4.9685 14.7645 4.86152 15.0366 4.67273 15.2364C4.48412 15.436 4.22955 15.5469 3.96539 15.5469H2.86229ZM10.584 0.573145H21.6151C22.4644 0.573145 23.2801 0.930076 23.8825 1.56744C24.485 2.20499 24.8244 3.07085 24.8244 3.97479V12.1453C24.8244 13.0492 24.485 13.9151 23.8825 14.5526C23.2801 15.19 22.4644 15.5469 21.6151 15.5469H10.584C9.73475 15.5469 8.91903 15.19 8.31667 14.5526C7.71413 13.9151 7.37471 13.0492 7.37471 12.1453V3.97479C7.37471 3.07085 7.71413 2.20499 8.31667 1.56744C8.91903 0.930076 9.73475 0.573145 10.584 0.573145ZM22.4678 13.0393C22.6927 12.8013 22.8182 12.4796 22.8182 12.1453V3.97479C22.8182 3.64047 22.6927 3.31878 22.4678 3.08076C22.2427 2.84254 21.9361 2.70757 21.6151 2.70757H10.584C10.2631 2.70757 9.95648 2.84254 9.73134 3.08076C9.50639 3.31878 9.38093 3.64047 9.38093 3.97479V12.1453C9.38093 12.4796 9.50639 12.8013 9.73134 13.0393C9.95648 13.2775 10.2631 13.4125 10.584 13.4125H21.6151C21.9361 13.4125 22.2427 13.2775 22.4678 13.0393ZM7.27471 19.0486H6.17161C5.90745 19.0486 5.65288 18.9376 5.46427 18.738C5.27548 18.5383 5.1685 18.2662 5.1685 17.9814C5.1685 17.6966 5.27548 17.4245 5.46427 17.2247C5.65288 17.0251 5.90745 16.9142 6.17161 16.9142H7.27471C7.53887 16.9142 7.79344 17.0251 7.98205 17.2247C8.17084 17.4245 8.27782 17.6966 8.27782 17.9814C8.27782 18.2662 8.17084 18.5383 7.98205 18.738C7.79344 18.9376 7.53887 19.0486 7.27471 19.0486Z" fill="#4B00D4" stroke="white" stroke-width="0.2"/>
</svg>
