<svg width="53" height="52" viewBox="0 0 53 52" fill="none" xmlns="http://www.w3.org/2000/svg">
<path d="M39.7157 16.2934L39.717 16.2934C40.2131 16.2903 40.7038 16.4152 41.1469 16.6591C41.5901 16.9031 41.9734 17.2595 42.2614 17.6999C42.5495 18.1404 42.733 18.6506 42.7939 19.1865L43.2907 19.13L42.7939 19.1865C42.8549 19.7224 42.7912 20.2656 42.6092 20.7683C42.4272 21.2709 42.133 21.7162 41.7547 22.0668C41.3765 22.4172 40.9256 22.6626 40.442 22.7844C39.9586 22.9061 39.4548 22.9012 38.9734 22.77C38.4919 22.6388 38.0452 22.3846 37.673 22.0266L37.3264 21.6933L36.9798 22.0266C36.5366 22.4528 35.9893 22.7306 35.4058 22.8306C34.8224 22.9306 34.2234 22.8495 33.6806 22.5954C33.1374 22.3411 32.6713 21.9232 32.3422 21.3884C32.013 20.8533 31.8363 20.226 31.8363 19.5828C31.8363 18.9396 32.013 18.3123 32.3422 17.7773C32.6713 17.2424 33.1374 16.8245 33.6806 16.5702C34.2234 16.3161 34.8224 16.235 35.4058 16.335C35.9893 16.435 36.5366 16.7128 36.9798 17.139L37.3273 17.4732L37.6739 17.1381C38.2364 16.5943 38.9647 16.2961 39.7157 16.2934ZM5.09481 32.9773H4.59481V33.4773V43.5824C4.59481 44.3762 4.89256 45.1428 5.43071 45.7122C5.96976 46.2826 6.70711 46.6087 7.48233 46.6087H31.3576C32.1328 46.6087 32.8701 46.2826 33.4092 45.7122C33.9473 45.1428 34.2451 44.3762 34.2451 43.5824V41.0562C34.2451 40.5099 34.4504 39.9914 34.8078 39.6132C35.1642 39.2361 35.6414 39.0299 36.1326 39.0299C36.6238 39.0299 37.101 39.2361 37.4574 39.6132C37.8148 39.9913 38.0201 40.5099 38.0201 41.0562V43.5824C38.0201 45.4687 37.3117 47.2724 36.0589 48.598C34.8069 49.9227 33.1152 50.6613 31.3576 50.6613H7.48233C5.72471 50.6613 4.03296 49.9227 2.78102 48.598C1.52818 47.2724 0.819763 45.4687 0.819763 43.5824V25.8985C0.819763 24.0122 1.52818 22.2085 2.78102 20.8829C4.03296 19.5582 5.72471 18.8197 7.48233 18.8197C7.97353 18.8197 8.45073 19.0259 8.80717 19.403C9.16452 19.7811 9.36985 20.2997 9.36985 20.8459C9.36985 21.3922 9.16452 21.9107 8.80717 22.2889C8.45073 22.666 7.97353 22.8722 7.48233 22.8722C6.70711 22.8722 5.96976 23.1983 5.43071 23.7687C4.89256 24.3381 4.59481 25.1047 4.59481 25.8985V28.4248V28.9248H5.09481H7.48233C7.97353 28.9248 8.45073 29.131 8.80717 29.5081C9.16452 29.8862 9.36985 30.4048 9.36985 30.951C9.36985 31.4973 9.16452 32.0159 8.80717 32.394C8.45073 32.7711 7.97353 32.9773 7.48233 32.9773H5.09481ZM21.8075 1.13574H45.6827C47.4403 1.13574 49.1321 1.87427 50.384 3.19896C51.6368 4.52461 52.3453 6.32832 52.3453 8.21457V25.8985C52.3453 27.7847 51.6368 29.5885 50.384 30.9141C49.1321 32.2388 47.4403 32.9773 45.6827 32.9773H21.8075C20.0499 32.9773 18.3581 32.2388 17.1062 30.9141C15.8533 29.5885 15.1449 27.7847 15.1449 25.8985V8.21457C15.1449 6.32832 15.8533 4.52461 17.1062 3.19896C18.3581 1.87427 20.0499 1.13574 21.8075 1.13574ZM47.7343 28.0283C48.2725 27.4589 48.5702 26.6923 48.5702 25.8985V8.21457C48.5702 7.42078 48.2725 6.65421 47.7343 6.08479C47.1953 5.51441 46.4579 5.18829 45.6827 5.18829H21.8075C21.0322 5.18829 20.2949 5.51441 19.7558 6.08479C19.2177 6.65421 18.9199 7.42078 18.9199 8.21457V25.8985C18.9199 26.6923 19.2177 27.4589 19.7558 28.0283C20.2949 28.5987 21.0322 28.9248 21.8075 28.9248H45.6827C46.4579 28.9248 47.1953 28.5987 47.7343 28.0283ZM14.6449 40.5562H12.2574C11.7662 40.5562 11.289 40.3499 10.9325 39.9728C10.5752 39.5947 10.3699 39.0761 10.3699 38.5299C10.3699 37.9836 10.5752 37.4651 10.9325 37.087C11.289 36.7098 11.7662 36.5036 12.2574 36.5036H14.6449C15.1361 36.5036 15.6133 36.7098 15.9697 37.087C16.3271 37.4651 16.5324 37.9836 16.5324 38.5299C16.5324 39.0761 16.3271 39.5947 15.9697 39.9728C15.6133 40.3499 15.1361 40.5562 14.6449 40.5562Z" fill="#4B00D4" stroke="#EDE5FB"/>
</svg>
