<svg width="17" height="21" viewBox="0 0 17 21" fill="none" xmlns="http://www.w3.org/2000/svg">
<path d="M9.55424 5.17281C9.45914 5.08177 9.34699 5.01041 9.22424 4.96281C8.98078 4.86279 8.7077 4.86279 8.46424 4.96281C8.34149 5.01041 8.22934 5.08177 8.13424 5.17281L4.13424 9.17281C4.041 9.26605 3.96704 9.37674 3.91658 9.49856C3.86612 9.62039 3.84015 9.75095 3.84015 9.88281C3.84015 10.0147 3.86612 10.1452 3.91658 10.2671C3.96704 10.3889 4.041 10.4996 4.13424 10.5928C4.22748 10.6861 4.33817 10.76 4.45999 10.8105C4.58181 10.8609 4.71238 10.8869 4.84424 10.8869C4.9761 10.8869 5.10667 10.8609 5.22849 10.8105C5.35031 10.76 5.461 10.6861 5.55424 10.5928L7.84424 8.29281V19.8828C7.84424 20.148 7.9496 20.4024 8.13713 20.5899C8.32467 20.7775 8.57902 20.8828 8.84424 20.8828C9.10946 20.8828 9.36381 20.7775 9.55134 20.5899C9.73888 20.4024 9.84424 20.148 9.84424 19.8828V8.29281L12.1342 10.5928C12.2272 10.6865 12.3378 10.7609 12.4597 10.8117C12.5815 10.8625 12.7122 10.8886 12.8442 10.8886C12.9762 10.8886 13.107 10.8625 13.2288 10.8117C13.3507 10.7609 13.4613 10.6865 13.5542 10.5928C13.648 10.4998 13.7224 10.3892 13.7731 10.2674C13.8239 10.1455 13.85 10.0148 13.85 9.88281C13.85 9.7508 13.8239 9.6201 13.7731 9.49824C13.7224 9.37638 13.648 9.26578 13.5542 9.17281L9.55424 5.17281ZM15.8442 0.882812H1.84424C1.57902 0.882813 1.32467 0.988169 1.13713 1.17571C0.949595 1.36324 0.844238 1.6176 0.844238 1.88281C0.844238 2.14803 0.949595 2.40238 1.13713 2.58992C1.32467 2.77746 1.57902 2.88281 1.84424 2.88281H15.8442C16.1095 2.88281 16.3638 2.77746 16.5513 2.58992C16.7389 2.40238 16.8442 2.14803 16.8442 1.88281C16.8442 1.6176 16.7389 1.36324 16.5513 1.17571C16.3638 0.988169 16.1095 0.882813 15.8442 0.882812Z" fill="#4B00D4"/>
</svg>
