<svg width="21" height="21" viewBox="0 0 21 21" fill="none" xmlns="http://www.w3.org/2000/svg">
<path d="M19.7406 7.68164H14.7406L16.6006 5.82164C15.8537 4.84398 14.8912 4.05198 13.7881 3.50733C12.6849 2.96269 11.4709 2.68012 10.2406 2.68164C5.82059 2.68164 2.24059 6.26164 2.24059 10.6816C2.24059 12.5116 2.85059 14.1816 3.88059 15.5316C5.10058 14.1316 7.39059 13.1816 10.2406 13.1816C13.0906 13.1816 15.3906 14.1316 16.6006 15.5316C17.6674 14.1402 18.2441 12.435 18.2406 10.6816H20.2406C20.2406 16.1816 15.7406 20.6816 10.2406 20.6816C4.74059 20.6816 0.240585 16.1816 0.240585 10.6816C0.240585 5.18164 4.74059 0.681641 10.2406 0.681641C13.3806 0.681641 16.1906 2.13164 18.0206 4.40164L19.7406 2.68164V7.68164ZM10.2406 18.6816C12.1406 18.6816 13.8806 18.0216 15.2406 16.9216C14.6006 15.9116 12.6906 15.1816 10.2406 15.1816C7.79059 15.1816 5.88059 15.9116 5.24059 16.9216C6.60059 18.0216 8.34059 18.6816 10.2406 18.6816ZM10.2406 4.68164C12.1706 4.68164 13.7406 6.25164 13.7406 8.18164C13.7406 10.1116 12.1706 11.6816 10.2406 11.6816C8.31059 11.6816 6.74059 10.1116 6.74059 8.18164C6.74059 6.25164 8.31059 4.68164 10.2406 4.68164ZM10.2406 6.68164C9.41059 6.68164 8.74059 7.35164 8.74059 8.18164C8.74059 9.01164 9.41059 9.68164 10.2406 9.68164C11.0706 9.68164 11.7406 9.01164 11.7406 8.18164C11.7406 7.35164 11.0706 6.68164 10.2406 6.68164Z" fill="white"/>
</svg>
