<svg width="23" height="19" viewBox="0 0 23 19" fill="none" xmlns="http://www.w3.org/2000/svg">
<path d="M1.104 3.93311C1.104 3.40267 1.31472 2.89396 1.68979 2.51889C2.06486 2.14382 2.57357 1.93311 3.104 1.93311H19.104C19.6344 1.93311 20.1431 2.14382 20.5182 2.51889C20.8933 2.89396 21.104 3.40267 21.104 3.93311V15.9331C21.104 16.4635 20.8933 16.9722 20.5182 17.3473C20.1431 17.7224 19.6344 17.9331 19.104 17.9331H3.104C2.57357 17.9331 2.06486 17.7224 1.68979 17.3473C1.31472 16.9722 1.104 16.4635 1.104 15.9331V3.93311Z" stroke="#1B2559" stroke-width="2" stroke-linecap="round" stroke-linejoin="round"/>
<path d="M1.104 5.93311H21.104" stroke="#1B2559" stroke-width="2" stroke-linecap="round" stroke-linejoin="round"/>
<path d="M1.104 9.93311H8.104C8.104 10.9331 8.704 12.9331 11.104 12.9331C13.504 12.9331 14.104 10.9331 14.104 9.93311H21.104" stroke="#1B2559" stroke-width="2" stroke-linecap="round" stroke-linejoin="round"/>
</svg>
