<svg width="25" height="24" viewBox="0 0 25 24" fill="none" xmlns="http://www.w3.org/2000/svg">
<path d="M19.6667 12.4395V10.5H18.1667V12.75C18.1668 12.9489 18.2458 13.1396 18.3865 13.2803L20.4167 15.3105V16.5H3.91675V15.3105L5.947 13.2803C6.08766 13.1396 6.16671 12.9489 6.16675 12.75V9.75C6.16466 8.6961 6.44072 7.6603 6.96706 6.74724C7.4934 5.83417 8.25137 5.07618 9.16442 4.5498C10.0775 4.02343 11.1133 3.74733 12.1672 3.74938C13.2211 3.75144 14.2558 4.03157 15.1667 4.5615V2.88525C14.4528 2.56914 13.6935 2.36766 12.9167 2.28825V0.75H11.4167V2.2875C9.56768 2.4757 7.85407 3.34284 6.60728 4.72124C5.36048 6.09964 4.66907 7.89138 4.66675 9.75V12.4395L2.6365 14.4697C2.49584 14.6104 2.41679 14.8011 2.41675 15V17.25C2.41675 17.4489 2.49577 17.6397 2.63642 17.7803C2.77707 17.921 2.96784 18 3.16675 18H8.41675V18.75C8.41675 19.7446 8.81184 20.6984 9.5151 21.4016C10.2184 22.1049 11.1722 22.5 12.1667 22.5C13.1613 22.5 14.1151 22.1049 14.8184 21.4016C15.5217 20.6984 15.9167 19.7446 15.9167 18.75V18H21.1667C21.3657 18 21.5564 17.921 21.6971 17.7803C21.8377 17.6397 21.9167 17.4489 21.9167 17.25V15C21.9167 14.8011 21.8377 14.6104 21.697 14.4697L19.6667 12.4395ZM14.4167 18.75C14.4167 19.3467 14.1797 19.919 13.7577 20.341C13.3358 20.7629 12.7635 21 12.1667 21C11.57 21 10.9977 20.7629 10.5758 20.341C10.1538 19.919 9.91675 19.3467 9.91675 18.75V18H14.4167V18.75Z" fill="#4B00D4"/>
<path d="M19.6667 9C21.3236 9 22.6667 7.65685 22.6667 6C22.6667 4.34315 21.3236 3 19.6667 3C18.0099 3 16.6667 4.34315 16.6667 6C16.6667 7.65685 18.0099 9 19.6667 9Z" fill="#4B00D4"/>
</svg>
