<svg width="27" height="26" viewBox="0 0 27 26" fill="none" xmlns="http://www.w3.org/2000/svg">
<path d="M18.0957 7.7041C18.7688 7.7041 19.3145 7.17944 19.3145 6.53223C19.3145 5.88502 18.7688 5.36035 18.0957 5.36035C17.4226 5.36035 16.877 5.88502 16.877 6.53223C16.877 7.17944 17.4226 7.7041 18.0957 7.7041Z" fill="#4B00D4"/>
<path d="M12.3383 16.2979H7.93945V12.0682L12.8388 7.35723C12.8229 7.21294 12.8147 7.06795 12.8145 6.92285C12.8145 5.99575 13.1004 5.08947 13.636 4.31862C14.1717 3.54776 14.9331 2.94695 15.8239 2.59217C16.7147 2.23738 17.6949 2.14455 18.6405 2.32542C19.5862 2.50629 20.4548 2.95273 21.1366 3.60829C21.8184 4.26385 22.2827 5.09908 22.4708 6.00837C22.6589 6.91765 22.5623 7.86015 22.1934 8.71668C21.8244 9.57321 21.1995 10.3053 20.3979 10.8204C19.5962 11.3354 18.6536 11.6104 17.6895 11.6104C17.5385 11.6101 17.3878 11.6023 17.2377 11.5869L12.3383 16.2979ZM9.56445 14.7354H11.6656L16.6787 9.91504L17.0996 9.98926C17.2939 10.0263 17.4914 10.0459 17.6895 10.0479C18.369 10.0559 19.0345 9.86142 19.5945 9.49114C20.1545 9.12086 20.5815 8.59295 20.8169 7.97992C21.0523 7.36689 21.0845 6.69882 20.9091 6.06748C20.7337 5.43614 20.3593 4.8725 19.8374 4.45399C19.3154 4.03548 18.6715 3.78263 17.9941 3.73018C17.3167 3.67772 16.639 3.82824 16.0541 4.16104C15.4692 4.49385 15.0058 4.99262 14.7276 5.58884C14.4494 6.18506 14.3701 6.84947 14.5004 7.49082L14.5776 7.89473L9.56445 12.715V14.7354ZM23.377 16.2979H16.0645V17.8604H23.377V22.5479H3.87695V17.8604H5.50195V16.2979H3.87695C3.44611 16.2983 3.03303 16.463 2.72838 16.756C2.42373 17.0489 2.25238 17.4461 2.25195 17.8604V22.5479C2.25238 22.9621 2.42373 23.3593 2.72838 23.6523C3.03303 23.9452 3.44611 24.1099 3.87695 24.1104H23.377C23.8078 24.1099 24.2209 23.9452 24.5255 23.6523C24.8302 23.3593 25.0015 22.9621 25.002 22.5479V17.8604C25.0015 17.4461 24.8302 17.0489 24.5255 16.756C24.2209 16.463 23.8078 16.2983 23.377 16.2979Z" fill="#4B00D4"/>
<path d="M6.31445 20.9854C6.76318 20.9854 7.12695 20.6356 7.12695 20.2041C7.12695 19.7726 6.76318 19.4229 6.31445 19.4229C5.86572 19.4229 5.50195 19.7726 5.50195 20.2041C5.50195 20.6356 5.86572 20.9854 6.31445 20.9854Z" fill="#4B00D4"/>
</svg>
