<svg width="26" height="26" viewBox="0 0 26 26" fill="none" xmlns="http://www.w3.org/2000/svg">
<path d="M3.24457 3.35063H3.14457V3.45063V9.00618V9.10618H3.24457H8.80013H8.90013V9.00618V3.45063V3.35063H8.80013H3.24457ZM22.689 9.10618H22.789V9.00618V3.45063V3.35063H22.689H17.1335H17.0335V3.45063V9.00618V9.10618H17.1335H22.689ZM3.24457 17.2395H3.14457V17.3395V22.8951V22.9951H3.24457H8.80013H8.90013V22.8951V17.3395V17.2395H8.80013H3.24457ZM18.5224 18.8284H18.6224V18.7284V16.0506H21.2001V18.7284V18.8284H21.3001H23.9779V21.4062H21.3001H21.2001V21.5062V24.184H18.6224V21.5062V21.4062H18.5224H15.8446V18.8284H18.5224ZM10.189 11.684H1.85569C1.51385 11.684 1.18602 11.5482 0.944304 11.3065C0.70259 11.0647 0.566797 10.7369 0.566797 10.3951V2.06174C0.566797 1.71991 0.70259 1.39207 0.944304 1.15036C1.18602 0.908645 1.51385 0.772852 1.85569 0.772852H10.189C10.5309 0.772852 10.8587 0.908645 11.1004 1.15036C11.3421 1.39207 11.4779 1.71991 11.4779 2.06174V10.3951C11.4779 10.7369 11.3421 11.0647 11.1004 11.3065C10.8587 11.5482 10.5309 11.684 10.189 11.684ZM15.7446 0.772852H24.0779C24.4197 0.772852 24.7476 0.908645 24.9893 1.15036C25.231 1.39207 25.3668 1.71991 25.3668 2.06174V10.3951C25.3668 10.7369 25.231 11.0647 24.9893 11.3065C24.7476 11.5482 24.4197 11.684 24.0779 11.684H15.7446C15.4027 11.684 15.0749 11.5482 14.8332 11.3065C14.5915 11.0647 14.4557 10.7369 14.4557 10.3951V2.06174C14.4557 1.71991 14.5915 1.39207 14.8332 1.15036C15.0749 0.908645 15.4027 0.772852 15.7446 0.772852ZM11.1004 25.1953C10.8587 25.4371 10.5309 25.5729 10.189 25.5729H1.85569C1.51385 25.5729 1.18602 25.4371 0.944304 25.1953C0.70259 24.9536 0.566797 24.6258 0.566797 24.284V15.9506C0.566797 15.6088 0.70259 15.281 0.944304 15.0392C1.18602 14.7975 1.51385 14.6617 1.85569 14.6617H10.189C10.5309 14.6617 10.8587 14.7975 11.1004 15.0392C11.3421 15.281 11.4779 15.6088 11.4779 15.9506V24.284C11.4779 24.6258 11.3421 24.9536 11.1004 25.1953Z" fill="#4B00D4" stroke="white" stroke-width="0.2"/>
</svg>
