<svg width="36" height="22" viewBox="0 0 36 22" fill="none" xmlns="http://www.w3.org/2000/svg">
<path d="M35.7991 3.89502V14.395C35.7991 16.32 34.2241 17.895 32.2991 17.895H30.5491V14.395H32.2991V3.89502H4.29907V14.395H14.7991V17.895H4.29907C2.37407 17.895 0.799072 16.32 0.799072 14.395V3.89502C0.799072 1.97002 2.37407 0.39502 4.29907 0.39502H32.2991C34.2241 0.39502 35.7991 1.97002 35.7991 3.89502ZM22.6741 21.395L24.5816 17.1775L28.7991 15.27L24.5816 13.3625L22.6741 9.14502L20.7666 13.3625L16.5491 15.27L20.7666 17.1775L22.6741 21.395ZM27.0491 12.645L28.1341 10.23L30.5491 9.14502L28.1341 8.06002L27.0491 5.64502L25.9641 8.06002L23.5491 9.14502L25.9641 10.23L27.0491 12.645ZM22.6741 21.395L24.5816 17.1775L28.7991 15.27L24.5816 13.3625L22.6741 9.14502L20.7666 13.3625L16.5491 15.27L20.7666 17.1775L22.6741 21.395ZM27.0491 12.645L28.1341 10.23L30.5491 9.14502L28.1341 8.06002L27.0491 5.64502L25.9641 8.06002L23.5491 9.14502L25.9641 10.23L27.0491 12.645Z" fill="white"/>
</svg>
