<svg width="29" height="29" viewBox="0 0 29 29" fill="none" xmlns="http://www.w3.org/2000/svg">
<path d="M24.5493 10.2817L28.0133 12.2817L27.0133 14.0137L23.5493 12.0137L24.5493 10.2817ZM24.5493 6.28174H28.5493V8.28174H24.5493V6.28174ZM5.54932 12.0137L2.08532 14.0137L1.08532 12.2817L4.54932 10.2817L5.54932 12.0137ZM24.5493 28.2817H22.5493V23.2817C22.5477 21.9561 22.0204 20.6853 21.0831 19.748C20.1458 18.8106 18.8749 18.2833 17.5493 18.2817H11.5493C10.2237 18.2833 8.95287 18.8106 8.01554 19.748C7.0782 20.6853 6.5509 21.9561 6.54932 23.2817V28.2817H4.54932V23.2817C4.55143 21.4259 5.28961 19.6466 6.60191 18.3343C7.9142 17.022 9.69345 16.2839 11.5493 16.2817H17.5493C19.4052 16.2839 21.1844 17.022 22.4967 18.3343C23.809 19.6466 24.5472 21.4259 24.5493 23.2817V28.2817ZM14.5493 2.28174C15.5382 2.28174 16.5049 2.57498 17.3272 3.12439C18.1494 3.6738 18.7903 4.45469 19.1687 5.36832C19.5472 6.28195 19.6462 7.28728 19.4532 8.25719C19.2603 9.22709 18.7841 10.118 18.0849 10.8173C17.3856 11.5165 16.4947 11.9927 15.5248 12.1857C14.5549 12.3786 13.5495 12.2796 12.6359 11.9011C11.7223 11.5227 10.9414 10.8818 10.392 10.0596C9.84256 9.23734 9.54932 8.27064 9.54932 7.28174C9.54932 5.95566 10.0761 4.68389 11.0138 3.7462C11.9515 2.80852 13.2232 2.28174 14.5493 2.28174ZM14.5493 0.281738C13.1648 0.281738 11.8115 0.692281 10.6603 1.46145C9.50918 2.23062 8.61197 3.32387 8.08216 4.60295C7.55235 5.88204 7.41372 7.2895 7.68382 8.64737C7.95392 10.0052 8.6206 11.2525 9.59957 12.2315C10.5785 13.2105 11.8258 13.8771 13.1837 14.1472C14.5416 14.4173 15.949 14.2787 17.2281 13.7489C18.5072 13.2191 19.6004 12.3219 20.3696 11.1707C21.1388 10.0196 21.5493 8.66621 21.5493 7.28174C21.5493 5.42522 20.8118 3.64475 19.4991 2.33199C18.1863 1.01924 16.4058 0.281738 14.5493 0.281738ZM23.5493 2.54974L27.0133 0.549738L28.0133 2.28174L24.5493 4.28174L23.5493 2.54974ZM0.549316 6.28174H4.54932V8.28174H0.549316V6.28174ZM4.54932 4.28174L1.08532 2.28174L2.08532 0.549738L5.54932 2.54974L4.54932 4.28174Z" fill="white"/>
</svg>
