<svg width="18" height="16" viewBox="0 0 18 16" fill="none" xmlns="http://www.w3.org/2000/svg">
<path d="M1.70038 8.42595L4.20038 8.42928C4.41257 8.43014 4.61644 8.51191 4.77041 8.65792C4.92439 8.80393 5.01686 9.00317 5.02898 9.21502C5.0411 9.42686 4.97194 9.63535 4.83562 9.79797C4.6993 9.96058 4.50609 10.0651 4.29538 10.0901L4.19954 10.0959L2.53288 10.0926V14.2618L4.19954 14.2626C4.40366 14.2626 4.60066 14.3376 4.75319 14.4732C4.90572 14.6088 5.00316 14.7957 5.02704 14.9984L5.03288 15.0959C5.03285 15.3001 4.95791 15.4971 4.82228 15.6496C4.68665 15.8021 4.49975 15.8996 4.29704 15.9234L4.19954 15.9293H1.69954C1.49543 15.9293 1.29843 15.8543 1.1459 15.7187C0.993372 15.5831 0.895925 15.3962 0.872044 15.1934L0.866211 15.0959V9.25928C0.866081 9.05477 0.941159 8.85735 1.07715 8.70461C1.21315 8.55187 1.40056 8.45447 1.60371 8.43095L1.69954 8.42595H1.70038ZM16.6995 12.5959C16.9119 12.5962 17.1162 12.6775 17.2707 12.8233C17.4251 12.9691 17.5181 13.1684 17.5305 13.3804C17.543 13.5925 17.474 13.8013 17.3377 13.9641C17.2013 14.127 17.008 14.2317 16.797 14.2568L16.6995 14.2626H6.69954C6.48714 14.2624 6.28285 14.181 6.1284 14.0352C5.97396 13.8894 5.88101 13.6902 5.86857 13.4781C5.85612 13.2661 5.92511 13.0573 6.06143 12.8944C6.19776 12.7315 6.39113 12.6269 6.60204 12.6018L6.69954 12.5959H16.6995ZM16.6995 10.0959C16.9119 10.0962 17.1162 10.1775 17.2707 10.3233C17.4251 10.4691 17.5181 10.6684 17.5305 10.8804C17.543 11.0925 17.474 11.3013 17.3377 11.4641C17.2013 11.627 17.008 11.7317 16.797 11.7568L16.6995 11.7626H6.69954C6.48714 11.7624 6.28285 11.681 6.1284 11.5352C5.97396 11.3894 5.88101 11.1902 5.86857 10.9781C5.85612 10.7661 5.92511 10.5573 6.06143 10.3944C6.19776 10.2315 6.39113 10.1269 6.60204 10.1018L6.69954 10.0959H16.6995ZM4.19954 0.0959473C4.41194 0.0961829 4.61624 0.177513 4.77068 0.323321C4.92513 0.469129 5.01807 0.668408 5.03052 0.880443C5.04297 1.09248 4.97398 1.30126 4.83766 1.46414C4.70133 1.62702 4.50796 1.73169 4.29704 1.75678L4.19954 1.76261H2.53288V5.92511H4.19954C4.40366 5.92514 4.60066 6.00008 4.75319 6.13571C4.90572 6.27134 5.00316 6.45824 5.02704 6.66095L5.03288 6.75845C5.03285 6.96256 4.95791 7.15956 4.82228 7.31209C4.68665 7.46462 4.49975 7.56207 4.29704 7.58595L4.19954 7.59178H1.69954C1.49543 7.59175 1.29843 7.51682 1.1459 7.38118C0.993372 7.24555 0.895925 7.05866 0.872044 6.85595L0.866211 6.75845V0.929281C0.866238 0.725169 0.941175 0.528166 1.07681 0.375637C1.21244 0.223108 1.39934 0.125662 1.60204 0.101781L1.69954 0.0959473H4.19954ZM16.6995 4.26261C16.9119 4.26285 17.1162 4.34418 17.2707 4.48999C17.4251 4.6358 17.5181 4.83507 17.5305 5.04711C17.543 5.25914 17.474 5.46793 17.3377 5.63081C17.2013 5.79368 17.008 5.89836 16.797 5.92345L16.6995 5.92928H6.69954C6.48714 5.92904 6.28285 5.84771 6.1284 5.70191C5.97396 5.5561 5.88101 5.35682 5.86857 5.14478C5.85612 4.93275 5.92511 4.72396 6.06143 4.56109C6.19776 4.39821 6.39113 4.29353 6.60204 4.26845L6.69954 4.26261H16.6995ZM16.6995 1.76261C16.9119 1.76285 17.1162 1.84418 17.2707 1.98999C17.4251 2.1358 17.5181 2.33507 17.5305 2.54711C17.543 2.75914 17.474 2.96793 17.3377 3.13081C17.2013 3.29368 17.008 3.39836 16.797 3.42345L16.6995 3.42928H6.69954C6.48714 3.42904 6.28285 3.34771 6.1284 3.20191C5.97396 3.0561 5.88101 2.85682 5.86857 2.64478C5.85612 2.43275 5.92511 2.22396 6.06143 2.06109C6.19776 1.89821 6.39113 1.79353 6.60204 1.76845L6.69954 1.76261H16.6995Z" fill="#1B2559"/>
</svg>
