<svg width="25" height="25" viewBox="0 0 25 25" fill="none" xmlns="http://www.w3.org/2000/svg">
<path d="M23.567 3.81372H21.0393V5.36928H23.3726V22.4804H1.59482V5.36928H3.92815V3.81372H1.40037C1.21856 3.81676 1.03912 3.85559 0.872314 3.92798C0.705506 4.00038 0.554595 4.10493 0.428199 4.23566C0.301803 4.36639 0.202399 4.52074 0.135665 4.68989C0.0689301 4.85904 0.0361723 5.03968 0.0392624 5.2215V22.6282C0.0361723 22.81 0.0689301 22.9906 0.135665 23.1598C0.202399 23.3289 0.301803 23.4833 0.428199 23.614C0.554595 23.7447 0.705506 23.8493 0.872314 23.9217C1.03912 23.9941 1.21856 24.0329 1.40037 24.0359H23.567C23.7489 24.0329 23.9283 23.9941 24.0951 23.9217C24.2619 23.8493 24.4128 23.7447 24.5392 23.614C24.6656 23.4833 24.765 23.3289 24.8317 23.1598C24.8985 22.9906 24.9312 22.81 24.9281 22.6282V5.2215C24.9312 5.03968 24.8985 4.85904 24.8317 4.68989C24.765 4.52074 24.6656 4.36639 24.5392 4.23566C24.4128 4.10493 24.2619 4.00038 24.0951 3.92798C23.9283 3.85559 23.7489 3.81676 23.567 3.81372Z" fill="#8F9BBA"/>
<path d="M4.70605 10.0354H6.26161V11.591H4.70605V10.0354Z" fill="#8F9BBA"/>
<path d="M9.37305 10.0354H10.9286V11.591H9.37305V10.0354Z" fill="#8F9BBA"/>
<path d="M14.0391 10.0354H15.5946V11.591H14.0391V10.0354Z" fill="#8F9BBA"/>
<path d="M18.7061 10.0354H20.2616V11.591H18.7061V10.0354Z" fill="#8F9BBA"/>
<path d="M4.70605 13.925H6.26161V15.4806H4.70605V13.925Z" fill="#8F9BBA"/>
<path d="M9.37305 13.925H10.9286V15.4806H9.37305V13.925Z" fill="#8F9BBA"/>
<path d="M14.0391 13.925H15.5946V15.4806H14.0391V13.925Z" fill="#8F9BBA"/>
<path d="M18.7061 13.925H20.2616V15.4806H18.7061V13.925Z" fill="#8F9BBA"/>
<path d="M4.70605 17.8137H6.26161V19.3693H4.70605V17.8137Z" fill="#8F9BBA"/>
<path d="M9.37305 17.8137H10.9286V19.3693H9.37305V17.8137Z" fill="#8F9BBA"/>
<path d="M14.0391 17.8137H15.5946V19.3693H14.0391V17.8137Z" fill="#8F9BBA"/>
<path d="M18.7061 17.8137H20.2616V19.3693H18.7061V17.8137Z" fill="#8F9BBA"/>
<path d="M6.26215 6.92461C6.46843 6.92461 6.66626 6.84267 6.81212 6.69681C6.95799 6.55095 7.03993 6.35312 7.03993 6.14684V1.48017C7.03993 1.27389 6.95799 1.07606 6.81212 0.930198C6.66626 0.784337 6.46843 0.702393 6.26215 0.702393C6.05587 0.702393 5.85804 0.784337 5.71218 0.930198C5.56632 1.07606 5.48438 1.27389 5.48438 1.48017V6.14684C5.48438 6.35312 5.56632 6.55095 5.71218 6.69681C5.85804 6.84267 6.05587 6.92461 6.26215 6.92461Z" fill="#8F9BBA"/>
<path d="M18.7055 6.92461C18.9118 6.92461 19.1096 6.84267 19.2555 6.69681C19.4013 6.55095 19.4833 6.35312 19.4833 6.14684V1.48017C19.4833 1.27389 19.4013 1.07606 19.2555 0.930198C19.1096 0.784337 18.9118 0.702393 18.7055 0.702393C18.4992 0.702393 18.3014 0.784337 18.1555 0.930198C18.0097 1.07606 17.9277 1.27389 17.9277 1.48017V6.14684C17.9277 6.35312 18.0097 6.55095 18.1555 6.69681C18.3014 6.84267 18.4992 6.92461 18.7055 6.92461Z" fill="#8F9BBA"/>
<path d="M8.5957 3.81372H16.3735V5.36928H8.5957V3.81372Z" fill="#8F9BBA"/>
</svg>
