<svg width="39" height="28" viewBox="0 0 39 28" fill="none" xmlns="http://www.w3.org/2000/svg">
<path d="M26.9606 18.4511C26.5843 18.4511 26.2234 18.6043 25.9573 18.877C25.6912 19.1497 25.5417 19.5196 25.5417 19.9053C25.5417 20.291 25.6912 20.6609 25.9573 20.9336C26.2234 21.2063 26.5843 21.3595 26.9606 21.3595H31.6905C32.0669 21.3595 32.4278 21.2063 32.6939 20.9336C32.96 20.6609 33.1095 20.291 33.1095 19.9053C33.1095 19.5196 32.96 19.1497 32.6939 18.877C32.4278 18.6043 32.0669 18.4511 31.6905 18.4511H26.9606ZM5.28196 0.03125C4.13206 0.03125 3.02924 0.499391 2.21614 1.33269C1.40303 2.16598 0.946228 3.29618 0.946228 4.47463V23.0561C0.946228 24.2345 1.40303 25.3647 2.21614 26.198C3.02924 27.0313 4.13206 27.4994 5.28196 27.4994H34.4496C35.5995 27.4994 36.7024 27.0313 37.5155 26.198C38.3286 25.3647 38.7854 24.2345 38.7854 23.0561V4.47463C38.7854 3.29618 38.3286 2.16598 37.5155 1.33269C36.7024 0.499391 35.5995 0.03125 34.4496 0.03125H5.28196ZM3.31117 23.0561V10.5338H36.4204V23.0561C36.4204 24.1709 35.5375 25.0758 34.4496 25.0758H5.28196C4.19409 25.0758 3.31117 24.1709 3.31117 23.0561ZM3.31117 8.11013V4.47463C3.31117 3.35975 4.19409 2.45491 5.28196 2.45491H34.4496C35.5375 2.45491 36.4204 3.35975 36.4204 4.47463V8.11013H3.31117Z" fill="#4B00D4"/>
</svg>
