<svg width="23" height="24" viewBox="0 0 23 24" fill="none" xmlns="http://www.w3.org/2000/svg">
<path d="M12.6279 6.12141C12.6279 6.45293 12.4962 6.77087 12.2618 7.00529C12.0274 7.23971 11.7095 7.37141 11.3779 7.37141C11.0464 7.37141 10.7285 7.23971 10.494 7.00529C10.2596 6.77087 10.1279 6.45293 10.1279 6.12141C10.1279 5.78989 10.2596 5.47195 10.494 5.23753C10.7285 5.00311 11.0464 4.87141 11.3779 4.87141C11.7095 4.87141 12.0274 5.00311 12.2618 5.23753C12.4962 5.47195 12.6279 5.78989 12.6279 6.12141ZM12.6679 1.21516C12.2934 0.941687 11.8417 0.794312 11.3779 0.794312C10.9142 0.794312 10.4625 0.941687 10.0879 1.21516L0.81168 7.98391C-0.41082 8.87516 0.22043 10.8089 1.73168 10.8089H2.00293V18.0589C1.43848 18.347 0.96464 18.7854 0.633753 19.3259C0.302866 19.8663 0.127812 20.4877 0.12793 21.1214V22.9964C0.12793 23.5127 0.54793 23.9339 1.06543 23.9339H21.6904C21.9391 23.9339 22.1775 23.8351 22.3533 23.6593C22.5292 23.4835 22.6279 23.245 22.6279 22.9964V21.1214C22.628 20.4877 22.453 19.8663 22.1221 19.3259C21.7912 18.7854 21.3174 18.347 20.7529 18.0589V10.8089H21.0242C22.5367 10.8089 23.1654 8.87516 21.9442 7.98391L12.6679 1.21391V1.21516ZM11.1929 2.72891C11.2464 2.6898 11.311 2.66872 11.3773 2.66872C11.4436 2.66872 11.5082 2.6898 11.5617 2.72891L20.0654 8.93391H2.69043L11.1942 2.72891H11.1929ZM18.8779 10.8089V17.6839H16.3779V10.8089H18.8779ZM14.5029 10.8089V17.6839H12.3154V10.8089H14.5029ZM10.4404 10.8089V17.6839H8.25293V10.8089H10.4404ZM3.56543 19.5589H19.1904C20.0529 19.5589 20.7529 20.2589 20.7529 21.1214V22.0589H2.00293V21.1214C2.00293 20.2589 2.70293 19.5589 3.56543 19.5589ZM3.87793 17.6839V10.8089H6.37793V17.6839H3.87793Z" fill="#1B2559"/>
</svg>
