<svg width="21" height="21" viewBox="0 0 21 21" fill="none" xmlns="http://www.w3.org/2000/svg">
<path d="M10.4999 0.588867C4.98994 0.588867 0.499939 5.07887 0.499939 10.5889C0.499939 16.0989 4.98994 20.5889 10.4999 20.5889C16.0099 20.5889 20.4999 16.0989 20.4999 10.5889C20.4999 5.07887 16.0099 0.588867 10.4999 0.588867ZM10.4999 18.5889C6.08994 18.5889 2.49994 14.9989 2.49994 10.5889C2.49994 6.17887 6.08994 2.58887 10.4999 2.58887C14.9099 2.58887 18.4999 6.17887 18.4999 10.5889C18.4999 14.9989 14.9099 18.5889 10.4999 18.5889ZM13.4999 10.5889C13.4999 12.2489 12.1599 13.5889 10.4999 13.5889C8.83994 13.5889 7.49994 12.2489 7.49994 10.5889C7.49994 8.92887 8.83994 7.58887 10.4999 7.58887C12.1599 7.58887 13.4999 8.92887 13.4999 10.5889Z" fill="white"/>
</svg>
