<svg width="23" height="19" viewBox="0 0 23 19" fill="none" xmlns="http://www.w3.org/2000/svg">
<path d="M19.104 1.46924H3.104C1.99943 1.46924 1.104 2.36467 1.104 3.46924V15.4692C1.104 16.5738 1.99943 17.4692 3.104 17.4692H19.104C20.2086 17.4692 21.104 16.5738 21.104 15.4692V3.46924C21.104 2.36467 20.2086 1.46924 19.104 1.46924Z" stroke="#1B2559" stroke-width="2" stroke-linecap="round" stroke-linejoin="round"/>
<path d="M11.104 7.48524C10.8432 7.16907 10.516 6.91416 10.1457 6.73858C9.77531 6.56299 9.37086 6.47104 8.961 6.46924C7.384 6.46924 6.104 7.81224 6.104 9.46924C6.104 11.1262 7.384 12.4692 8.961 12.4692C9.815 12.4692 10.581 12.0762 11.104 11.4532V7.48524ZM16.104 9.46924C16.104 11.1262 14.824 12.4692 13.247 12.4692C11.669 12.4692 10.39 11.1262 10.39 9.46924C10.39 7.81224 11.669 6.46924 13.247 6.46924C14.824 6.46924 16.104 7.81224 16.104 9.46924Z" stroke="#1B2559" stroke-width="2" stroke-linecap="round" stroke-linejoin="round"/>
</svg>
