<svg width="17" height="21" viewBox="0 0 17 21" fill="none" xmlns="http://www.w3.org/2000/svg">
<path d="M10.457 1.50024V5.50024C10.457 5.76546 10.5624 6.01981 10.7499 6.20735C10.9375 6.39489 11.1918 6.50024 11.457 6.50024H15.457" stroke="#1B2559" stroke-width="2" stroke-linecap="round" stroke-linejoin="round"/>
<path d="M13.457 19.5002H3.45703C2.9266 19.5002 2.41789 19.2895 2.04282 18.9145C1.66774 18.5394 1.45703 18.0307 1.45703 17.5002V3.50024C1.45703 2.96981 1.66774 2.4611 2.04282 2.08603C2.41789 1.71096 2.9266 1.50024 3.45703 1.50024H10.457L15.457 6.50024V17.5002C15.457 18.0307 15.2463 18.5394 14.8712 18.9145C14.4962 19.2895 13.9875 19.5002 13.457 19.5002Z" stroke="#1B2559" stroke-width="2" stroke-linecap="round" stroke-linejoin="round"/>
<path d="M8.45703 9.50024V15.5002" stroke="#1B2559" stroke-width="2" stroke-linecap="round" stroke-linejoin="round"/>
<path d="M5.45703 12.5002L8.45703 15.5002L11.457 12.5002" stroke="#1B2559" stroke-width="2" stroke-linecap="round" stroke-linejoin="round"/>
</svg>
