<svg width="27" height="16" viewBox="0 0 27 16" fill="none" xmlns="http://www.w3.org/2000/svg">
<path d="M26.6909 6.92375L26.5909 6.77375L24.0909 4.54375C23.7691 4.25086 23.3917 4.02558 22.9811 3.88129C22.5706 3.737 22.1352 3.67662 21.7009 3.70375L16.3209 4.04375L12.7309 1.04375C12.5853 0.921306 12.4012 0.854042 12.2109 0.853748H9.15092C9.01055 0.852165 8.87237 0.88849 8.75093 0.95889C8.62948 1.02929 8.52929 1.13116 8.46092 1.25375C8.38956 1.37315 8.35188 1.50965 8.35188 1.64875C8.35188 1.78785 8.38956 1.92435 8.46092 2.04375L9.82092 4.48375L5.11092 4.77375L6.42092 6.29375L21.8109 5.29375C22.0327 5.27955 22.2552 5.31032 22.4648 5.38421C22.6745 5.4581 22.867 5.57359 23.0309 5.72375L25.3909 7.85375C25.3985 7.87646 25.3985 7.90104 25.3909 7.92375C25.3909 7.98375 25.3009 7.97375 25.2909 7.98375H17.4109L17.0609 8.35375L11.8709 13.8837H10.2309L12.9609 7.98375H4.13092L2.72092 5.26375L2.10092 4.10375C1.98353 3.95928 1.81945 3.86026 1.63691 3.82375C1.45438 3.78725 1.26483 3.81554 1.10092 3.90375C0.914315 4.00887 0.776942 4.18361 0.718847 4.38976C0.660752 4.5959 0.686664 4.81666 0.790915 5.00375L2.79092 8.94375C2.89383 9.14087 3.04907 9.30582 3.23959 9.42049C3.43011 9.53516 3.64855 9.5951 3.87092 9.59375H10.4409L8.50092 13.7737C8.41631 13.9589 8.38018 14.1625 8.39593 14.3654C8.41167 14.5683 8.47877 14.7639 8.59092 14.9337C8.69898 15.1019 8.84669 15.2408 9.02106 15.3385C9.19543 15.4361 9.39112 15.4894 9.59092 15.4937H12.0209C12.1869 15.4949 12.3512 15.4607 12.5029 15.3934C12.6546 15.3262 12.7903 15.2274 12.9009 15.1037L18.0809 9.59375H25.2409C25.5546 9.60229 25.8642 9.52122 26.1334 9.36004C26.4026 9.19887 26.6203 8.96426 26.7609 8.68375C26.9069 8.41069 26.9774 8.10362 26.9651 7.79424C26.9528 7.48485 26.8581 7.18435 26.6909 6.92375ZM10.5109 2.41375H11.9209L14.0109 4.18375L11.5909 4.33375L10.5109 2.41375Z" fill="#0EBBB1"/>
</svg>
