<svg width="21" height="23" viewBox="0 0 21 23" fill="none" xmlns="http://www.w3.org/2000/svg">
<path d="M10.6234 6.55283V1.18579L15.5237 6.55283H10.6234Z" fill="#EAEAEA"/>
<path d="M16.1623 5.90221V8.41865H14.7989V6.9552V6.8552H14.6989H10.1085V2.26486V2.16486H10.0085H2.19129H2.09129V2.26486V19.4628V19.5628H2.19129H13.0354V20.9262H0.727846V0.801416H11.0615L11.2667 1.00664L15.9571 5.69698L16.1623 5.90221ZM11.6427 3.28856L11.472 3.11785V3.35927V5.39175V5.49175H11.572H13.6044H13.8459L13.6752 5.32104L11.6427 3.28856ZM17.0614 11.744L17.144 11.7294V11.6455V10.1821H18.5075V11.6455V11.7455H18.6075H20.0709V13.109H17.4349C16.7543 13.109 16.1623 13.701 16.1623 14.3816C16.1623 15.0622 16.7543 15.6542 17.4349 15.6542H18.2166C19.7248 15.6542 20.8526 16.782 20.8526 18.2902C20.8526 19.6449 19.8751 20.701 18.5901 20.9277L18.5075 20.9423V21.0262V22.4897H17.144V21.0262V20.9262H17.044H15.5806V19.5628H18.2166C18.8972 19.5628 19.4892 18.9708 19.4892 18.2902C19.4892 17.6096 18.8972 17.0176 18.2166 17.0176H17.4349C15.9267 17.0176 14.7989 15.8898 14.7989 14.3816C14.7989 13.0268 15.7764 11.9708 17.0614 11.744ZM13.0354 9.98209H3.85474V8.61865H13.0354V9.98209ZM9.1268 13.8907H3.85474V12.5273H9.1268V13.8907ZM13.0354 13.8907H10.8902V12.5273H13.0354V13.8907ZM9.1268 17.0176H3.85474V15.6542H9.1268V17.0176ZM13.0354 17.0176H10.8902V15.6542H13.0354V17.0176Z" fill="#4B00D4" stroke="white" stroke-width="0.2"/>
</svg>
