<svg width="30" height="31" viewBox="0 0 30 31" fill="none" xmlns="http://www.w3.org/2000/svg">
<path d="M18.6131 25.4814C17.8892 25.4814 17.303 26.0822 17.303 26.8241V28.753C17.303 28.9293 17.3369 29.1039 17.4027 29.2668C17.4685 29.4297 17.5651 29.5777 17.6867 29.7024C17.8084 29.8271 17.9528 29.926 18.1118 29.9935C18.2707 30.0609 18.4411 30.0957 18.6131 30.0957C18.7852 30.0957 18.9555 30.0609 19.1145 29.9935C19.2734 29.926 19.4179 29.8271 19.5395 29.7024C19.6612 29.5777 19.7577 29.4297 19.8235 29.2668C19.8894 29.1039 19.9233 28.9293 19.9233 28.753V28.7129V28.7153V26.8241C19.9233 26.0835 19.337 25.4814 18.6143 25.4814H18.6131Z" fill="#4B00D4"/>
<path d="M27.7675 17.9902H25.9222C25.5843 18.0048 25.2651 18.1526 25.031 18.4026C24.7969 18.6527 24.6662 18.9858 24.666 19.3323C24.6659 19.6789 24.7963 20.012 25.0302 20.2623C25.264 20.5126 25.5832 20.6607 25.921 20.6756H27.7687C28.1065 20.661 28.4258 20.5132 28.6599 20.2632C28.894 20.0131 29.0247 19.68 29.0249 19.3335C29.025 18.987 28.8946 18.6538 28.6607 18.4035C28.4269 18.1532 28.1077 18.0051 27.7699 17.9902H27.7675Z" fill="#4B00D4"/>
<path d="M24.707 23.6791C24.4582 23.4443 24.1304 23.3172 23.7922 23.3245C23.454 23.3318 23.1317 23.4728 22.8927 23.7181C22.6536 23.9634 22.5164 24.2939 22.5098 24.6404C22.5031 24.987 22.6275 25.3228 22.8569 25.5775L22.8557 25.5763L24.1599 26.9129C24.2795 27.046 24.4241 27.153 24.585 27.2274C24.7459 27.3018 24.9199 27.3421 25.0963 27.3459C25.2728 27.3497 25.4483 27.3169 25.6121 27.2495C25.7759 27.1821 25.9247 27.0814 26.0496 26.9536C26.1746 26.8257 26.273 26.6733 26.339 26.5055C26.405 26.3377 26.4372 26.158 26.4337 25.9771C26.4302 25.7962 26.3911 25.6179 26.3187 25.4529C26.2463 25.2879 26.1421 25.1396 26.0124 25.0169L26.0112 25.0157L24.707 23.6791Z" fill="#4B00D4"/>
<path d="M11.0572 5.44282C11.7811 5.44282 12.3674 4.84203 12.3674 4.10015V2.21019C12.3531 1.86397 12.209 1.53677 11.9649 1.29689C11.7209 1.05701 11.3959 0.923009 11.0578 0.922852C10.7197 0.922695 10.3945 1.0564 10.1503 1.29605C9.90607 1.5357 9.7616 1.86277 9.74707 2.20898V4.10137C9.74707 4.84203 10.3333 5.44404 11.056 5.44404L11.0572 5.44282Z" fill="#4B00D4"/>
<path d="M3.74827 12.9314H3.78506C4.13253 12.9314 4.46578 12.79 4.71147 12.5382C4.95717 12.2864 5.09521 11.9449 5.09521 11.5888C5.09521 11.2327 4.95717 10.8912 4.71147 10.6394C4.46578 10.3876 4.13253 10.2461 3.78506 10.2461H3.7459H3.74827H1.9041C1.56627 10.2607 1.24699 10.4084 1.01293 10.6585C0.778862 10.9086 0.648102 11.2417 0.647949 11.5882C0.647796 11.9347 0.778261 12.2679 1.01211 12.5182C1.24595 12.7685 1.5651 12.9165 1.90292 12.9314H1.90529H3.74827Z" fill="#4B00D4"/>
<path d="M4.96328 7.24331C5.08285 7.37641 5.22743 7.48338 5.38834 7.55779C5.54926 7.63219 5.72319 7.6725 5.89968 7.6763C6.07618 7.68009 6.25161 7.64729 6.41543 7.57987C6.57924 7.51245 6.72808 7.41179 6.85299 7.28394C6.9779 7.1561 7.07631 7.0037 7.14231 6.8359C7.20831 6.6681 7.24054 6.48836 7.23706 6.30748C7.23358 6.12659 7.19447 5.94829 7.12207 5.78329C7.04968 5.61828 6.94549 5.46997 6.81576 5.34727L6.81457 5.34605L5.51036 4.00946C5.39079 3.87635 5.24621 3.76939 5.0853 3.69498C4.92438 3.62057 4.75045 3.58026 4.57396 3.57647C4.39746 3.57267 4.22203 3.60547 4.05822 3.67289C3.8944 3.74032 3.74556 3.84098 3.62065 3.96882C3.49574 4.09667 3.39734 4.24907 3.33133 4.41687C3.26533 4.58467 3.23311 4.76441 3.23658 4.94529C3.24006 5.12617 3.27917 5.30447 3.35157 5.46948C3.42397 5.63448 3.52816 5.78279 3.65788 5.9055L3.65907 5.90671L4.96328 7.24331Z" fill="#4B00D4"/>
<path d="M17.614 22.1051C17.8431 21.85 17.9671 21.5141 17.96 21.1675C17.9529 20.8209 17.8153 20.4906 17.576 20.2457C17.3366 20.0007 17.0141 19.8601 16.676 19.8533C16.3378 19.8464 16.0101 19.9739 15.7616 20.209L15.7628 20.2078L12.0602 24.0023C11.3138 24.7068 10.3304 25.0882 9.31588 25.0666C8.30135 25.045 7.33429 24.6221 6.61707 23.8865C5.89984 23.1508 5.48804 22.1594 5.46784 21.1196C5.44763 20.0799 5.82059 19.0725 6.50867 18.3081L6.50629 18.3106L10.2089 14.516C10.3388 14.3935 10.4431 14.2453 10.5157 14.0804C10.5883 13.9155 10.6277 13.7373 10.6314 13.5564C10.6351 13.3755 10.6031 13.1957 10.5373 13.0278C10.4715 12.86 10.3733 12.7074 10.2485 12.5794C10.1238 12.4514 9.97507 12.3506 9.81134 12.2829C9.6476 12.2153 9.47222 12.1822 9.29572 12.1858C9.11922 12.1894 8.94524 12.2295 8.78423 12.3036C8.62322 12.3778 8.47851 12.4846 8.35877 12.6176L8.35759 12.6188L4.655 16.4133C3.7396 17.352 3.11622 18.5477 2.86362 19.8494C2.61103 21.151 2.74055 22.5002 3.23582 23.7264C3.7311 24.9527 4.5699 26.001 5.64626 26.7389C6.72263 27.4768 7.98825 27.8712 9.28323 27.8722H9.29866C10.1561 27.8733 11.0053 27.7001 11.797 27.3628C12.5888 27.0255 13.3075 26.5306 13.9115 25.9069L17.614 22.1051Z" fill="#4B00D4"/>
<path d="M25.0227 5.01615C24.4187 4.39242 23.7001 3.89757 22.9083 3.56023C22.1166 3.22288 21.2674 3.04973 20.4099 3.05079H20.3945H20.3957H20.3803C19.5228 3.04973 18.6736 3.22288 17.8819 3.56023C17.0901 3.89757 16.3715 4.39242 15.7675 5.01615L12.0649 8.81066C11.935 8.9332 11.8306 9.08137 11.758 9.24628C11.6854 9.41119 11.6461 9.58944 11.6424 9.77032C11.6387 9.95119 11.6707 10.131 11.7365 10.2989C11.8023 10.4667 11.9005 10.6193 12.0252 10.7473C12.15 10.8753 12.2987 10.9762 12.4624 11.0438C12.6262 11.1114 12.8015 11.1445 12.978 11.1409C13.1545 11.1373 13.3285 11.0972 13.4895 11.0231C13.6505 10.9489 13.7953 10.8421 13.915 10.7091L13.9162 10.7079L17.6188 6.91341C17.9785 6.51765 18.4122 6.20019 18.8943 5.97994C19.3763 5.7597 19.8966 5.64119 20.4243 5.63149C20.9519 5.62178 21.4761 5.72108 21.9655 5.92345C22.4549 6.12582 22.8995 6.42713 23.2728 6.8094C23.6462 7.19168 23.9406 7.64708 24.1384 8.14847C24.3363 8.64985 24.4337 9.18694 24.4247 9.72771C24.4156 10.2685 24.3004 10.8018 24.0859 11.296C23.8715 11.7902 23.5621 12.235 23.1762 12.604L23.1738 12.6064L19.4712 16.4009C19.3414 16.5234 19.237 16.6716 19.1644 16.8365C19.0918 17.0014 19.0524 17.1797 19.0487 17.3606C19.045 17.5414 19.077 17.7212 19.1428 17.8891C19.2086 18.057 19.3068 18.2095 19.4316 18.3375C19.5563 18.4655 19.705 18.5664 19.8688 18.634C20.0325 18.7017 20.2079 18.7347 20.3844 18.7311C20.5609 18.7276 20.7349 18.6875 20.8959 18.6133C21.0569 18.5391 21.2016 18.4323 21.3213 18.2994L21.3225 18.2982L25.0251 14.5036C26.2071 13.2887 26.9369 11.6115 26.9369 9.76051C26.9369 7.90947 26.2059 6.23234 25.0239 5.01737L25.0227 5.01615Z" fill="#4B00D4"/>
</svg>
