<svg width="23" height="17" viewBox="0 0 23 17" fill="none" xmlns="http://www.w3.org/2000/svg">
<path d="M20.8113 0.69043H2.18871C1.83592 0.69043 1.49758 0.830574 1.24812 1.08003C0.998665 1.32949 0.858521 1.66783 0.858521 2.02062V15.3225C0.858521 15.6753 0.998665 16.0136 1.24812 16.2631C1.49758 16.5125 1.83592 16.6527 2.18871 16.6527H20.8113C21.1641 16.6527 21.5024 16.5125 21.7519 16.2631C22.0013 16.0136 22.1415 15.6753 22.1415 15.3225V2.02062C22.1415 1.66783 22.0013 1.32949 21.7519 1.08003C21.5024 0.830574 21.1641 0.69043 20.8113 0.69043ZM19.7871 15.3225H3.29276L7.94841 10.5072L6.99068 9.58272L2.18871 14.551V3.03156L10.4558 11.2588C10.705 11.5065 11.0422 11.6456 11.3936 11.6456C11.745 11.6456 12.0821 11.5065 12.3314 11.2588L20.8113 2.82538V14.4645L15.9162 9.56942L14.9784 10.5072L19.7871 15.3225ZM3.05998 2.02062H19.7339L11.3936 10.3143L3.05998 2.02062Z" fill="#4B00D4"/>
</svg>
