<svg width="26" height="25" viewBox="0 0 26 25" fill="none" xmlns="http://www.w3.org/2000/svg">
<path d="M17.2756 0.260742C16.0459 0.26046 14.8332 0.548237 13.7347 1.10101C12.6362 1.65379 11.6825 2.45619 10.95 3.44392C10.2174 4.43165 9.72643 5.57724 9.51633 6.78889C9.30624 8.00053 9.38289 9.24455 9.74013 10.4212L0.650635 19.5107V24.7607H5.90063L14.9901 15.6712C16.0733 16 17.2146 16.0914 18.3363 15.9392C19.458 15.787 20.5337 15.3948 21.4901 14.7893C22.4465 14.1838 23.2611 13.3792 23.8784 12.4303C24.4957 11.4815 24.9012 10.4107 25.0673 9.29103C25.2333 8.17131 25.156 7.02895 24.8407 5.94181C24.5253 4.85466 23.9793 3.84827 23.2398 2.99123C22.5003 2.13419 21.5848 1.44665 20.5555 0.975451C19.5263 0.504254 18.4076 0.26048 17.2756 0.260742ZM17.2756 14.2607C16.6732 14.2604 16.0741 14.1714 15.4976 13.9965L14.494 13.692L13.7529 14.4331L10.9695 17.2165L9.76288 16.0107L8.52563 17.248L9.73226 18.4546L8.34451 19.8424L7.13788 18.6357L5.90063 19.873L7.10726 21.0796L5.17613 23.0107H2.40063V20.2352L10.9774 11.6585L11.7194 10.9174L11.4149 9.91374C11.0409 8.68086 11.0652 7.36144 11.4843 6.14316C11.9034 4.92489 12.6961 3.86979 13.7494 3.12796C14.8028 2.38614 16.0632 1.99536 17.3515 2.01121C18.6398 2.02706 19.8902 2.44873 20.925 3.21625C21.9598 3.98376 22.7262 5.05804 23.1152 6.28626C23.5043 7.51448 23.4961 8.8341 23.0919 10.0574C22.6877 11.2807 21.908 12.3454 20.8638 13.1001C19.8196 13.8547 18.564 14.2608 17.2756 14.2607Z" fill="#8F9BBA"/>
</svg>
