<svg width="19" height="19" viewBox="0 0 19 19" fill="none" xmlns="http://www.w3.org/2000/svg">
<path d="M4.38898 0.108276C3.46072 0.108276 2.57048 0.477025 1.9141 1.1334C1.25773 1.78978 0.888977 2.68002 0.888977 3.60828V9.60828C0.888977 10.5365 1.25773 11.4268 1.9141 12.0831C2.57048 12.7395 3.46072 13.1083 4.38898 13.1083H4.88698V11.1083H4.38998C3.99215 11.1083 3.61062 10.9502 3.32932 10.6689C3.04801 10.3876 2.88998 10.0061 2.88998 9.60828V3.60828C2.88998 3.21045 3.04801 2.82892 3.32932 2.54762C3.61062 2.26631 3.99215 2.10828 4.38998 2.10828H10.39C10.7878 2.10828 11.1693 2.26631 11.4506 2.54762C11.7319 2.82892 11.89 3.21045 11.89 3.60828V9.60828C11.89 10.0061 11.7319 10.3876 11.4506 10.6689C11.1693 10.9502 10.7878 11.1083 10.39 11.1083H8.88398V13.1083H10.39C11.3182 13.1083 12.2085 12.7395 12.8649 12.0831C13.5212 11.4268 13.89 10.5365 13.89 9.60828V3.60828C13.89 2.68002 13.5212 1.78978 12.8649 1.1334C12.2085 0.477025 11.3182 0.108276 10.39 0.108276H4.38998H4.38898ZM7.88698 8.60528C7.88698 8.20745 8.04501 7.82592 8.32632 7.54462C8.60762 7.26331 8.98915 7.10528 9.38698 7.10528H10.886V5.10528H9.38698C8.45872 5.10528 7.56848 5.47403 6.9121 6.1304C6.25573 6.78678 5.88698 7.67702 5.88698 8.60528V14.6053C5.88698 15.5335 6.25573 16.4238 6.9121 17.0802C7.56848 17.7365 8.45872 18.1053 9.38698 18.1053H15.387C16.3152 18.1053 17.2055 17.7365 17.8619 17.0802C18.5182 16.4238 18.887 15.5335 18.887 14.6053V8.60528C18.887 7.67702 18.5182 6.78678 17.8619 6.1304C17.2055 5.47403 16.3152 5.10528 15.387 5.10528H14.892V7.10528H15.387C15.7848 7.10528 16.1663 7.26331 16.4476 7.54462C16.7289 7.82592 16.887 8.20745 16.887 8.60528V14.6053C16.887 15.0031 16.7289 15.3846 16.4476 15.6659C16.1663 15.9472 15.7848 16.1053 15.387 16.1053H9.38698C8.98915 16.1053 8.60762 15.9472 8.32632 15.6659C8.04501 15.3846 7.88698 15.0031 7.88698 14.6053V8.60528Z" fill="#1B2559"/>
</svg>
