<svg width="21" height="20" viewBox="0 0 21 20" fill="none" xmlns="http://www.w3.org/2000/svg">
<path d="M8.84644 8.25708L6.84644 10.2571H5.84644V8.25708H8.84644ZM18.4874 4.61708L20.8464 2.25708L19.3464 0.75708L2.34644 17.7571L3.84644 19.2571L12.8464 10.2571H15.8464V8.25708H14.8464L16.8464 6.25708C17.9494 6.25708 18.8464 7.15408 18.8464 8.25708V10.2571C18.8464 11.3601 17.9494 12.2571 16.8464 12.2571H11.8694C12.7824 13.4651 14.2164 14.2571 15.8464 14.2571H16.8464C17.9073 14.2571 18.9247 13.8357 19.6749 13.0855C20.425 12.3354 20.8464 11.3179 20.8464 10.2571V8.25708C20.8455 7.48761 20.6224 6.73477 20.204 6.08904C19.7855 5.44332 19.1894 4.93219 18.4874 4.61708ZM3.20644 13.8971L4.84644 12.2571C3.74344 12.2571 2.84644 11.3601 2.84644 10.2571V8.25708C2.84644 7.15408 3.74344 6.25708 4.84644 6.25708H9.82344C8.91144 5.04908 7.47744 4.25708 5.84644 4.25708H4.84644C3.78557 4.25708 2.76815 4.67851 2.01801 5.42865C1.26786 6.1788 0.846436 7.19621 0.846436 8.25708V10.2571C0.846436 11.8801 1.81744 13.2701 3.20644 13.8971Z" fill="#4B00D4"/>
</svg>
