<svg width="24" height="25" viewBox="0 0 24 25" fill="none" xmlns="http://www.w3.org/2000/svg">
<mask id="path-1-inside-1_186_26494" fill="white">
<path d="M11.7902 5.6339C11.7902 5.93344 11.6713 6.22072 11.4594 6.43253C11.2476 6.64435 10.9603 6.76334 10.6608 6.76334C10.3613 6.76334 10.074 6.64435 9.86216 6.43253C9.65035 6.22072 9.53135 5.93344 9.53135 5.6339C9.53135 5.33435 9.65035 5.04707 9.86216 4.83526C10.074 4.62344 10.3613 4.50445 10.6608 4.50445C10.9603 4.50445 11.2476 4.62344 11.4594 4.83526C11.6713 5.04707 11.7902 5.33435 11.7902 5.6339ZM11.8264 1.20082C11.488 0.953719 11.0798 0.820557 10.6608 0.820557C10.2418 0.820557 9.83361 0.953719 9.49521 1.20082L1.11359 7.31677C0.00898945 8.12207 0.57936 9.86932 1.94486 9.86932H2.18995V16.4201C1.67994 16.6804 1.2518 17.0766 0.952822 17.5649C0.653846 18.0532 0.495675 18.6147 0.495781 19.1873V20.8814C0.495781 21.3479 0.875275 21.7285 1.34287 21.7285H9.71884C9.56882 21.177 9.50782 20.6051 9.53813 20.0343H2.18995V19.1873C2.18995 18.4068 2.82244 17.7754 3.60176 17.7754H10.1706C10.5254 17.1175 11.0131 16.5406 11.6028 16.0813H11.5079V9.86932H13.4844V15.1382C13.9446 15.0133 14.4194 14.9503 14.8962 14.9507H15.1786V9.86932H17.4375V14.9518H18.8493C18.9442 14.9518 19.0379 14.9541 19.1317 14.9597V9.86932H19.3767C20.7434 9.86932 21.3126 8.1232 20.208 7.31677L11.8264 1.20082ZM10.4936 2.56858C10.542 2.53324 10.6003 2.5142 10.6602 2.5142C10.7201 2.5142 10.7785 2.53324 10.8268 2.56858L18.5105 8.17515H2.81115L10.4948 2.56858H10.4936ZM9.81372 9.86932V16.0813H7.83718V9.86932H9.81372ZM3.88412 16.0813V9.86932H6.14301V16.0813H3.88412ZM23.0847 20.3167C23.0847 19.1934 22.6385 18.1161 21.8442 17.3218C21.0499 16.5275 19.9726 16.0813 18.8493 16.0813L18.7341 16.0892C18.5215 16.1184 18.3279 16.2273 18.1924 16.3938C18.057 16.5603 17.9898 16.772 18.0044 16.9861C18.0191 17.2002 18.1144 17.4008 18.2712 17.5473C18.4281 17.6938 18.6347 17.7754 18.8493 17.7754L19.0232 17.7822C19.6785 17.8301 20.2897 18.1298 20.7287 18.6186C21.1677 19.1074 21.4004 19.7472 21.3779 20.4038C21.3554 21.0603 21.0795 21.6827 20.608 22.1403C20.1366 22.5978 19.5063 22.8551 18.8493 22.858L18.8459 22.8636L18.7307 22.8715C18.5175 22.9008 18.3234 23.0102 18.1879 23.1774C18.0523 23.3446 17.9856 23.5571 18.0011 23.7718C18.0166 23.9865 18.1133 24.1872 18.2715 24.3332C18.4296 24.4792 18.6374 24.5595 18.8527 24.5578V24.5521L19.0786 24.5465C20.1607 24.4878 21.1792 24.0166 21.9244 23.2298C22.6696 22.4429 23.0849 21.4004 23.0847 20.3167ZM15.7433 16.9284C15.7433 16.7037 15.6541 16.4882 15.4952 16.3294C15.3363 16.1705 15.1209 16.0813 14.8962 16.0813L14.6703 16.0869C13.5668 16.1439 12.5292 16.63 11.779 17.4413C11.0289 18.2527 10.6255 19.3251 10.6549 20.4297C10.6844 21.5343 11.1444 22.5837 11.9368 23.3539C12.7292 24.124 13.7912 24.554 14.8962 24.5521L15.0114 24.5453C15.2259 24.5181 15.4218 24.41 15.5591 24.243C15.6964 24.0761 15.7647 23.863 15.75 23.6473C15.7352 23.4316 15.6386 23.2298 15.4799 23.083C15.3212 22.9363 15.1124 22.8558 14.8962 22.858L14.7223 22.8523C14.064 22.8084 13.4487 22.5102 13.0063 22.0207C12.5639 21.5313 12.3292 20.889 12.3518 20.2297C12.3744 19.5703 12.6525 18.9456 13.1273 18.4876C13.6022 18.0296 14.2365 17.7742 14.8962 17.7754L15.0114 17.7687C15.2144 17.7408 15.4004 17.6403 15.535 17.4858C15.6696 17.3313 15.7436 17.1333 15.7433 16.9284ZM19.6964 20.3167C19.6964 20.092 19.6071 19.8766 19.4483 19.7177C19.2894 19.5589 19.0739 19.4696 18.8493 19.4696H14.8962L14.781 19.4775C14.5684 19.5068 14.3748 19.6156 14.2394 19.7821C14.1039 19.9486 14.0367 20.1603 14.0514 20.3744C14.066 20.5886 14.1614 20.7891 14.3182 20.9357C14.475 21.0822 14.6816 21.1637 14.8962 21.1638H18.8493L18.9645 21.157C19.1675 21.1291 19.3535 21.0286 19.4881 20.8741C19.6226 20.7196 19.6966 20.5216 19.6964 20.3167Z"/>
</mask>
<path d="M11.7902 5.6339C11.7902 5.93344 11.6713 6.22072 11.4594 6.43253C11.2476 6.64435 10.9603 6.76334 10.6608 6.76334C10.3613 6.76334 10.074 6.64435 9.86216 6.43253C9.65035 6.22072 9.53135 5.93344 9.53135 5.6339C9.53135 5.33435 9.65035 5.04707 9.86216 4.83526C10.074 4.62344 10.3613 4.50445 10.6608 4.50445C10.9603 4.50445 11.2476 4.62344 11.4594 4.83526C11.6713 5.04707 11.7902 5.33435 11.7902 5.6339ZM11.8264 1.20082C11.488 0.953719 11.0798 0.820557 10.6608 0.820557C10.2418 0.820557 9.83361 0.953719 9.49521 1.20082L1.11359 7.31677C0.00898945 8.12207 0.57936 9.86932 1.94486 9.86932H2.18995V16.4201C1.67994 16.6804 1.2518 17.0766 0.952822 17.5649C0.653846 18.0532 0.495675 18.6147 0.495781 19.1873V20.8814C0.495781 21.3479 0.875275 21.7285 1.34287 21.7285H9.71884C9.56882 21.177 9.50782 20.6051 9.53813 20.0343H2.18995V19.1873C2.18995 18.4068 2.82244 17.7754 3.60176 17.7754H10.1706C10.5254 17.1175 11.0131 16.5406 11.6028 16.0813H11.5079V9.86932H13.4844V15.1382C13.9446 15.0133 14.4194 14.9503 14.8962 14.9507H15.1786V9.86932H17.4375V14.9518H18.8493C18.9442 14.9518 19.0379 14.9541 19.1317 14.9597V9.86932H19.3767C20.7434 9.86932 21.3126 8.1232 20.208 7.31677L11.8264 1.20082ZM10.4936 2.56858C10.542 2.53324 10.6003 2.5142 10.6602 2.5142C10.7201 2.5142 10.7785 2.53324 10.8268 2.56858L18.5105 8.17515H2.81115L10.4948 2.56858H10.4936ZM9.81372 9.86932V16.0813H7.83718V9.86932H9.81372ZM3.88412 16.0813V9.86932H6.14301V16.0813H3.88412ZM23.0847 20.3167C23.0847 19.1934 22.6385 18.1161 21.8442 17.3218C21.0499 16.5275 19.9726 16.0813 18.8493 16.0813L18.7341 16.0892C18.5215 16.1184 18.3279 16.2273 18.1924 16.3938C18.057 16.5603 17.9898 16.772 18.0044 16.9861C18.0191 17.2002 18.1144 17.4008 18.2712 17.5473C18.4281 17.6938 18.6347 17.7754 18.8493 17.7754L19.0232 17.7822C19.6785 17.8301 20.2897 18.1298 20.7287 18.6186C21.1677 19.1074 21.4004 19.7472 21.3779 20.4038C21.3554 21.0603 21.0795 21.6827 20.608 22.1403C20.1366 22.5978 19.5063 22.8551 18.8493 22.858L18.8459 22.8636L18.7307 22.8715C18.5175 22.9008 18.3234 23.0102 18.1879 23.1774C18.0523 23.3446 17.9856 23.5571 18.0011 23.7718C18.0166 23.9865 18.1133 24.1872 18.2715 24.3332C18.4296 24.4792 18.6374 24.5595 18.8527 24.5578V24.5521L19.0786 24.5465C20.1607 24.4878 21.1792 24.0166 21.9244 23.2298C22.6696 22.4429 23.0849 21.4004 23.0847 20.3167ZM15.7433 16.9284C15.7433 16.7037 15.6541 16.4882 15.4952 16.3294C15.3363 16.1705 15.1209 16.0813 14.8962 16.0813L14.6703 16.0869C13.5668 16.1439 12.5292 16.63 11.779 17.4413C11.0289 18.2527 10.6255 19.3251 10.6549 20.4297C10.6844 21.5343 11.1444 22.5837 11.9368 23.3539C12.7292 24.124 13.7912 24.554 14.8962 24.5521L15.0114 24.5453C15.2259 24.5181 15.4218 24.41 15.5591 24.243C15.6964 24.0761 15.7647 23.863 15.75 23.6473C15.7352 23.4316 15.6386 23.2298 15.4799 23.083C15.3212 22.9363 15.1124 22.8558 14.8962 22.858L14.7223 22.8523C14.064 22.8084 13.4487 22.5102 13.0063 22.0207C12.5639 21.5313 12.3292 20.889 12.3518 20.2297C12.3744 19.5703 12.6525 18.9456 13.1273 18.4876C13.6022 18.0296 14.2365 17.7742 14.8962 17.7754L15.0114 17.7687C15.2144 17.7408 15.4004 17.6403 15.535 17.4858C15.6696 17.3313 15.7436 17.1333 15.7433 16.9284ZM19.6964 20.3167C19.6964 20.092 19.6071 19.8766 19.4483 19.7177C19.2894 19.5589 19.0739 19.4696 18.8493 19.4696H14.8962L14.781 19.4775C14.5684 19.5068 14.3748 19.6156 14.2394 19.7821C14.1039 19.9486 14.0367 20.1603 14.0514 20.3744C14.066 20.5886 14.1614 20.7891 14.3182 20.9357C14.475 21.0822 14.6816 21.1637 14.8962 21.1638H18.8493L18.9645 21.157C19.1675 21.1291 19.3535 21.0286 19.4881 20.8741C19.6226 20.7196 19.6966 20.5216 19.6964 20.3167Z" fill="#4B00D4" stroke="white" stroke-width="0.4" mask="url(#path-1-inside-1_186_26494)"/>
</svg>
