<svg width="25" height="16" viewBox="0 0 25 16" fill="none" xmlns="http://www.w3.org/2000/svg">
<path d="M7.68005 5.09037H17.0134V7.42371H7.68005V5.09037ZM21.7967 6.25704H24.0134C24.0134 3.03704 21.4001 0.423706 18.1801 0.423706H13.5134V2.64037H18.1801C20.1751 2.64037 21.7967 4.26204 21.7967 6.25704ZM2.89672 6.25704C2.89672 4.26204 4.51839 2.64037 6.51339 2.64037H11.1801V0.423706H6.51339C3.29339 0.423706 0.680054 3.03704 0.680054 6.25704C0.680054 9.47704 3.29339 12.0904 6.51339 12.0904H11.1801V9.87371H6.51339C4.51839 9.87371 2.89672 8.25204 2.89672 6.25704ZM20.5134 6.25704H18.1801V9.75704H14.6801V12.0904H18.1801V15.5904H20.5134V12.0904H24.0134V9.75704H20.5134V6.25704Z" fill="#4B00D4"/>
</svg>
