<svg width="23" height="24" viewBox="0 0 23 24" fill="none" xmlns="http://www.w3.org/2000/svg">
<path d="M12.8828 5.3437C12.8828 5.67522 12.7511 5.99316 12.5167 6.22758C12.2823 6.462 11.9643 6.5937 11.6328 6.5937C11.3013 6.5937 10.9833 6.462 10.7489 6.22758C10.5145 5.99316 10.3828 5.67522 10.3828 5.3437C10.3828 5.01218 10.5145 4.69424 10.7489 4.45982C10.9833 4.2254 11.3013 4.0937 11.6328 4.0937C11.9643 4.0937 12.2823 4.2254 12.5167 4.45982C12.7511 4.69424 12.8828 5.01218 12.8828 5.3437ZM12.9228 0.43745C12.5483 0.163977 12.0966 0.0166016 11.6328 0.0166016C11.1691 0.0166016 10.7173 0.163977 10.3428 0.43745L1.06656 7.2062C-0.155937 8.09745 0.475313 10.0312 1.98656 10.0312H2.25781V17.2812C1.69336 17.5692 1.21952 18.0077 0.888636 18.5482C0.557749 19.0886 0.382695 19.71 0.382813 20.3437V22.2187C0.382813 22.7349 0.802813 23.1562 1.32031 23.1562H21.9453C22.194 23.1562 22.4324 23.0574 22.6082 22.8816C22.784 22.7058 22.8828 22.4673 22.8828 22.2187V20.3437C22.8829 19.71 22.7079 19.0886 22.377 18.5482C22.0461 18.0077 21.5723 17.5692 21.0078 17.2812V10.0312H21.2791C22.7916 10.0312 23.4203 8.09745 22.1991 7.2062L12.9228 0.4362V0.43745ZM11.4478 1.9512C11.5013 1.91209 11.5659 1.89101 11.6322 1.89101C11.6985 1.89101 11.763 1.91209 11.8166 1.9512L20.3203 8.1562H2.94531L11.4491 1.9512H11.4478ZM19.1328 10.0312V16.9062H16.6328V10.0312H19.1328ZM14.7578 10.0312V16.9062H12.5703V10.0312H14.7578ZM10.6953 10.0312V16.9062H8.50781V10.0312H10.6953ZM3.82031 18.7812H19.4453C20.3078 18.7812 21.0078 19.4812 21.0078 20.3437V21.2812H2.25781V20.3437C2.25781 19.4812 2.95781 18.7812 3.82031 18.7812ZM4.13281 16.9062V10.0312H6.63281V16.9062H4.13281Z" fill="#1B2559"/>
</svg>
