<svg width="22" height="22" viewBox="0 0 22 22" fill="none" xmlns="http://www.w3.org/2000/svg">
<path d="M14.1328 21.3145H11.7995V18.9811H14.1328V21.3145ZM11.7995 13.1478H9.46615V18.9811H11.7995V13.1478ZM21.1328 10.8145H18.7995V15.4811H21.1328V10.8145ZM18.7995 8.48112H16.4661V10.8145H18.7995V8.48112ZM4.79948 10.8145H2.46615V13.1478H4.79948V10.8145ZM2.46615 8.48112H0.132812V10.8145H2.46615V8.48112ZM10.6328 2.64779H12.9661V0.314453H10.6328V2.64779ZM1.88281 2.06445V5.56445H5.38281V2.06445H1.88281ZM7.13281 7.31445H0.132812V0.314453H7.13281V7.31445ZM1.88281 16.0645V19.5645H5.38281V16.0645H1.88281ZM7.13281 21.3145H0.132812V14.3145H7.13281V21.3145ZM15.8828 2.06445V5.56445H19.3828V2.06445H15.8828ZM21.1328 7.31445H14.1328V0.314453H21.1328V7.31445ZM18.7995 18.9811V15.4811H14.1328V17.8145H16.4661V21.3145H21.1328V18.9811H18.7995ZM16.4661 10.8145H11.7995V13.1478H16.4661V10.8145ZM11.7995 8.48112H4.79948V10.8145H7.13281V13.1478H9.46615V10.8145H11.7995V8.48112ZM12.9661 7.31445V4.98112H10.6328V2.64779H8.29948V7.31445H12.9661ZM4.50781 2.93945H2.75781V4.68945H4.50781V2.93945ZM4.50781 16.9395H2.75781V18.6895H4.50781V16.9395ZM18.5078 2.93945H16.7578V4.68945H18.5078V2.93945Z" fill="black"/>
</svg>
