<svg width="25" height="23" viewBox="0 0 25 23" fill="none" xmlns="http://www.w3.org/2000/svg">
<path d="M23.1328 5.21289H2.13281V2.58789H21.3828V0.837891H2.13281C1.66868 0.837891 1.22356 1.02227 0.895376 1.35045C0.567187 1.67864 0.382813 2.12376 0.382812 2.58789V20.9629C0.382813 21.427 0.567187 21.8721 0.895376 22.2003C1.22356 22.5285 1.66868 22.7129 2.13281 22.7129H23.1328C23.5969 22.7129 24.0421 22.5285 24.3702 22.2003C24.6984 21.8721 24.8828 21.427 24.8828 20.9629V6.96289C24.8828 6.49876 24.6984 6.05364 24.3702 5.72545C24.0421 5.39727 23.5969 5.21289 23.1328 5.21289ZM2.13281 20.9629V6.96289H23.1328V9.58789H16.1328C15.6687 9.58789 15.2236 9.77227 14.8954 10.1005C14.5672 10.4286 14.3828 10.8738 14.3828 11.3379V16.5879C14.3828 17.052 14.5672 17.4971 14.8954 17.8253C15.2236 18.1535 15.6687 18.3379 16.1328 18.3379H23.1328V20.9629H2.13281ZM23.1328 11.3379V16.5879H16.1328V11.3379H23.1328Z" fill="#1B2559"/>
</svg>
