<svg width="21" height="21" viewBox="0 0 21 21" fill="none" xmlns="http://www.w3.org/2000/svg">
<mask id="path-1-inside-1_186_27088" fill="white">
<path d="M12.402 1.91693L10.3225 3.97775H12.4919C14.6131 3.97775 16.6474 4.80884 18.1473 6.28819C19.6472 7.76754 20.4898 9.77397 20.4898 11.8661H18.4904C18.4904 10.297 17.8584 8.79217 16.7335 7.68266C15.6085 6.57315 14.0828 5.94984 12.4919 5.94984H10.3225L12.412 8.01066L10.9923 9.40098L6.49353 4.96379L7.90316 3.57348L10.9923 0.526611L12.402 1.91693ZM0.495117 10.88V20.7404H16.4909V10.88H0.495117ZM2.49459 17.3485V14.2819C3.09555 13.9376 3.59517 13.4448 3.94421 12.8521H13.0418C13.3908 13.4448 13.8905 13.9376 14.4914 14.2819V17.3485C13.8989 17.6925 13.4065 18.1816 13.0618 18.7684H3.94421C3.59394 18.1791 3.0944 17.6898 2.49459 17.3485ZM8.493 17.7823C9.32078 17.7823 9.99261 16.8998 9.99261 15.8102C9.99261 14.7207 9.32078 13.8382 8.493 13.8382C7.66522 13.8382 6.9934 14.7207 6.9934 15.8102C6.9934 16.8998 7.66522 17.7823 8.493 17.7823Z"/>
</mask>
<path d="M12.402 1.91693L10.3225 3.97775H12.4919C14.6131 3.97775 16.6474 4.80884 18.1473 6.28819C19.6472 7.76754 20.4898 9.77397 20.4898 11.8661H18.4904C18.4904 10.297 17.8584 8.79217 16.7335 7.68266C15.6085 6.57315 14.0828 5.94984 12.4919 5.94984H10.3225L12.412 8.01066L10.9923 9.40098L6.49353 4.96379L7.90316 3.57348L10.9923 0.526611L12.402 1.91693ZM0.495117 10.88V20.7404H16.4909V10.88H0.495117ZM2.49459 17.3485V14.2819C3.09555 13.9376 3.59517 13.4448 3.94421 12.8521H13.0418C13.3908 13.4448 13.8905 13.9376 14.4914 14.2819V17.3485C13.8989 17.6925 13.4065 18.1816 13.0618 18.7684H3.94421C3.59394 18.1791 3.0944 17.6898 2.49459 17.3485ZM8.493 17.7823C9.32078 17.7823 9.99261 16.8998 9.99261 15.8102C9.99261 14.7207 9.32078 13.8382 8.493 13.8382C7.66522 13.8382 6.9934 14.7207 6.9934 15.8102C6.9934 16.8998 7.66522 17.7823 8.493 17.7823Z" fill="#F86CA9"/>
<path d="M12.402 1.91693L18.7372 8.30945L25.203 1.90158L18.7219 -4.49077L12.402 1.91693ZM10.3225 3.97775L3.98725 -2.41477L-11.5444 12.9778H10.3225V3.97775ZM20.4898 11.8661V20.8661H29.4898V11.8661H20.4898ZM18.4904 11.8661H9.49036V20.8661H18.4904V11.8661ZM10.3225 5.94984V-3.05016H-11.6191L4.0026 12.3575L10.3225 5.94984ZM12.412 8.01066L18.7092 14.4406L25.2516 8.03334L18.7319 1.60296L12.412 8.01066ZM10.9923 9.40098L4.67242 15.8087L10.97 22.02L17.2896 15.831L10.9923 9.40098ZM6.49353 4.96379L0.17361 -1.4439L-6.32308 4.96379L0.17361 11.3715L6.49353 4.96379ZM7.90316 3.57348L14.2231 9.98118L7.90316 3.57348ZM10.9923 0.526611L17.3123 -5.88109L10.9923 -12.1144L4.67242 -5.88109L10.9923 0.526611ZM0.495117 10.88V1.88004H-8.50488V10.88H0.495117ZM0.495117 20.7404H-8.50488V29.7404H0.495117V20.7404ZM16.4909 20.7404V29.7404H25.4909V20.7404H16.4909ZM16.4909 10.88H25.4909V1.88004H16.4909V10.88ZM2.49459 14.2819L-1.97896 6.47244L-6.50541 9.06537V14.2819H2.49459ZM3.94421 12.8521V3.85212H-1.20053L-3.81108 8.28533L3.94421 12.8521ZM13.0418 12.8521L20.7971 8.28533L18.1865 3.85212H13.0418V12.8521ZM14.4914 14.2819H23.4914V9.06537L18.965 6.47244L14.4914 14.2819ZM14.4914 17.3485L19.0111 25.1313L23.4914 22.5294V17.3485H14.4914ZM13.0618 18.7684V27.7684H18.2126L20.8217 23.3273L13.0618 18.7684ZM3.94421 18.7684L-3.79212 23.3672L-1.17587 27.7684H3.94421V18.7684ZM6.0667 -4.4756L3.98725 -2.41477L16.6578 10.3703L18.7372 8.30945L6.0667 -4.4756ZM10.3225 12.9778H12.4919V-5.02225H10.3225V12.9778ZM12.4919 12.9778C12.2659 12.9778 12.0246 12.8904 11.8274 12.6959L24.4672 -0.119507C21.2703 -3.27268 16.9603 -5.02225 12.4919 -5.02225L12.4919 12.9778ZM11.8274 12.6959C11.626 12.4973 11.4898 12.2013 11.4898 11.8661H29.4898C29.4898 7.34665 27.6684 3.03781 24.4672 -0.119507L11.8274 12.6959ZM20.4898 2.86608H18.4904V20.8661H20.4898V2.86608ZM27.4904 11.8661C27.4904 7.86968 25.8796 4.06245 23.0534 1.27497L10.4135 14.0904C9.83719 13.5219 9.49036 12.7243 9.49036 11.8661H27.4904ZM23.0534 1.27497C20.2314 -1.50837 16.43 -3.05016 12.4919 -3.05016L12.4919 14.9498C11.7356 14.9498 10.9857 14.6547 10.4135 14.0904L23.0534 1.27497ZM12.4919 -3.05016H10.3225V14.9498H12.4919V-3.05016ZM4.0026 12.3575L6.09205 14.4184L18.7319 1.60296L16.6424 -0.457863L4.0026 12.3575ZM6.11472 1.58067L4.6951 2.97099L17.2896 15.831L18.7092 14.4406L6.11472 1.58067ZM17.3123 2.99328L12.8135 -1.4439L0.17361 11.3715L4.67242 15.8087L17.3123 2.99328ZM12.8135 11.3715L14.2231 9.98118L1.58324 -2.83422L0.17361 -1.4439L12.8135 11.3715ZM14.2231 9.98118L17.3123 6.93431L4.67242 -5.88109L1.58324 -2.83422L14.2231 9.98118ZM4.67242 6.93431L6.08205 8.32463L18.7219 -4.49077L17.3123 -5.88109L4.67242 6.93431ZM-8.50488 10.88V20.7404H9.49512V10.88H-8.50488ZM0.495117 29.7404H16.4909V11.7404H0.495117V29.7404ZM25.4909 20.7404V10.88H7.49089V20.7404H25.4909ZM16.4909 1.88004H0.495117V19.88H16.4909V1.88004ZM11.4946 17.3485V14.2819H-6.50541V17.3485H11.4946ZM6.96814 22.0913C8.91639 20.9753 10.5512 19.369 11.6995 17.4189L-3.81108 8.28533C-3.36083 7.52072 -2.7253 6.89997 -1.97896 6.47244L6.96814 22.0913ZM3.94421 21.8521H13.0418V3.85212H3.94421V21.8521ZM5.28652 17.4189C6.43484 19.369 8.06961 20.9753 10.0179 22.0913L18.965 6.47244C19.7113 6.89997 20.3468 7.52072 20.7971 8.28533L5.28652 17.4189ZM5.49142 14.2819V17.3485H23.4914V14.2819H5.49142ZM9.9717 9.56566C8.04927 10.6821 6.43682 12.2776 5.30189 14.2094L20.8217 23.3273C20.3762 24.0856 19.7486 24.703 19.0111 25.1313L9.9717 9.56566ZM13.0618 9.76836H3.94421V27.7684H13.0618V9.76836ZM11.6805 14.1695C10.5275 12.2299 8.89207 10.634 6.94632 9.52656L-1.95714 25.1704C-2.70326 24.7457 -3.33962 24.1284 -3.79212 23.3672L11.6805 14.1695ZM8.493 26.7823C12.3209 26.7823 15.1443 24.7203 16.7163 22.6537C18.2835 20.5934 18.9926 18.1441 18.9926 15.8102H0.992606C0.992606 14.566 1.36577 13.1027 2.39011 11.756C3.41927 10.4031 5.4929 8.78232 8.493 8.78232V26.7823ZM18.9926 15.8102C18.9926 13.4764 18.2835 11.027 16.7163 8.96678C15.1443 6.90018 12.3209 4.83816 8.493 4.83816V22.8382C5.4929 22.8382 3.41927 21.2174 2.39011 19.8644C1.36577 18.5178 0.992606 17.0545 0.992606 15.8102H18.9926ZM8.493 4.83816C4.66512 4.83816 1.84169 6.90018 0.269668 8.96678C-1.29753 11.027 -2.0066 13.4764 -2.0066 15.8102H15.9934C15.9934 17.0545 15.6202 18.5178 14.5959 19.8644C13.5667 21.2174 11.4931 22.8382 8.493 22.8382V4.83816ZM-2.0066 15.8102C-2.0066 18.1441 -1.29753 20.5934 0.269668 22.6537C1.84169 24.7203 4.66512 26.7823 8.493 26.7823V8.78232C11.4931 8.78232 13.5667 10.4031 14.5959 11.756C15.6202 13.1027 15.9934 14.566 15.9934 15.8102H-2.0066Z" fill="#1B2559" mask="url(#path-1-inside-1_186_27088)"/>
</svg>
