<svg width="102" height="107" viewBox="0 0 102 107" fill="none" xmlns="http://www.w3.org/2000/svg">
<path d="M50.7427 21.9079C50.7427 23.2499 50.2096 24.5369 49.2607 25.4859C48.3117 26.4348 47.0247 26.9679 45.6827 26.9679C44.3407 26.9679 43.0537 26.4348 42.1047 25.4859C41.1558 24.5369 40.6227 23.2499 40.6227 21.9079C40.6227 20.5659 41.1558 19.2789 42.1047 18.3299C43.0537 17.381 44.3407 16.8479 45.6827 16.8479C47.0247 16.8479 48.3117 17.381 49.2607 18.3299C50.2096 19.2789 50.7427 20.5659 50.7427 21.9079ZM50.9046 2.04735C49.3886 0.940328 47.5599 0.34375 45.6827 0.34375C43.8055 0.34375 41.9768 0.940328 40.4608 2.04735L2.91041 29.4473C-2.03829 33.0551 0.517019 40.8829 6.63457 40.8829H7.7326V70.231C5.4477 71.397 3.52959 73.1719 2.19016 75.3597C0.850723 77.5474 0.142102 80.0628 0.142578 82.6281V90.2181C0.142578 92.3079 1.84274 94.0131 3.93759 94.0131H41.4626C40.7905 91.5423 40.5172 88.98 40.653 86.4231H7.7326V82.6281C7.7326 79.1316 10.5662 76.303 14.0576 76.303H43.4866C45.0759 73.3555 47.2609 70.7708 49.9027 68.713H49.4777V40.8829H58.3327V64.4879C60.3945 63.9285 62.5215 63.6461 64.6577 63.6479H65.9227V40.8829H76.0428V63.653H82.3678C82.7928 63.653 83.2128 63.6631 83.6328 63.6884V40.8829H84.7308C90.8534 40.8829 93.4037 33.0602 88.455 29.4473L50.9046 2.04735ZM44.9338 8.17503C45.1505 8.01671 45.4118 7.93139 45.6802 7.93139C45.9485 7.93139 46.2099 8.01671 46.4265 8.17503L80.8498 33.2929H10.5156L44.9389 8.17503H44.9338ZM41.8877 40.8829V68.713H33.0327V40.8829H41.8877ZM15.3226 68.713V40.8829H25.4426V68.713H15.3226ZM101.343 87.6881C101.343 82.6556 99.3437 77.8292 95.7852 74.2707C92.2267 70.7122 87.4003 68.713 82.3678 68.713L81.8517 68.7484C80.8991 68.8795 80.0318 69.3672 79.425 70.1131C78.8183 70.859 78.5172 71.8074 78.5828 72.7667C78.6483 73.726 79.0755 74.6246 79.7781 75.2811C80.4807 75.9375 81.4063 76.3027 82.3678 76.303L83.147 76.3334C86.0825 76.5478 88.8209 77.8907 90.7877 80.0805C92.7545 82.2702 93.7968 85.1365 93.696 88.0781C93.5952 91.0197 92.3591 93.8079 90.247 95.8579C88.135 97.9078 85.3111 99.0601 82.3678 99.0731L82.3526 99.0984L81.8365 99.1338C80.8812 99.265 80.0116 99.755 79.4045 100.504C78.7974 101.253 78.4982 102.206 78.5678 103.167C78.6374 104.129 79.0704 105.028 79.7791 105.682C80.4877 106.336 81.4187 106.696 82.383 106.688V106.663L83.395 106.638C88.243 106.375 92.8058 104.264 96.1444 100.739C99.483 97.2138 101.343 92.5432 101.343 87.6881ZM68.4528 72.508C68.4528 71.5015 68.0529 70.5363 67.3412 69.8246C66.6295 69.1128 65.6642 68.713 64.6577 68.713L63.6457 68.7383C58.7018 68.9937 54.0534 71.1712 50.6925 74.8061C47.3316 78.441 45.5244 83.2455 45.6564 88.1943C45.7885 93.1431 47.8494 97.8443 51.3993 101.295C54.9493 104.745 59.7072 106.672 64.6577 106.663L65.1739 106.633C66.1346 106.511 67.0124 106.026 67.6275 105.278C68.2426 104.53 68.5485 103.576 68.4825 102.609C68.4166 101.643 67.9837 100.739 67.2727 100.081C66.5616 99.424 65.6261 99.0632 64.6577 99.0731L63.8785 99.0478C60.9294 98.8509 58.1725 97.5149 56.1906 95.3223C54.2087 93.1296 53.1572 90.2521 53.2584 87.2982C53.3596 84.3443 54.6056 81.5456 56.7329 79.4937C58.8602 77.4418 61.7021 76.2976 64.6577 76.303L65.1739 76.2727C66.0833 76.1478 66.9166 75.6976 67.5195 75.0054C68.1224 74.3132 68.4539 73.426 68.4528 72.508ZM86.1628 87.6881C86.1628 86.6816 85.763 85.7163 85.0513 85.0046C84.3396 84.2929 83.3743 83.8931 82.3678 83.8931H64.6577L64.1416 83.9285C63.1891 84.0595 62.3218 84.5473 61.715 85.2932C61.1082 86.039 60.8072 86.9874 60.8727 87.9467C60.9383 88.906 61.3655 89.8047 62.0681 90.4611C62.7707 91.1175 63.6962 91.4828 64.6577 91.4831H82.3678L82.8839 91.4527C83.7933 91.3279 84.6266 90.8776 85.2295 90.1854C85.8324 89.4933 86.164 88.606 86.1628 87.6881Z" fill="#E7EAFC" fill-opacity="0.5"/>
</svg>
