<svg width="82" height="94" viewBox="0 0 82 94" fill="none" xmlns="http://www.w3.org/2000/svg">
<path d="M49.8961 34.8746H61.9423C65.9358 34.8746 69.7658 33.2882 72.5896 30.4643C75.4135 27.6405 76.9999 23.8105 76.9999 19.8169C76.9999 15.8234 75.4135 11.9934 72.5896 9.16957C69.7658 6.34571 65.9358 4.75928 61.9423 4.75928H19.7808C15.7873 4.75928 11.9573 6.34571 9.13343 9.16957C6.30957 11.9934 4.72314 15.8234 4.72314 19.8169C4.72314 23.8105 6.30957 27.6405 9.13343 30.4643C11.9573 33.2882 15.7873 34.8746 19.7808 34.8746M28.8154 61.9784V52.9438V61.9784ZM28.8154 52.9438V22.8285C28.8154 21.2311 29.45 19.6991 30.5795 18.5695C31.7091 17.44 33.2411 16.8054 34.8385 16.8054C36.4359 16.8054 37.9679 17.44 39.0974 18.5695C40.227 19.6991 40.8615 21.2311 40.8615 22.8285V46.9207H61.0569C66.5379 46.9207 70.9769 51.3597 70.9769 56.8407V61.9784C70.9769 69.1668 68.1213 76.0607 63.0383 81.1437C57.9554 86.2266 51.0614 89.0822 43.8731 89.0822H40.8615C34.4719 89.0822 28.3439 86.5439 23.8257 82.0257C19.3076 77.5076 16.7693 71.3796 16.7693 64.9899C16.7693 61.7951 18.0384 58.7311 20.2975 56.472C22.5566 54.213 25.6206 52.9438 28.8154 52.9438V52.9438Z" stroke="#E7EAFC" stroke-opacity="0.5" stroke-width="8.6"/>
</svg>
