<svg width="96" height="103" viewBox="0 0 96 103" fill="none" xmlns="http://www.w3.org/2000/svg">
<path d="M8.14889 87.9938V88.0938H8.24889H59.2171V95.1893H1.05343V0.548242H49.7916L50.8566 1.61327L72.743 23.4997L73.8081 24.5647V36.8256H66.7126V29.6301V29.5301H66.6126H44.8262V7.7437V7.6437H44.7262H8.24889H8.14889V7.7437V87.9938ZM52.0924 12.7798L51.9217 12.6091V12.8505V22.3346V22.4346H52.0217H61.5058H61.7472L61.5765 22.2639L52.0924 12.7798ZM77.5732 51.615L77.6558 51.6004V51.5165V44.321H84.7513V51.5165V51.6165H84.8512H92.0467V58.7119H79.3796C76.4062 58.7119 73.8081 61.3101 73.8081 64.2835C73.8081 67.257 76.4062 69.8551 79.3796 69.8551H83.0274C90.2676 69.8551 95.6944 75.282 95.6944 82.5222C95.6944 89.0358 90.9911 94.1042 84.8339 95.1908L84.7513 95.2054V95.2893V102.485H77.6558V95.2893V95.1893H77.5558H70.3603V88.0938H83.0274C86.0008 88.0938 88.599 85.4956 88.599 82.5222C88.599 79.5488 86.0008 76.9506 83.0274 76.9506H79.3796C72.1394 76.9506 66.7126 71.5238 66.7126 64.2835C66.7126 57.77 71.4159 52.7015 77.5732 51.615ZM59.2171 44.121H15.6444V37.0256H59.2171V44.121ZM40.9785 62.3597H15.6444V55.2642H40.9785V62.3597ZM59.2171 62.3597H48.4739V55.2642H59.2171V62.3597ZM40.9785 76.9506H15.6444V69.8551H40.9785V76.9506ZM59.2171 76.9506H48.4739V69.8551H59.2171V76.9506Z" fill="#E7EAFC" fill-opacity="0.5" stroke="white" stroke-width="0.2"/>
</svg>
