<svg width="57" height="46" viewBox="0 0 57 46" fill="none" xmlns="http://www.w3.org/2000/svg">
<path d="M43.1515 14.3562V8.60754C43.1515 7.0829 42.5459 5.62071 41.4678 4.54263C40.3897 3.46455 38.9275 2.85889 37.4029 2.85889H8.6596C7.13497 2.85889 5.67277 3.46455 4.59469 4.54263C3.51661 5.62071 2.91095 7.0829 2.91095 8.60754V25.8535C2.91095 27.3781 3.51661 28.8403 4.59469 29.9184C5.67277 30.9965 7.13497 31.6021 8.6596 31.6021H14.4083L43.1515 14.3562ZM20.1569 43.0995H48.9002C50.4248 43.0995 51.887 42.4938 52.9651 41.4157C54.0432 40.3376 54.6488 38.8754 54.6488 37.3508V20.1048C54.6488 18.5802 54.0432 17.118 52.9651 16.0399C51.887 14.9619 50.4248 14.3562 48.9002 14.3562H20.1569C18.6323 14.3562 17.1701 14.9619 16.092 16.0399C15.0139 17.118 14.4083 18.5802 14.4083 20.1048V37.3508C14.4083 38.8754 15.0139 40.3376 16.092 41.4157C17.1701 42.4938 18.6323 43.0995 20.1569 43.0995ZM40.2772 28.7278C40.2772 30.2525 39.6715 31.7146 38.5935 32.7927C37.5154 33.8708 36.0532 34.4765 34.5285 34.4765C33.0039 34.4765 31.5417 33.8708 30.4636 32.7927C29.3855 31.7146 28.7799 30.2525 28.7799 28.7278C28.7799 27.2032 29.3855 25.741 30.4636 24.6629C31.5417 23.5848 33.0039 22.9792 34.5285 22.9792C36.0532 22.9792 37.5154 23.5848 38.5935 24.6629C39.6715 25.741 40.2772 27.2032 40.2772 28.7278V28.7278Z" stroke="#4B00D4" stroke-width="4" stroke-linecap="round" stroke-linejoin="round"/>
</svg>
