<svg width="50" height="50" viewBox="0 0 50 50" fill="none" xmlns="http://www.w3.org/2000/svg">
<path d="M24.1657 49.1615C23.3358 49.0723 22.4931 48.9958 21.6632 48.881C17.0924 48.2435 13.0067 46.4838 9.45724 43.5383C4.61827 39.509 1.65615 34.3703 0.800708 28.1478C-0.207944 20.7521 1.79659 14.1726 6.68664 8.49832C6.85262 8.30705 7.0186 8.12854 7.19735 7.92452C6.12486 7.92452 5.11621 7.92452 4.10755 7.92452C3.86497 7.92452 3.63515 7.93727 3.39256 7.93727C2.80524 7.91177 2.38391 7.51649 2.38391 6.95544C2.37114 6.39439 2.77971 5.96085 3.35426 5.9226C4.29907 5.88435 5.23112 5.8716 6.17593 5.84609C7.35056 5.82059 8.53796 5.79509 9.7126 5.76959C10.6063 5.75684 11.066 6.25413 10.9 7.1212C10.5042 9.17413 10.0829 11.2398 9.66152 13.2927C9.53385 13.9303 9.0359 14.3001 8.47412 14.2108C7.87404 14.1088 7.51654 13.5988 7.63145 12.9357C7.79743 11.9539 8.00172 10.972 8.11663 9.93919C7.73359 10.4237 7.32503 10.8955 6.95476 11.3928C3.67345 15.8684 2.2307 20.8924 2.61373 26.4136C3.30319 36.6145 11.066 45.0812 21.2291 46.7771C25.7744 47.5294 30.141 46.9556 34.3288 45.0557C34.4565 44.9919 34.5842 44.9282 34.7246 44.8772C35.3375 44.6222 35.8865 44.8007 36.1418 45.3362C36.3972 45.8845 36.1929 46.4838 35.5545 46.7388C34.1628 47.2871 32.7711 47.8482 31.3539 48.2817C29.7069 48.7918 27.996 49.0213 26.2724 49.0978C26.1192 49.1105 25.9659 49.1488 25.8 49.1743C25.2509 49.1615 24.7147 49.1615 24.1657 49.1615Z" fill="#1B2559"/>
<path d="M21.8674 14.9502C21.8674 14.2999 21.8674 13.6879 21.8674 13.0631C21.8802 11.5712 22.9272 10.4873 24.421 10.4746C28.1492 10.4618 31.8773 10.4618 35.6055 10.4746C37.0227 10.4746 38.0825 11.4309 38.1591 12.8463C38.2229 14.0449 38.274 15.2817 38.0825 16.4548C37.9548 17.2199 37.942 17.8957 38.0825 18.6608C38.2867 19.8339 38.2101 21.0707 38.1591 22.2693C38.1335 22.7539 37.7377 23.2257 37.7377 23.6974C37.7377 24.1565 38.1335 24.6155 38.1591 25.0873C38.2229 26.1584 38.2101 27.255 38.1591 28.3261C38.1335 28.7469 37.9165 29.1677 37.8016 29.5884C37.776 29.7032 37.725 29.8562 37.776 29.92C38.1591 30.4555 38.1846 31.0803 38.1974 31.7051C38.2101 32.5594 38.2101 33.4265 38.1974 34.2808C38.1591 35.8492 37.0866 36.9076 35.5161 36.9076C32.0433 36.9076 28.5705 36.9203 25.0977 36.9076C24.2933 36.9076 23.4634 36.9203 22.7995 36.321C22.7101 36.2445 22.4675 36.2955 22.3143 36.3465C17.22 38.0041 11.7809 35.9385 9.07416 31.3226C5.12893 24.6155 9.31675 15.8428 17.0157 14.6824C18.5095 14.4529 20.0033 14.5039 21.4716 14.8737C21.5865 14.912 21.7142 14.9247 21.8674 14.9502ZM18.8287 16.5951C13.811 16.5569 9.68701 20.6244 9.63594 25.6866C9.58487 30.7233 13.6961 34.8801 18.7393 34.9184C23.7443 34.9566 27.9321 30.8763 27.9704 25.9034C28.0342 20.7392 23.9869 16.6334 18.8287 16.5951ZM30.0515 12.502C28.2513 12.502 26.451 12.502 24.6508 12.502C24.0763 12.502 23.9103 12.6678 23.9103 13.2416C23.9103 13.9684 23.8975 14.7079 23.923 15.4348C23.923 15.5878 24.0124 15.779 24.1146 15.8683C24.7657 16.4038 25.519 16.6206 26.3744 16.6079C28.0981 16.5824 29.809 16.5951 31.5326 16.5951C32.8349 16.5951 34.15 16.5824 35.4523 16.5824C35.8609 16.5824 36.1418 16.4548 36.1418 15.9831C36.1418 15.0267 36.1418 14.0704 36.1418 13.1268C36.1418 12.6678 35.9247 12.4893 35.4523 12.4893C33.6521 12.5148 31.8518 12.502 30.0515 12.502ZM25.3786 34.9056C25.5828 34.9056 25.7488 34.9056 25.902 34.9056C29.1195 34.9056 32.337 34.9056 35.5417 34.9056C35.9502 34.9056 36.1418 34.6761 36.1418 34.2681C36.1418 33.35 36.1418 32.4192 36.1418 31.5011C36.1418 30.9783 35.9758 30.8253 35.4523 30.8253C33.3456 30.8253 31.2517 30.8253 29.145 30.8125C28.8897 30.8125 28.762 30.9018 28.6216 31.1186C28.213 31.7561 27.8044 32.4192 27.3065 32.993C26.7319 33.656 26.0552 34.2426 25.3786 34.9056ZM27.4725 18.6098C28.43 19.8211 29.094 21.0707 29.5408 22.4478C29.5791 22.5626 29.7962 22.6774 29.9239 22.6774C31.788 22.6901 33.6393 22.6901 35.5034 22.6901C35.9247 22.6901 36.1545 22.4861 36.1418 22.0526C36.129 21.1217 36.1418 20.1782 36.1418 19.2473C36.1418 18.8138 35.9247 18.6098 35.4906 18.6225C34.9671 18.6353 34.4436 18.6225 33.9202 18.6225C31.8007 18.6098 29.6941 18.6098 27.4725 18.6098ZM29.7196 28.7979C31.6347 28.7979 33.5882 28.7979 35.5417 28.7979C35.9502 28.7979 36.129 28.5556 36.129 28.1476C36.1162 27.2295 36.129 26.2987 36.129 25.3806C36.129 24.8705 35.963 24.7175 35.4268 24.7175C33.7414 24.7175 32.0561 24.7175 30.3707 24.7175C30.2686 24.7175 30.1537 24.743 30.1665 24.743C30.0132 26.1202 29.8728 27.4335 29.7196 28.7979Z" fill="#1B2559"/>
<path d="M42.7429 41.4981C43.9686 41.4981 45.1815 41.4981 46.3817 41.4981C46.9946 41.4981 47.4031 41.8169 47.4797 42.3269C47.5691 42.9262 47.1861 43.4873 46.5732 43.5C44.3772 43.5638 42.1811 43.6148 39.9851 43.6148C39.1041 43.6148 38.8104 43.2195 38.9764 42.3397C39.3722 40.2485 39.7936 38.1573 40.2149 36.0789C40.3426 35.4796 40.8661 35.1225 41.4023 35.2245C41.9641 35.3266 42.3343 35.8111 42.2322 36.4231C42.0662 37.4432 41.8619 38.4506 41.7343 39.5089C42.0662 39.1009 42.4237 38.7056 42.7429 38.2848C45.9348 34.1152 47.5053 29.4101 47.3521 24.1566C47.0712 14.3255 40.3553 5.69303 30.92 3.11731C25.8257 1.72745 20.8079 2.03347 15.9434 4.21391C15.6242 4.35417 15.2923 4.48168 14.9603 4.58369C14.3091 4.77496 13.875 4.58369 13.6708 4.04814C13.4665 3.5126 13.6708 2.95155 14.2581 2.72203C15.7136 2.14823 17.1691 1.47242 18.6757 1.10264C26.1193 -0.720763 33.0777 0.414084 39.3084 4.95347C44.5559 8.7788 47.7734 13.9812 48.948 20.344C50.4036 28.2752 48.3352 35.2628 42.8961 41.2431C42.8451 41.3068 42.7812 41.3578 42.7429 41.4216C42.7557 41.4471 42.7557 41.4726 42.7429 41.4981Z" fill="#1B2559"/>
<path d="M17.7817 20.599C17.7817 20.3823 17.7817 20.1782 17.7817 19.9742C17.7817 19.0817 18.152 18.5971 18.8159 18.6099C19.4799 18.6226 19.8246 19.0944 19.8374 19.9997C19.8374 20.191 19.8374 20.3823 19.8374 20.6373C20.5013 20.6373 21.1269 20.6245 21.7653 20.6373C22.5696 20.6628 23.0548 21.2748 22.8378 21.9634C22.6846 22.4352 22.3143 22.6775 21.6759 22.6902C20.3991 22.6902 19.1224 22.6902 17.8584 22.6902C17.271 22.6902 16.8752 23.0217 16.8114 23.5318C16.722 24.1693 17.1434 24.6921 17.8201 24.7049C18.4457 24.7304 19.0585 24.7049 19.6841 24.7049C21.4972 24.7176 22.825 25.929 22.9144 27.6631C22.991 29.2825 21.7653 30.6086 20.0289 30.8127C20.0033 30.8127 19.965 30.8254 19.8629 30.8382C19.8629 31.1059 19.8629 31.3865 19.8629 31.667C19.8501 32.3938 19.4543 32.8401 18.8159 32.8273C18.2159 32.8146 17.8201 32.381 17.8073 31.6797C17.7945 31.412 17.8073 31.1442 17.8073 30.7999C17.1178 30.7999 16.4539 30.8127 15.79 30.7999C15.2793 30.7872 14.9218 30.5066 14.7941 30.0603C14.6792 29.6268 14.8324 29.1423 15.2282 28.951C15.4453 28.8362 15.7134 28.798 15.956 28.798C17.1944 28.7852 18.4457 28.798 19.6841 28.7852C20.3353 28.7852 20.7566 28.4537 20.8332 27.9437C20.9354 27.2679 20.4885 26.7706 19.748 26.7451C19.0585 26.7196 18.3818 26.7578 17.6924 26.7323C16.1347 26.6813 14.9601 25.5592 14.7558 23.9908C14.577 22.5627 15.5346 21.1728 16.9646 20.7648C17.22 20.701 17.4881 20.6628 17.7817 20.599Z" fill="#1B2559"/>
</svg>
