<svg width="25" height="25" viewBox="0 0 25 25" fill="none" xmlns="http://www.w3.org/2000/svg">
<rect x="13.5799" y="18.1343" width="4.5" height="4.625" fill="#EAEAEA"/>
<path d="M21.7511 19.6521H20.2511V18.1521H21.0011V15.1521H18.0011V15.9021H16.5011V14.4021C16.5011 14.2032 16.5801 14.0124 16.7208 13.8718C16.8614 13.7311 17.0522 13.6521 17.2511 13.6521H21.7511C21.95 13.6521 22.1408 13.7311 22.2814 13.8718C22.4221 14.0124 22.5011 14.2032 22.5011 14.4021V18.9021C22.5011 19.101 22.4221 19.2918 22.2814 19.4324C22.1408 19.5731 21.95 19.6521 21.7511 19.6521Z" fill="#4B00D4"/>
<path d="M18.0011 23.4021H13.5011C13.3022 23.4021 13.1114 23.3231 12.9708 23.1824C12.8301 23.0418 12.7511 22.851 12.7511 22.6521V18.1521C12.7511 17.9532 12.8301 17.7624 12.9708 17.6218C13.1114 17.4811 13.3022 17.4021 13.5011 17.4021H18.0011C18.2 17.4021 18.3908 17.4811 18.5314 17.6218C18.6721 17.7624 18.7511 17.9532 18.7511 18.1521V22.6521C18.7511 22.851 18.6721 23.0418 18.5314 23.1824C18.3908 23.3231 18.2 23.4021 18.0011 23.4021ZM14.2511 21.9021H17.2511V18.9021H14.2511V21.9021Z" fill="#4B00D4"/>
<path d="M11.2511 15.7955C10.7092 15.6543 10.2177 15.3639 9.83253 14.9574C9.44734 14.5509 9.18384 14.0446 9.07197 13.4958C8.9601 12.9471 9.00433 12.378 9.19964 11.8531C9.39495 11.3283 9.73352 10.8687 10.1769 10.5266C10.6203 10.1845 11.1507 9.97353 11.7079 9.91773C12.2652 9.86192 12.8269 9.96348 13.3293 10.2109C13.8317 10.4583 14.2547 10.8416 14.5502 11.3173C14.8457 11.793 15.0019 12.342 15.0011 12.902H16.5011C16.502 12.0439 16.2575 11.2034 15.7964 10.4796C15.3353 9.75586 14.6769 9.17904 13.8988 8.81716C13.1207 8.45528 12.2553 8.32343 11.4047 8.43716C10.5541 8.55089 9.75381 8.90546 9.09811 9.45906C8.44241 10.0127 7.95867 10.7422 7.70394 11.5617C7.4492 12.3811 7.43409 13.2564 7.66039 14.0841C7.88669 14.9119 8.34495 15.6577 8.98115 16.2336C9.61735 16.8095 10.405 17.1915 11.2511 17.3345V15.7955Z" fill="#4B00D4"/>
<path d="M21.6686 11.0646L19.9361 12.5871L18.8711 11.5221L20.6786 9.9321L18.9086 6.8721L16.3286 7.7421C15.7243 7.23905 15.0397 6.84102 14.3036 6.5646L13.7711 3.9021H10.2311L9.69861 6.5646C8.95656 6.83329 8.26831 7.23202 7.66611 7.7421L5.09361 6.8721L3.32361 9.9321L5.36361 11.7246C5.22485 12.5009 5.22485 13.2958 5.36361 14.0721L3.32361 15.8721L5.09361 18.9321L7.67361 18.0621C8.27796 18.5651 8.96247 18.9632 9.69861 19.2396L10.2311 21.9021H11.2511V23.4021H10.2311C9.88426 23.4018 9.54822 23.2813 9.2802 23.0612C9.01218 22.841 8.82874 22.5348 8.76111 22.1946L8.37861 20.3046C8.03905 20.139 7.71083 19.9511 7.39611 19.7421L5.57361 20.3571C5.41863 20.4075 5.25658 20.4328 5.09361 20.4321C4.83015 20.4339 4.57099 20.3654 4.34289 20.2335C4.11479 20.1017 3.92603 19.9113 3.79611 19.6821L2.02611 16.6221C1.85105 16.3214 1.786 15.9691 1.84209 15.6257C1.89819 15.2822 2.07195 14.969 2.33361 14.7396L3.77361 13.4796C3.75861 13.2846 3.75111 13.0971 3.75111 12.9021C3.75111 12.7071 3.76611 12.5196 3.78111 12.3321L2.33361 11.0646C2.07195 10.8352 1.89819 10.522 1.84209 10.1785C1.786 9.83509 1.85105 9.48284 2.02611 9.1821L3.79611 6.1221C3.92603 5.8929 4.11479 5.70254 4.34289 5.57069C4.57099 5.43884 4.83015 5.37029 5.09361 5.3721C5.25658 5.37135 5.41863 5.39667 5.57361 5.4471L7.38861 6.0621C7.7059 5.85308 8.03662 5.66517 8.37861 5.4996L8.76111 3.6096C8.82874 3.26941 9.01218 2.96317 9.2802 2.74301C9.54822 2.52285 9.88426 2.40238 10.2311 2.4021H13.7711C14.118 2.40238 14.454 2.52285 14.722 2.74301C14.99 2.96317 15.1735 3.26941 15.2411 3.6096L15.6236 5.4996C15.9632 5.66521 16.2914 5.85312 16.6061 6.0621L18.4286 5.4471C18.5836 5.39667 18.7456 5.37135 18.9086 5.3721C19.1721 5.37029 19.4312 5.43884 19.6593 5.57069C19.8874 5.70254 20.0762 5.8929 20.2061 6.1221L21.9761 9.1821C22.1512 9.48284 22.2162 9.83509 22.1601 10.1785C22.104 10.522 21.9303 10.8352 21.6686 11.0646Z" fill="#4B00D4"/>
</svg>
