<svg width="23" height="19" viewBox="0 0 23 19" fill="none" xmlns="http://www.w3.org/2000/svg">
<path d="M2.19568 13.0425L21.3848 13.0425C21.7924 13.0425 22.1229 12.712 22.1229 12.3044V1.97182C22.1229 1.56421 21.7924 1.23378 21.3848 1.23378L2.19568 1.23378C1.78807 1.23378 1.45764 1.56421 1.45764 1.97182V12.3044C1.45764 12.712 1.78807 13.0425 2.19568 13.0425Z" stroke="#4B00D4" stroke-width="1.3" stroke-linejoin="round"/>
<path d="M2.93372 15.2563H20.6468" stroke="#4B00D4" stroke-width="1.3" stroke-linecap="round" stroke-linejoin="round"/>
<path d="M4.40981 17.4705H19.1707" stroke="#4B00D4" stroke-width="1.3" stroke-linecap="round" stroke-linejoin="round"/>
<path d="M11.7902 10.8284C13.8283 10.8284 15.4805 9.17627 15.4805 7.13822C15.4805 5.10017 13.8283 3.448 11.7902 3.448C9.7522 3.448 8.10003 5.10017 8.10003 7.13822C8.10003 9.17627 9.7522 10.8284 11.7902 10.8284Z" stroke="#4B00D4" stroke-width="1.3" stroke-linecap="round" stroke-linejoin="round"/>
<path d="M22.1229 4.92386C21.1442 4.92386 20.2055 4.53507 19.5135 3.84302C18.8214 3.15097 18.4326 2.21235 18.4326 1.23364" stroke="#4B00D4" stroke-width="1.3" stroke-linecap="round" stroke-linejoin="round"/>
<path d="M1.45763 4.92386C1.94224 4.92386 2.4221 4.82841 2.86982 4.64296C3.31753 4.45751 3.72434 4.18569 4.06701 3.84302C4.40968 3.50035 4.6815 3.09355 4.86695 2.64583C5.0524 2.19811 5.14785 1.71825 5.14785 1.23364" stroke="#4B00D4" stroke-width="1.3" stroke-linecap="round" stroke-linejoin="round"/>
<path d="M22.1229 9.35205C21.1442 9.35205 20.2055 9.74084 19.5135 10.4329C18.8214 11.1249 18.4326 12.0636 18.4326 13.0423" stroke="#4B00D4" stroke-width="1.3" stroke-linecap="round" stroke-linejoin="round"/>
<path d="M1.45763 9.35205C1.94224 9.35205 2.4221 9.4475 2.86982 9.63295C3.31754 9.8184 3.72434 10.0902 4.06701 10.4329C4.40968 10.7756 4.6815 11.1824 4.86695 11.6301C5.0524 12.0778 5.14785 12.5577 5.14785 13.0423" stroke="#4B00D4" stroke-width="1.3" stroke-linecap="round" stroke-linejoin="round"/>
</svg>
