<svg width="26" height="26" viewBox="0 0 26 26" fill="none" xmlns="http://www.w3.org/2000/svg">
<path d="M3.61933 3.35063H3.51933V3.45063V9.00618V9.10618H3.61933H9.17489H9.27489V9.00618V3.45063V3.35063H9.17489H3.61933ZM23.0638 9.10618H23.1638V9.00618V3.45063V3.35063H23.0638H17.5082H17.4082V3.45063V9.00618V9.10618H17.5082H23.0638ZM3.61933 17.2395H3.51933V17.3395V22.8951V22.9951H3.61933H9.17489H9.27489V22.8951V17.3395V17.2395H9.17489H3.61933ZM18.8971 18.8284H18.9971V18.7284V16.0506H21.5749V18.7284V18.8284H21.6749H24.3527V21.4062H21.6749H21.5749V21.5062V24.184H18.9971V21.5062V21.4062H18.8971H16.2193V18.8284H18.8971ZM10.5638 11.684H2.23044C1.88861 11.684 1.56077 11.5482 1.31906 11.3065C1.07735 11.0647 0.941553 10.7369 0.941553 10.3951V2.06174C0.941553 1.71991 1.07735 1.39207 1.31906 1.15036C1.56077 0.908645 1.88861 0.772852 2.23044 0.772852H10.5638C10.9056 0.772852 11.2334 0.908645 11.4752 1.15036C11.7169 1.39207 11.8527 1.71991 11.8527 2.06174V10.3951C11.8527 10.7369 11.7169 11.0647 11.4752 11.3065C11.2334 11.5482 10.9056 11.684 10.5638 11.684ZM16.1193 0.772852H24.4527C24.7945 0.772852 25.1223 0.908645 25.364 1.15036C25.6058 1.39207 25.7416 1.71991 25.7416 2.06174V10.3951C25.7416 10.7369 25.6058 11.0647 25.364 11.3065C25.1223 11.5482 24.7945 11.684 24.4527 11.684H16.1193C15.7775 11.684 15.4497 11.5482 15.2079 11.3065C14.9662 11.0647 14.8304 10.7369 14.8304 10.3951V2.06174C14.8304 1.71991 14.9662 1.39207 15.2079 1.15036C15.4497 0.908645 15.7775 0.772852 16.1193 0.772852ZM11.4752 25.1953C11.2334 25.4371 10.9056 25.5729 10.5638 25.5729H2.23044C1.88861 25.5729 1.56077 25.4371 1.31906 25.1953C1.07735 24.9536 0.941553 24.6258 0.941553 24.284V15.9506C0.941553 15.6088 1.07735 15.281 1.31906 15.0392C1.56077 14.7975 1.88861 14.6617 2.23044 14.6617H10.5638C10.9056 14.6617 11.2334 14.7975 11.4752 15.0392C11.7169 15.281 11.8527 15.6088 11.8527 15.9506V24.284C11.8527 24.6258 11.7169 24.9536 11.4752 25.1953Z" fill="#1B2559" stroke="#EBEEFD" stroke-width="0.2"/>
</svg>
