<svg width="54" height="43" viewBox="0 0 54 43" fill="none" xmlns="http://www.w3.org/2000/svg">
<path d="M18.869 21.3262C24.7239 21.3262 29.469 16.625 29.469 10.8262C29.469 5.02738 24.7239 0.326172 18.869 0.326172C13.0887 0.326172 8.34355 5.02738 8.34355 10.8262C8.34355 16.625 13.0887 21.3262 18.869 21.3262ZM23.1422 25.2637H14.745C6.82063 25.2637 0.393555 31.6375 0.393555 39.4879C0.393555 41.0547 1.6788 42.3262 3.26384 42.3262H26.9813C26.8782 41.8725 26.8629 41.3984 26.9579 40.9284L28.1405 35.0705C28.2999 34.2758 28.6943 33.546 29.2733 32.9738L33.0595 29.2233C30.4793 26.773 26.9929 25.2637 23.1422 25.2637ZM31.1501 34.8285C30.9419 35.0347 30.8 35.2974 30.7424 35.5835L29.5598 41.4413C29.4556 41.9572 29.9153 42.4126 30.4368 42.31L36.3512 41.1378C36.6397 41.0806 36.9047 40.9401 37.1127 40.734L47.4891 30.4555L41.5258 24.5484L31.1501 34.8285ZM52.524 21.3016L50.7767 19.5699C49.6123 18.4165 47.725 18.4165 46.5607 19.5699L43.4031 22.6986L49.3664 28.6056L52.524 25.4778C53.6834 24.3203 53.6834 22.45 52.524 21.3016Z" fill="#4B00D4"/>
</svg>
