<svg width="53" height="53" viewBox="0 0 53 53" fill="none" xmlns="http://www.w3.org/2000/svg">
<path d="M48.4204 26.1306C48.4204 25.8922 48.2904 25.6539 48.2254 25.4156C48.1251 24.9951 47.9948 24.5824 47.8354 24.1806C47.727 23.9206 47.5754 23.6606 47.4454 23.3789C47.3154 23.0972 47.1204 22.7289 46.9254 22.4256C46.7304 22.1222 46.4704 21.9706 46.4704 21.7972C46.4704 21.6239 46.037 21.2556 45.7987 20.9956C45.5604 20.7356 45.3437 20.5622 45.1054 20.3456L44.3037 19.6306L43.5237 19.1106C43.2175 18.9232 42.899 18.7567 42.5704 18.6122L41.7254 18.2222C41.3715 18.0912 41.0096 17.9826 40.642 17.8972C40.3508 17.8116 40.054 17.7464 39.7537 17.7022L39.2554 17.4639C38.3713 14.9095 36.7129 12.6942 34.5111 11.1263C32.3093 9.5584 29.6734 8.71582 26.9704 8.71582C24.2673 8.71582 21.6315 9.5584 19.4297 11.1263C17.2278 12.6942 15.5695 14.9095 14.6854 17.4639L14.2954 17.5722C13.9951 17.6164 13.6982 17.6816 13.407 17.7672C13.0394 17.8526 12.6776 17.9612 12.3237 18.0922L11.4787 18.4822C11.1501 18.6267 10.8316 18.7932 10.5254 18.9806L9.74538 19.6306L8.94371 20.3022C8.70538 20.5189 8.46704 20.7139 8.25038 20.9522C8.03371 21.1906 7.79538 21.4939 7.57871 21.7539C7.36204 22.0139 7.18871 22.2522 7.01538 22.5339C6.84204 22.8156 6.66871 23.1622 6.49538 23.4872C6.32204 23.8122 6.21371 24.0289 6.10538 24.2889C5.946 24.6907 5.81567 25.1034 5.71538 25.5239C5.71538 25.7622 5.56371 26.0006 5.52038 26.2389C5.38552 26.917 5.31299 27.606 5.30371 28.2972C5.31387 28.9587 5.37909 29.6182 5.49871 30.2689C5.49871 30.4856 5.60704 30.6806 5.65038 30.8972C5.75747 31.3229 5.88766 31.7424 6.04038 32.1539L6.30038 32.7822C6.49111 33.2001 6.70821 33.6053 6.95038 33.9956L7.25371 34.4722C7.28488 34.533 7.32112 34.5909 7.36204 34.6456L7.47038 34.7972C8.47947 36.1427 9.78796 37.2347 11.2922 37.9869C12.7965 38.739 14.4552 39.1306 16.137 39.1306H22.637V36.1622C21.9787 36.5441 21.2314 36.7459 20.4704 36.7472C19.2966 36.7363 18.1749 36.2611 17.3504 35.4256C16.9545 35.0161 16.6433 34.5325 16.4344 34.0026C16.2256 33.4727 16.1233 32.9068 16.1334 32.3373C16.1434 31.7678 16.2657 31.2059 16.4931 30.6837C16.7205 30.1614 17.0486 29.6892 17.4587 29.2939L23.9587 23.0106C24.7674 22.2311 25.8472 21.7961 26.9704 21.7972C28.1178 21.8021 29.2165 22.2618 30.0254 23.0756L36.5254 29.5756C37.3325 30.3875 37.7855 31.4858 37.7855 32.6306C37.7855 33.7754 37.3325 34.8737 36.5254 35.6856C35.7165 36.4993 34.6178 36.9591 33.4704 36.9639C32.7082 36.9711 31.9587 36.7687 31.3037 36.3789V39.1306H37.8037C39.4855 39.1306 41.1443 38.739 42.6485 37.9869C44.1528 37.2347 45.4613 36.1427 46.4704 34.7972L46.5787 34.6889C46.6196 34.6343 46.6559 34.5763 46.687 34.5156L46.9904 34.0389C47.2325 33.6486 47.4497 33.2434 47.6404 32.8256L47.9004 32.1972C48.0531 31.7857 48.1833 31.3662 48.2904 30.9406C48.2904 30.7239 48.3987 30.5289 48.442 30.3122C48.5641 29.6473 48.6293 28.9732 48.637 28.2972C48.6345 27.5697 48.562 26.8442 48.4204 26.1306Z" fill="#4B00D4"/>
<path d="M28.5085 24.593C28.1035 24.196 27.559 23.9736 26.9918 23.9736C26.4247 23.9736 25.8802 24.196 25.4752 24.593L18.9752 30.8763C18.7453 31.066 18.557 31.3011 18.4221 31.5669C18.2872 31.8327 18.2086 32.1235 18.1912 32.4211C18.1738 32.7186 18.218 33.0166 18.321 33.2963C18.424 33.576 18.5836 33.8314 18.7899 34.0466C18.9961 34.2618 19.2445 34.4322 19.5196 34.547C19.7947 34.6618 20.0905 34.7186 20.3885 34.7139C20.6865 34.7092 20.9804 34.643 21.2517 34.5195C21.523 34.3961 21.7659 34.218 21.9652 33.9963L24.8035 31.2447V43.4647C24.8035 44.0393 25.0318 44.5904 25.4381 44.9967C25.8444 45.403 26.3955 45.6313 26.9702 45.6313C27.5448 45.6313 28.0959 45.403 28.5022 44.9967C28.9086 44.5904 29.1368 44.0393 29.1368 43.4647V31.353L31.9318 34.1697C32.1333 34.3727 32.3729 34.5339 32.6369 34.6439C32.901 34.7539 33.1842 34.8106 33.4702 34.8106C33.7562 34.8106 34.0394 34.7539 34.3034 34.6439C34.5675 34.5339 34.8071 34.3727 35.0085 34.1697C35.2116 33.9682 35.3728 33.7286 35.4828 33.4646C35.5928 33.2005 35.6494 32.9173 35.6494 32.6313C35.6494 32.3453 35.5928 32.0621 35.4828 31.7981C35.3728 31.534 35.2116 31.2944 35.0085 31.093L28.5085 24.593Z" fill="#4B00D4"/>
</svg>
