<svg width="53" height="53" viewBox="0 0 53 53" fill="none" xmlns="http://www.w3.org/2000/svg">
<path d="M21.7274 35.1784V33.0117H6.58238L6.56071 41.6784C6.56071 44.0834 8.48904 46.0117 10.894 46.0117H41.2274C43.6324 46.0117 45.5607 44.0834 45.5607 41.6784V33.0117H30.394V35.1784H21.7274ZM43.394 15.6784H34.7057V11.3451L30.3724 7.01172H21.7057L17.3724 11.3451V15.6784H8.72738C6.34404 15.6784 4.39404 17.6284 4.39404 20.0117V26.5117C4.39404 28.9167 6.32238 30.8451 8.72738 30.8451H21.7274V26.5117H30.394V30.8451H43.394C45.7774 30.8451 47.7274 28.8951 47.7274 26.5117V20.0117C47.7274 17.6284 45.7774 15.6784 43.394 15.6784ZM30.394 15.6784H21.7274V11.3451H30.394V15.6784Z" fill="#4B00D4"/>
</svg>
