<svg width="20" height="17" viewBox="0 0 20 17" fill="none" xmlns="http://www.w3.org/2000/svg">
<path d="M10.6045 12.162C10.6045 13.3574 10.0979 14.5039 9.19608 15.3492C8.29427 16.1944 7.07115 16.6693 5.7958 16.6693C4.52044 16.6693 3.29732 16.1944 2.39551 15.3492C1.49369 14.5039 0.987061 13.3574 0.987061 12.162C0.987061 10.9666 1.49369 9.82021 2.39551 8.97494C3.29732 8.12967 4.52044 7.6548 5.7958 7.6548C7.07115 7.6548 8.29427 8.12967 9.19608 8.97494C10.0979 9.82021 10.6045 10.9666 10.6045 12.162ZM6.69459 9.2938H5.44257C5.35365 9.2938 5.26685 9.31921 5.19374 9.36665C5.12063 9.41409 5.06469 9.4813 5.03339 9.55931L4.04979 12.0178C4.02491 12.0798 4.01644 12.1465 4.02511 12.2123C4.03377 12.278 4.05931 12.3408 4.09954 12.3953C4.13977 12.4497 4.19348 12.4943 4.25608 12.525C4.31868 12.5557 4.3883 12.5718 4.45897 12.5718H5.14006L4.46421 14.4714C4.42921 14.5694 4.43356 14.676 4.47645 14.7712C4.51933 14.8665 4.59781 14.9438 4.69716 14.9886C4.79651 15.0335 4.9099 15.0428 5.01607 15.0149C5.12224 14.9869 5.21389 14.9236 5.27383 14.8369L7.56891 11.5278C7.60918 11.4696 7.63198 11.4024 7.63489 11.3331C7.63781 11.2639 7.62073 11.1952 7.58545 11.1342C7.55018 11.0733 7.49803 11.0225 7.43449 10.987C7.37094 10.9515 7.29837 10.9328 7.22443 10.9328H6.67011L7.10465 9.84778C7.12955 9.78571 7.13801 9.71891 7.1293 9.6531C7.12059 9.5873 7.09497 9.52446 7.05465 9.46998C7.01432 9.41549 6.96049 9.371 6.89777 9.34031C6.83506 9.30963 6.76534 9.29366 6.69459 9.2938ZM13.4871 2.15677C13.4058 2.23283 13.3412 2.32317 13.2972 2.42262C13.2531 2.52208 13.2304 2.6287 13.2303 2.7364C13.2302 2.84409 13.2528 2.95075 13.2967 3.05026C13.3406 3.14978 13.405 3.2402 13.4863 3.31636L16.3628 6.0158H10.6045L10.4078 6.01252C9.05149 5.96481 7.7677 5.42623 6.82615 4.50994C5.8846 3.59365 5.35859 2.37097 5.35864 1.0988C5.35864 0.881452 5.26652 0.673009 5.10256 0.519323C4.93859 0.365637 4.71621 0.279297 4.48432 0.279297C4.25244 0.279297 4.03005 0.365637 3.86609 0.519323C3.70212 0.673009 3.61001 0.881452 3.61001 1.0988L3.6135 1.30367C3.67029 3.00611 4.43173 4.62101 5.7366 5.80644C7.04147 6.99187 8.78733 7.65478 10.6045 7.6548H16.3654L13.4863 10.3534C13.4051 10.4296 13.3407 10.5199 13.2968 10.6194C13.2529 10.7189 13.2303 10.8254 13.2304 10.9331C13.2304 11.0407 13.2531 11.1473 13.297 11.2467C13.341 11.3462 13.4055 11.4365 13.4867 11.5126C13.5679 11.5887 13.6644 11.649 13.7705 11.6902C13.8766 11.7313 13.9903 11.7525 14.1052 11.7525C14.22 11.7524 14.3337 11.7312 14.4398 11.69C14.5459 11.6487 14.6423 11.5883 14.7234 11.5122L19.0915 7.41632C19.2552 7.26268 19.3471 7.05445 19.3471 6.83735C19.3471 6.62024 19.2552 6.41201 19.0915 6.25837L14.7234 2.15759C14.5595 2.00396 14.3371 1.91765 14.1053 1.91765C13.8735 1.91765 13.6511 2.00396 13.4871 2.15759V2.15677Z" fill="#1B2559"/>
</svg>
