<svg width="21" height="20" viewBox="0 0 21 20" fill="none" xmlns="http://www.w3.org/2000/svg">
<path d="M10.7217 9.03612C10.6266 8.94508 10.5145 8.87371 10.3917 8.82612C10.1483 8.7261 9.87518 8.7261 9.63172 8.82612C9.50897 8.87371 9.39682 8.94508 9.30172 9.03612L7.30172 11.0361C7.11341 11.2244 7.00763 11.4798 7.00763 11.7461C7.00763 12.0124 7.11341 12.2678 7.30172 12.4561C7.49002 12.6444 7.74542 12.7502 8.01172 12.7502C8.27802 12.7502 8.53341 12.6444 8.72172 12.4561L9.01172 12.1561V14.7461C9.01172 15.0113 9.11708 15.2657 9.30461 15.4532C9.49215 15.6408 9.7465 15.7461 10.0117 15.7461C10.2769 15.7461 10.5313 15.6408 10.7188 15.4532C10.9064 15.2657 11.0117 15.0113 11.0117 14.7461V12.1561L11.3017 12.4561C11.3947 12.5498 11.5053 12.6242 11.6271 12.675C11.749 12.7258 11.8797 12.7519 12.0117 12.7519C12.1437 12.7519 12.2744 12.7258 12.3963 12.675C12.5182 12.6242 12.6288 12.5498 12.7217 12.4561C12.8154 12.3632 12.8898 12.2526 12.9406 12.1307C12.9914 12.0088 13.0175 11.8781 13.0175 11.7461C13.0175 11.6141 12.9914 11.4834 12.9406 11.3615C12.8898 11.2397 12.8154 11.1291 12.7217 11.0361L10.7217 9.03612ZM17.0117 3.74612H10.7317L10.4117 2.74612C10.2043 2.15935 9.81947 1.65162 9.31062 1.29328C8.80177 0.934934 8.19408 0.743717 7.57172 0.746116H3.01172C2.21607 0.746116 1.45301 1.06219 0.890399 1.6248C0.327789 2.1874 0.0117188 2.95047 0.0117188 3.74612V16.7461C0.0117188 17.5418 0.327789 18.3048 0.890399 18.8674C1.45301 19.43 2.21607 19.7461 3.01172 19.7461H17.0117C17.8074 19.7461 18.5704 19.43 19.133 18.8674C19.6956 18.3048 20.0117 17.5418 20.0117 16.7461V6.74612C20.0117 5.95047 19.6956 5.18741 19.133 4.6248C18.5704 4.06219 17.8074 3.74612 17.0117 3.74612ZM18.0117 16.7461C18.0117 17.0113 17.9064 17.2657 17.7188 17.4532C17.5313 17.6408 17.2769 17.7461 17.0117 17.7461H3.01172C2.7465 17.7461 2.49215 17.6408 2.30461 17.4532C2.11708 17.2657 2.01172 17.0113 2.01172 16.7461V3.74612C2.01172 3.4809 2.11708 3.22655 2.30461 3.03901C2.49215 2.85147 2.7465 2.74612 3.01172 2.74612H7.57172C7.78136 2.74557 7.98587 2.81094 8.15635 2.93296C8.32682 3.05498 8.45463 3.22749 8.52172 3.42612L9.06172 5.06612C9.1288 5.26474 9.25662 5.43725 9.42709 5.55927C9.59756 5.6813 9.80208 5.74666 10.0117 5.74612H17.0117C17.2769 5.74612 17.5313 5.85147 17.7188 6.03901C17.9064 6.22655 18.0117 6.4809 18.0117 6.74612V16.7461Z" fill="#F86CA9"/>
</svg>
